<?xml version="1.0" encoding="UTF-8"?>
<svg id="Layer_1" data-name="Layer 1" xmlns="http://www.w3.org/2000/svg" viewBox="0 0 115 97">
  <path d="m63.71,81.9c-7.48,0-15.2-1.52-22.44-2.96-12.89-2.54-24.02-4.74-30.08,1.87-.29.31-.73.41-1.12.25-.39-.16-.63-.55-.61-.97,1.44-29.15,7.85-47.85,19.59-57.16,13.02-10.33,30.03-7.24,45.03-4.51,12.86,2.34,23.96,4.35,28.99-2.85.25-.36.72-.51,1.14-.37.42.14.7.55.68.99-1.31,30.44-7.68,49.74-19.48,59.02-6.45,5.07-13.95,6.71-21.7,6.71Zm-40.26-7.43c5.5,0,11.76,1.24,18.2,2.51,14.32,2.83,30.56,6.04,42.52-3.36,10.95-8.61,17.03-26.51,18.58-54.69-6.23,5.59-16.89,3.66-29.03,1.45-14.59-2.65-31.12-5.66-43.43,4.11-10.94,8.68-17.07,26.12-18.71,53.27,3.21-2.42,7.28-3.28,11.87-3.28Z" fill="#53b68c"/>
  <path d="m26.54,60.98c-.19,0-.38-.05-.54-.16-.46-.3-.59-.92-.29-1.38,15.93-24.53,37.43-23.03,58.08-19.4.54.1.91.61.81,1.16-.1.54-.62.9-1.16.81-19.99-3.52-40.79-4.98-56.06,18.52-.19.29-.51.46-.84.46Z" fill="#53b68c"/>
  <path d="m66.74,53.56c-.13,0-.26-.02-.38-.08-.51-.21-.75-.8-.54-1.31,3.09-7.43,9.25-9.95,16.02-11.74-3.8-4.47-8.7-8.61-18.99-9.31-.55-.04-.97-.52-.93-1.07.04-.55.5-.95,1.07-.93,12.01.82,17.16,6.01,21.41,11.26.21.27.28.62.17.95s-.38.57-.71.65c-7.1,1.77-13.22,3.82-16.19,10.96-.16.38-.53.62-.92.62Z" fill="#53b68c"/>
</svg>