<?xml version="1.0" encoding="utf-8"?>
<!-- Generator: Adobe Illustrator 27.2.0, SVG Export Plug-In . SVG Version: 6.00 Build 0)  -->
<svg version="1.1" xmlns="http://www.w3.org/2000/svg" xmlns:xlink="http://www.w3.org/1999/xlink" x="0px" y="0px"
	 viewBox="0 0 500 111.17" style="enable-background:new 0 0 500 111.17;" xml:space="preserve">
<style type="text/css">
	.st0{fill:#FFFFFF;}
	.st1{fill:#655CD6;}
</style>
<g id="Layer_1">
</g>
<g id="Layer_2">
	<g>
		<path class="st0" d="M125.47,39.39c-4.54-2.73-9.7-4.1-15.49-4.1c-5.79,0-10.97,1.37-15.55,4.1c-4.58,2.73-8.2,6.45-10.85,11.15
			c-1.3,2.3-2.27,4.75-2.94,7.35c0,0,0-0.01,0-0.01s0,0.02-0.01,0.06c-0.18,0.71-0.34,1.43-0.47,2.16
			c-0.37,1.62-0.91,3.85-1.49,5.74c-0.97,3.14-2.81,6.56-4.11,8.19c-2.88,3.43-6.22,6.09-10.04,7.96
			c-4.02,1.97-8.28,2.95-12.78,2.95c-4.1,0-7.9-0.76-11.39-2.29c-3.5-1.53-6.55-3.68-9.16-6.45c-2.61-2.77-4.64-6.01-6.09-9.7
			c-1.45-3.7-2.17-7.71-2.17-12.05s0.72-8.36,2.17-12.05c1.45-3.7,3.48-6.93,6.09-9.7c2.61-2.77,5.67-4.92,9.16-6.45
			c3.5-1.53,7.29-2.29,11.39-2.29c4.5,0,8.76,0.96,12.78,2.89c4.02,1.93,7.51,4.78,10.49,8.56l9.64-9.4
			c-2.57-3.21-5.61-5.93-9.1-8.14c-3.5-2.21-7.25-3.92-11.27-5.12c-4.02-1.21-8.2-1.81-12.54-1.81c-6.11,0-11.81,1.11-17.12,3.31
			c-5.3,2.21-9.95,5.3-13.92,9.28c-3.98,3.98-7.07,8.6-9.28,13.86c-2.21,5.26-3.31,10.95-3.31,17.06c0,6.11,1.1,11.79,3.31,17.06
			c2.21,5.26,5.3,9.88,9.28,13.86c3.98,3.98,8.62,7.07,13.92,9.28c5.3,2.21,11.01,3.32,17.12,3.32c4.34,0,8.52-0.6,12.54-1.81
			c4.02-1.21,7.78-2.93,11.27-5.18c3.28-2.11,6.14-4.64,8.61-7.53c2.59,4.24,6.03,7.64,10.32,10.18c4.62,2.73,9.78,4.1,15.49,4.1
			c5.79,0,10.95-1.37,15.49-4.1c4.54-2.73,8.14-6.45,10.79-11.15c2.65-4.7,3.98-10.02,3.98-15.97c0-5.95-1.33-11.27-3.98-15.97
			C133.6,45.84,130.01,42.12,125.47,39.39z M124.68,76.58c-1.45,3.01-3.44,5.36-5.97,7.05c-2.53,1.69-5.44,2.53-8.74,2.53
			c-3.3,0-6.23-0.84-8.8-2.53c-2.57-1.69-4.58-4.02-6.03-6.99c-1.45-2.97-2.17-6.35-2.17-10.13c0-3.78,0.72-7.13,2.17-10.07
			c1.45-2.93,3.46-5.26,6.03-6.99c2.57-1.73,5.5-2.59,8.8-2.59c3.3,0,6.21,0.86,8.74,2.59c2.53,1.73,4.52,4.06,5.97,6.99
			c1.45,2.93,2.17,6.29,2.17,10.07C126.85,70.21,126.13,73.56,124.68,76.58z"/>
		<path class="st0" d="M183.87,38c-3.13-1.81-6.75-2.71-10.85-2.71c-4.02,0-7.64,0.9-10.85,2.71c-3.22,1.81-5.99,4.52-8.32,8.14
			v-9.88h-13.62v30.26v30.14h13.62V53.61c1.61-2.41,3.51-4.24,5.73-5.49c2.21-1.24,4.68-1.87,7.41-1.87c4.02,0,7.23,1.31,9.64,3.92
			c2.41,2.61,3.62,6.13,3.62,10.55v35.92H194V56.87c0-4.34-0.9-8.12-2.71-11.33C189.48,42.32,187.01,39.81,183.87,38z"/>
		<path class="st0" d="M437.16,39.39c-4.54-2.73-9.7-4.1-15.49-4.1c-5.79,0-10.97,1.37-15.55,4.1c-4.58,2.73-8.2,6.45-10.85,11.15
			c-2.65,4.7-3.98,10.03-3.98,15.97c0,5.95,1.33,11.27,3.98,15.97c0.3,0.52,0.61,1.03,0.93,1.53c-0.66,0.26-1.36,0.5-2.1,0.7
			c-1.77,0.56-3.24,0.95-4.4,1.14c-1.17,0.2-2.43,0.3-3.8,0.3c-2.97,0-5.12-0.62-6.45-1.87c-1.33-1.25-1.99-3.36-1.99-6.33V47.1
			h11.94V36.26h-11.94V16.73l-13.62,2.89v16.64V47.1v33.87c0,5.55,1.57,9.75,4.7,12.6c3.13,2.85,7.76,4.28,13.86,4.28
			c1.85,0,3.84-0.14,5.97-0.42c2.13-0.28,4.04-0.7,5.73-1.27c0,0,5.08-1.36,10.15-3.78c0.63,0.44,1.27,0.86,1.94,1.25
			c4.62,2.73,9.78,4.1,15.49,4.1c5.79,0,10.95-1.37,15.49-4.1c4.54-2.73,8.14-6.45,10.79-11.15c2.65-4.7,3.98-10.02,3.98-15.97
			c0-5.95-1.33-11.27-3.98-15.97C445.3,45.84,441.7,42.12,437.16,39.39z M436.38,76.58c-1.45,3.01-3.43,5.36-5.97,7.05
			c-2.53,1.69-5.45,2.53-8.74,2.53c-3.3,0-6.23-0.84-8.8-2.53c-2.57-1.69-4.58-4.02-6.03-6.99c-1.45-2.97-2.17-6.35-2.17-10.13
			c0-3.78,0.72-7.13,2.17-10.07c1.45-2.93,3.45-5.26,6.03-6.99c2.57-1.73,5.5-2.59,8.8-2.59c3.29,0,6.21,0.86,8.74,2.59
			c2.53,1.73,4.52,4.06,5.97,6.99c1.45,2.93,2.17,6.29,2.17,10.07C438.55,70.21,437.83,73.56,436.38,76.58z"/>
		<path class="st0" d="M484.54,47.22c1.33,0.24,2.51,0.6,3.56,1.08V36.38c-0.96-0.48-1.89-0.78-2.77-0.9
			c-0.89-0.12-1.93-0.22-3.13-0.3c-3.7,0-6.95,1.21-9.76,3.62c-2.81,2.41-5.1,5.91-6.87,10.49V36.26h-13.62v30.26v30.14h13.62V56.87
			c1.53-3.13,3.6-5.58,6.21-7.35c2.61-1.77,5.56-2.65,8.86-2.65C481.9,46.86,483.21,46.98,484.54,47.22z"/>
		<path class="st1" d="M489.72,82.79c-1.65-1.69-3.64-2.53-5.97-2.53c-2.33,0-4.32,0.84-5.97,2.53c-1.65,1.69-2.47,3.78-2.47,6.27
			c0,2.33,0.82,4.36,2.47,6.09c1.65,1.73,3.63,2.59,5.97,2.59c2.33,0,4.32-0.87,5.97-2.59c1.65-1.73,2.47-3.76,2.47-6.09
			C492.19,86.56,491.37,84.47,489.72,82.79z"/>
		<path class="st0" d="M298.55,78.96l-0.15-0.15c-2.09,2.25-4.42,3.98-6.99,5.18c-2.57,1.21-5.3,1.81-8.2,1.81
			c-3.3,0-6.25-0.84-8.86-2.53c-2.61-1.69-4.68-4-6.21-6.93c-1.53-2.93-2.29-6.21-2.29-9.82c0-3.62,0.76-6.87,2.29-9.76
			c1.53-2.89,3.6-5.2,6.21-6.93c2.61-1.73,5.56-2.59,8.86-2.59c2.89,0,5.62,0.6,8.2,1.81c2.57,1.21,4.9,2.97,6.99,5.3l0.03-0.03
			c0.72-2.12,1.62-4.15,2.74-6.1c1.01-1.76,2.15-3.39,3.4-4.93c-2.48-2.22-5.32-4-8.52-5.34c-4.22-1.77-8.66-2.65-13.32-2.65
			c-5.71,0-10.87,1.39-15.49,4.16c-4.62,2.77-8.28,6.51-10.97,11.21c-2.69,4.7-4.04,9.99-4.04,15.85c0,5.79,1.34,11.05,4.04,15.79
			c2.69,4.74,6.35,8.5,10.97,11.27c4.62,2.77,9.78,4.16,15.49,4.16c4.66,0,9.1-0.89,13.32-2.65c3.2-1.34,6.04-3.13,8.53-5.35
			c-1.26-1.55-2.41-3.21-3.42-4.99C300.11,82.89,299.25,80.96,298.55,78.96z"/>
		<path class="st0" d="M243.2,77.54c-1.38,1.92-4.04,3.87-6.19,5.25c-2.29,1.47-4.82,2.47-7.58,3.01c-3,0.58-5.92,0.42-8.76-0.5
			c-2.84-0.92-5.31-2.47-7.41-4.64c-2.1-2.17-3.7-4.82-4.81-7.97l32.01-6.24l11.77-2.29l-0.62-3.19c-0.98-5.03-2.75-9.4-5.28-13.13
			c-0.44-0.65-0.9-1.29-1.4-1.9c-3.3-4.1-7.32-7.09-12.06-8.95c-4.74-1.86-9.88-2.25-15.4-1.17c-5.37,1.05-9.97,3.36-13.82,6.93
			c-3.85,3.57-6.59,7.9-8.22,12.96c-1.63,5.07-1.88,10.52-0.74,16.36c1.14,5.84,3.5,10.8,7.08,14.89c3.58,4.09,7.92,7.05,13.03,8.88
			c5.1,1.83,10.5,2.19,16.18,1.08c4.5-0.88,8.48-2.37,11.96-4.48c1.83-1.11,3.59-2.45,5.29-4c-1.31-1.84-2.43-3.83-3.32-5.74
			C244.25,81.26,243.61,79.22,243.2,77.54z M208.42,56.12c0.99-2.48,2.45-4.55,4.38-6.2c1.93-1.64,4.2-2.72,6.8-3.23
			c2.6-0.51,5.11-0.34,7.53,0.5c2.41,0.84,4.57,2.22,6.46,4.15c1.89,1.92,3.35,4.26,4.37,7.01l-31,6.04
			C206.94,61.36,207.43,58.61,208.42,56.12z"/>
		<path class="st0" d="M353.21,79.05l-0.23-0.24c-2.09,2.25-4.42,3.98-6.99,5.18c-2.57,1.21-5.3,1.81-8.2,1.81
			c-3.3,0-6.25-0.84-8.86-2.53c-2.61-1.69-4.68-4-6.21-6.93c-1.53-2.93-2.29-6.21-2.29-9.82c0-3.62,0.76-6.87,2.29-9.76
			c1.53-2.89,3.6-5.2,6.21-6.93c2.61-1.73,5.56-2.59,8.86-2.59c2.89,0,5.62,0.6,8.2,1.81c2.57,1.21,4.9,2.97,6.99,5.3l0.23-0.24
			V47.1v-7.93c-0.84-0.44-1.69-0.86-2.58-1.23c-4.22-1.77-8.66-2.65-13.32-2.65c-5.71,0-10.87,1.39-15.49,4.16
			c-4.62,2.77-8.28,6.51-10.97,11.21c-2.69,4.7-4.04,9.99-4.04,15.85c0,5.79,1.34,11.05,4.04,15.79c2.69,4.74,6.35,8.5,10.97,11.27
			c4.62,2.77,9.78,4.16,15.49,4.16c4.66,0,9.1-0.89,13.32-2.65c1.83-0.76,3.53-1.68,5.12-2.73c-1.68-3.17-2.54-6.97-2.54-11.37
			V79.05z"/>
	</g>
</g>
</svg>
