<?xml version="1.0" encoding="UTF-8"?>
<svg id="Layer_1" data-name="Layer 1" xmlns="http://www.w3.org/2000/svg" viewBox="0 0 214 215">
  <path d="m209.4,43.08l-17.09-32.1c-.12-.22-.3-.42-.52-.56-.21-.14-.46-.22-.72-.25l-37.56-3.18c-.27-.02-.55.03-.8.14-.25.12-.46.29-.62.51l-10.03,14.17-5.68-10.67c-.16-.29-.39-.53-.67-.72-.28-.18-.61-.29-.94-.32L62.88,4.01c-.36-.03-.72.04-1.05.19-.33.15-.6.38-.81.67L25.68,54.8c-.2.28-.31.61-.34.96s.05.68.21.99l13.1,24.62,6.47,12.24-20.56-1.74c-.27-.02-.55.03-.79.14-.25.11-.47.29-.62.51l-18.47,26.09c-.16.22-.25.48-.26.75-.02.27.04.54.17.78l10.22,19.26c4.19,8.3,6.51,12.7,6.89,13.08.62.62,1.23.62,1.48.59l37.31,3.16s.06,0,.09,0c.71,0,1.1-.35,1.32-.65l18.47-26.1c.15-.22.24-.48.26-.75s-.04-.54-.17-.78l-3.89-7.31,15.98,1.36h0l9.06.77h0l30.16,2.56c.87.03,1.47-.27,1.86-.83l8.81-12.45,7.24-10.23,19.31-27.28c.2-.28.31-.61.33-.96.02-.34-.05-.68-.21-.99l-1.65-3.09,21.98,1.86s.06,0,.09,0c.71,0,1.1-.35,1.31-.65l18.47-26.1c.15-.22.25-.48.26-.75.02-.27-.04-.54-.17-.78Zm-61.02-9.41l-4.7-8.83,9.51-13.43,4.7,8.83-9.51,13.43Zm-3.98.99l-6.85-1.16,3.56-5.03,3.29,6.18Zm38.21-13.88l-21.93-1.86-4.63-8.7,32.11,2.72-5.55,7.84Zm-.22,3l9.09,17.08-20.03-1.7-9.09-17.08,20.03,1.7Zm-20.79,31.99l9.63-13.61,20.13,1.71-9.63,13.61-20.13-1.71Zm-2.45-1.86l-9.16-17.21,9.51-13.43,9.16,17.21-9.51,13.43Zm-12.97-15.9l10.4,19.53-4.4,6.21-14.47-27.18,8.47,1.43Zm12.01,22.56l2.86,5.37-6.28-.53,3.42-4.83Zm3.56-1.78l19.84,1.68,4.97,7.63-11.61-.98-9.19-.78-4.02-7.54Zm43.49-13.75l-15.64,22.09-5.25-8.05,10.55-14.91,10.33.88Zm.11-3.01l-10.22-.87-9.96-18.7,5.57-7.87,14.61,27.44Zm-74.34-28.39l-11.91,16.82-43.04-3.65-9.94-18.67,64.89,5.5Zm-34.61,55.74l40.75,3.45-19.72,27.86-40.75-3.45,19.72-27.86Zm-23.05,25.71l-18.55-34.83,19.72-27.86,18.54,34.83-19.72,27.86Zm23.34-29.54l-18.48-34.71,40.61,3.44,18.48,34.71-40.61-3.44ZM62.44,9.69l10.01,18.8-20.9,29.53-20.82-3.52L62.44,9.69Zm-13.69,82.17l-.03-.05-1.06-1.98s0,0,0,0l-5.17-9.71-11.54-21.68,20.2,3.41,19.64,36.88-3.37,4.76-4.06-7.64c-.12-.22-.3-.42-.52-.55-.21-.14-.46-.22-.72-.25l-12.22-1.04-1.14-2.15Zm-30.69,31.16l10,18.77-4.83,6.83-14.47-27.18,9.31,1.57Zm10.87-17.91l-10.56,14.92-9.78-1.65,15.64-22.1,4.7,8.83Zm1.69,38.37l22.01,1.87,4.97,7.63-11.61-.98-20.19-1.71,4.81-6.8Zm22.16-34.88c2.62,5.06,4.93,9.39,5.37,9.83.28.28.55.47.8.6l3.57,6.71-20.03-1.7-9.09-17.08,19.38,1.64Zm2.27-4.91l-3.47-6.51,7.62.65-4.15,5.87Zm-3.89,1.76l-19.43-1.65-4.63-8.7,19.63,1.67c1.27,2.49,2.85,5.6,4.44,8.69Zm-21.1,33.55l-9.16-17.21,9.66-13.64,9.16,17.21-9.66,13.64Zm2.59,1.65l9.63-13.61,20.13,1.71-9.63,13.61-20.13-1.71Zm30.97-24.95l3.89-5.5,3.25,6.1-7.14-.6Zm9.29,4.64l3.5,6.58-10.22-.87-3.5-6.58,10.23.87Zm-12.6-6.79l-3.64-6.83,5.13-7.25,3.64,6.83-5.13,7.25Zm15.99,16.37l-15.64,22.09-5.25-8.05,10.55-14.91,10.33.88Zm27.64-10.8l-11.04-.94s0,0,0,0l-18.48-1.57-4.91-9.22,4.61-6.52,43.15,3.66,10.84,16.63-24.17-2.05Zm43.36-20.79l-.12.17-2.09,2.95s0,0,0,0l-5.92,8.37-7.13,10.07-11.17-17.14,20.89-29.53,21.99,1.86-16.45,23.23Zm16.59-27.08l-21.84-1.85-19.59-36.78,11.91-16.82,5.15,9.67-5.86,8.28c-.15.22-.25.48-.26.75s.04.54.17.78l10.22,19.26c4.2,8.3,6.51,12.7,6.89,13.08.62.62,1.23.62,1.48.59l10.61.9,1.14,2.15Z"/>
  <path d="m180.12,143.62c-1.78-9.4-4.47-22.92-5.89-32.22-.24-1.43-.29-2.15.15-3.55.91-3.84,2.92-7.83,3.19-11.78-.87-6-2.64-11.44-4.14-17.22l-.37-.39-1.07-1.13-2.83,2.83.81.77c1.62,5.01,3.51,10.27,4.59,15.32-.35,3.74-1.91,7.29-2.67,11-.42,1.29-.38,3.23-.03,4.54.51,2.72,1.08,5.39,1.65,8.07,1.05,5.13,4,18.77,5.15,24.06,0,.05.03.14.06.18.6,1.43-1.68,1.12-2.62,1.19-1.64.04-3.41.06-5.05.21-1.06.19-2.61.1-3.25,1.21-.05.1-.08.34-.07.44,0,1.15-.04,2.32-.25,3.4-.23,1-.39,1.75-1.49,1.94-1.82.47-3.85.55-5.73.97-.61.1-1.78.57-1.37,1.47.56.86,1.8,1.37,2.61,1.93.29.21.83.52.93.79-1.35.99-3.69,1.49-5.27,2.73-.7.55-.51,1.43-.36,2.19.4,2.96,1.52,6.52.1,9.17l-1.11,1.17c-1.02,1.1-2.11,2.44-3.5,2.85-.95.31-1.97.22-3,.17-4.34-.3-8.76-.97-12.97-1.98-2.18-.47-3.83-1.05-5.54-2.6-3.43-2.75-6.79-5.67-10.17-8.54-3.41-2.84-6.9-5.58-10.67-8.03,5.81,6.85,12.72,12.42,19.59,18.14,3.48,3.24,8.48,3.72,12.97,4.22,2.24.21,4.46.41,6.71.49,2.47.32,5.08-.49,6.63-2.42l2.29-2.53c.86-1.22.9-2.49.94-3.65.01-2.62-.6-5.05-1.02-7.51,0,0,0-.05,0-.09.01-.02.03-.04.06-.07,1.22-.94,2.87-1.36,4.29-2.19.66-.33,1.6-1.07,1.25-1.97-.53-1.19-1.91-1.64-2.89-2.32-.12-.07-.23-.15-.34-.23,1.91-.5,4.74-.54,6.78-1.35,1.86-1.15,1.67-4.09,1.79-5.98,0-.01,0-.08,0-.15,0,0,0,0,0,0,2.2-.73,4.79-.5,7.1-.56,1.28-.04,2.59.27,3.72-.85.59-.68.58-1.6.23-2.38l.06.18Z"/>
  <path d="m130.87,201.93c-1.4-2.8-1.79-6.04-2.61-9.08-.17-.71-.47-1.61-.71-2.21,0-1.29.64-2.74,1.11-3.98,1.19-2.89,2.61-5.79,4.1-8.57l-2.66-1.39c-1.79,3.71-3.58,7.44-4.65,11.47-.22,1.02-.44,1.78-.24,2.95.23.77.67,1.54.88,2.35,1,3.1,1.7,6.43,3.4,9.28.24.37.52.75.88,1.09,2.66,2.48,5.26,5.01,8.23,7.17-2.16-2.97-4.69-5.57-7.17-8.23-.21-.23-.4-.52-.57-.84Z"/>
  <path d="m72.21,162.82c-.46,1.59-.97,2.79-1.98,4.12-10.78,14.78-22.99,28.45-34.12,42.96,4.92-4.55,9.18-9.68,13.61-14.66,6.58-7.54,13.16-15.07,19.46-22.85,2.09-2.69,4.61-5.36,5.55-8.75,2.07-6.47,3.37-12.97,4.74-19.59l-2.95-.55c-1.21,6.45-2.47,13.05-4.3,19.33Z"/>
  <path d="m156.24,125.03c2.43,0,4.41-1.97,4.41-4.41s-1.97-4.41-4.41-4.41-4.41,1.97-4.41,4.41,1.97,4.41,4.41,4.41Z"/>
  <path d="m114.65,93.53l-6.68-.57c-.83-.08-1.55.54-1.62,1.37-.07.83.54,1.55,1.37,1.62l6.68.57s.09,0,.13,0c.77,0,1.43-.59,1.49-1.37.07-.83-.54-1.55-1.37-1.62Z"/>
  <path d="m118.23,90.75c.07-.83-.54-1.55-1.37-1.62l-6.68-.57c-.82-.08-1.55.54-1.62,1.37-.07.83.54,1.55,1.37,1.62l6.68.57s.09,0,.13,0c.77,0,1.43-.59,1.49-1.37Z"/>
  <path d="m181.52,52.15l-4.33-.37c-.55-.05-1.03.36-1.08.91-.05.55.36,1.03.91,1.08l4.33.37s.06,0,.09,0c.51,0,.95-.39,1-.92.05-.55-.36-1.03-.91-1.08Z"/>
  <path d="m182.95,49.29l-4.33-.37c-.56-.05-1.03.36-1.08.91-.05.55.36,1.03.91,1.08l4.33.37s.06,0,.09,0c.51,0,.95-.39,1-.92.05-.55-.36-1.03-.91-1.08Z"/>
  <path d="m52.56,137.02l-4.33-.37c-.55-.04-1.03.36-1.08.91-.05.55.36,1.03.91,1.08l4.33.37s.06,0,.09,0c.51,0,.95-.39,1-.92.05-.55-.36-1.03-.91-1.08Z"/>
  <path d="m53.99,134.16l-4.33-.37c-.55-.05-1.03.36-1.08.91s.36,1.03.91,1.08l4.33.37s.06,0,.09,0c.51,0,.95-.39,1-.92.05-.55-.36-1.03-.91-1.08Z"/>
</svg>