<?xml version="1.0" encoding="UTF-8"?>
<svg id="Layer_1" data-name="Layer 1" xmlns="http://www.w3.org/2000/svg" viewBox="0 0 401 119">
  <g>
    <rect x="11.4" y="9.18" width="185.97" height="102.15" rx="10" ry="10" fill="#fff"/>
    <path d="m187.37,112.33H21.4c-6.07,0-11-4.93-11-11V19.18c0-6.07,4.93-11,11-11h165.97c6.07,0,11,4.93,11,11v82.15c0,6.07-4.93,11-11,11ZM21.4,10.18c-4.96,0-9,4.04-9,9v82.15c0,4.96,4.04,9,9,9h165.97c4.96,0,9-4.04,9-9V19.18c0-4.96-4.04-9-9-9H21.4Z" fill="#655cd6"/>
  </g>
  <g>
    <path d="m69.3,53.6c0-1.66.43-3.17,1.29-4.53.86-1.36,2.16-2.45,3.91-3.27s3.89-1.22,6.44-1.22,4.68.41,6.42,1.22,3.03,1.9,3.89,3.27c.86,1.37,1.29,2.88,1.29,4.53s-.39,3.1-1.17,4.32c-.78,1.23-1.83,2.19-3.15,2.9,1.66.8,2.93,1.89,3.82,3.29.89,1.4,1.33,3.03,1.33,4.9,0,2.18-.55,4.06-1.66,5.63-1.1,1.58-2.6,2.78-4.49,3.61s-3.98,1.24-6.28,1.24-4.39-.41-6.28-1.24c-1.89-.83-3.38-2.03-4.49-3.61-1.1-1.58-1.66-3.46-1.66-5.63,0-1.9.44-3.55,1.33-4.95s2.15-2.48,3.77-3.24c-2.88-1.53-4.32-3.94-4.32-7.22Zm8.14,11.8c-.89.78-1.33,1.86-1.33,3.24,0,1.29.44,2.35,1.31,3.17.87.83,2.05,1.24,3.52,1.24s2.63-.41,3.47-1.24c.84-.83,1.26-1.89,1.26-3.17s-.44-2.42-1.31-3.22c-.87-.8-2.02-1.2-3.43-1.2s-2.61.39-3.5,1.17Zm6.37-13.52c-.72-.69-1.68-1.04-2.88-1.04s-2.16.35-2.88,1.06c-.72.71-1.08,1.69-1.08,2.94s.37,2.14,1.1,2.83c.74.69,1.69,1.03,2.85,1.03s2.12-.35,2.85-1.06c.74-.71,1.1-1.66,1.1-2.85,0-1.26-.36-2.23-1.08-2.92Z" fill="#655cd6"/>
    <path d="m98.99,78c-.87-.81-1.31-1.82-1.31-3.01s.44-2.25,1.31-3.08,2-1.24,3.38-1.24,2.46.41,3.33,1.24c.88.83,1.31,1.86,1.31,3.08s-.44,2.2-1.31,3.01c-.87.81-1.99,1.22-3.33,1.22s-2.51-.41-3.38-1.22Z" fill="#655cd6"/>
    <path d="m111.06,72.87v-6.35l14.54-20.79h8.79v20.33h3.77v6.81h-3.77v5.98h-7.87v-5.98h-15.46Zm16.01-18.49l-7.73,11.68h7.73v-11.68Z" fill="#655cd6"/>
  </g>
  <g>
    <path d="m270.44,53.33l-7.36,19.52h-2.94l-7.36-19.52h2.72l6.13,16.83,6.13-16.83h2.69Z" fill="#655cd6"/>
    <path d="m287.16,66.13h-12.26c.09,1.51.61,2.69,1.55,3.54.94.85,2.09,1.27,3.43,1.27,1.1,0,2.02-.26,2.76-.77.74-.51,1.26-1.2,1.55-2.06h2.74c-.41,1.48-1.23,2.67-2.46,3.6-1.23.92-2.76,1.39-4.59,1.39-1.46,0-2.76-.33-3.91-.98-1.15-.65-2.05-1.58-2.7-2.79-.65-1.2-.98-2.6-.98-4.19s.32-2.98.95-4.17c.63-1.19,1.53-2.11,2.67-2.76,1.15-.64,2.47-.97,3.96-.97s2.74.32,3.86.95,1.98,1.51,2.59,2.62c.61,1.11.91,2.37.91,3.77,0,.49-.03,1-.08,1.54Zm-3.19-4.58c-.43-.7-1.01-1.23-1.75-1.6-.74-.36-1.55-.55-2.45-.55-1.29,0-2.38.41-3.29,1.23s-1.42,1.96-1.55,3.42h9.69c0-.97-.21-1.81-.64-2.51Z" fill="#655cd6"/>
    <path d="m295.07,57.95c.83-.48,1.84-.73,3.04-.73v2.63h-.67c-2.86,0-4.28,1.55-4.28,4.65v8.34h-2.55v-15.34h2.55v2.49c.45-.88,1.09-1.56,1.92-2.04Z" fill="#655cd6"/>
    <path d="m314.26,57.51l-9.24,22.57h-2.63l3.02-7.39-6.19-15.18h2.83l4.82,12.43,4.76-12.43h2.63Z" fill="#655cd6"/>
    <path d="m334.1,58.12c1,.58,1.74,1.31,2.22,2.18v-2.8h2.58v15.68c0,1.4-.3,2.65-.9,3.74-.6,1.09-1.45,1.95-2.56,2.56-1.11.62-2.4.92-3.88.92-2.02,0-3.7-.48-5.04-1.43-1.34-.95-2.14-2.25-2.38-3.89h2.52c.28.93.86,1.68,1.74,2.25.88.57,1.93.85,3.16.85,1.4,0,2.54-.44,3.43-1.32.89-.88,1.33-2.11,1.33-3.7v-3.22c-.5.9-1.25,1.64-2.24,2.24s-2.15.9-3.47.9-2.6-.34-3.71-1.01c-1.11-.67-1.98-1.61-2.62-2.83-.63-1.21-.95-2.59-.95-4.14s.32-2.95.95-4.13c.63-1.18,1.51-2.1,2.62-2.76,1.11-.65,2.35-.98,3.71-.98s2.49.29,3.49.87Zm1.53,4c-.47-.86-1.1-1.52-1.89-1.97-.79-.46-1.67-.69-2.62-.69s-1.82.22-2.6.67-1.41,1.1-1.88,1.96-.7,1.87-.7,3.02.23,2.2.7,3.07,1.09,1.53,1.88,1.99,1.65.69,2.6.69,1.82-.23,2.62-.69c.79-.46,1.42-1.12,1.89-1.99s.7-1.88.7-3.04-.23-2.17-.7-3.02Z" fill="#655cd6"/>
    <path d="m346,72.12c-1.17-.65-2.08-1.58-2.74-2.79-.66-1.2-.99-2.6-.99-4.19s.34-2.95,1.02-4.16c.68-1.2,1.61-2.13,2.79-2.77,1.18-.64,2.49-.97,3.95-.97s2.77.32,3.95.97c1.18.64,2.1,1.56,2.79,2.76.68,1.2,1.02,2.59,1.02,4.17s-.35,2.98-1.05,4.19-1.65,2.13-2.84,2.79c-1.2.65-2.52.98-3.98.98s-2.74-.33-3.91-.98Zm6.48-1.9c.8-.43,1.45-1.07,1.95-1.93.49-.86.74-1.9.74-3.14s-.24-2.28-.73-3.14-1.12-1.5-1.9-1.92c-.79-.42-1.63-.63-2.55-.63s-1.79.21-2.56.63-1.4,1.06-1.86,1.92-.7,1.9-.7,3.14.23,2.31.69,3.16c.46.86,1.07,1.5,1.83,1.92s1.61.63,2.52.63,1.77-.21,2.58-.64Z" fill="#655cd6"/>
    <path d="m363.92,72.12c-1.17-.65-2.08-1.58-2.74-2.79-.66-1.2-.99-2.6-.99-4.19s.34-2.95,1.02-4.16c.68-1.2,1.61-2.13,2.79-2.77,1.18-.64,2.49-.97,3.95-.97s2.77.32,3.95.97c1.18.64,2.1,1.56,2.79,2.76.68,1.2,1.02,2.59,1.02,4.17s-.35,2.98-1.05,4.19-1.65,2.13-2.84,2.79c-1.2.65-2.52.98-3.98.98s-2.74-.33-3.91-.98Zm6.48-1.9c.8-.43,1.45-1.07,1.95-1.93.49-.86.74-1.9.74-3.14s-.24-2.28-.73-3.14-1.12-1.5-1.9-1.92c-.79-.42-1.63-.63-2.55-.63s-1.79.21-2.56.63-1.4,1.06-1.86,1.92-.7,1.9-.7,3.14.23,2.31.69,3.16c.46.86,1.07,1.5,1.83,1.92s1.61.63,2.52.63,1.77-.21,2.58-.64Z" fill="#655cd6"/>
    <path d="m379.05,60.99c.63-1.18,1.51-2.1,2.62-2.76,1.11-.65,2.36-.98,3.74-.98,1.2,0,2.31.28,3.33.83,1.03.55,1.81,1.27,2.35,2.17v-8.12h2.58v20.72h-2.58v-2.88c-.5.92-1.25,1.67-2.24,2.25s-2.15.88-3.47.88-2.6-.34-3.71-1.01c-1.11-.67-1.98-1.61-2.62-2.83-.63-1.21-.95-2.59-.95-4.14s.32-2.95.95-4.13Zm11.34,1.13c-.47-.86-1.1-1.52-1.89-1.97-.79-.46-1.67-.69-2.62-.69s-1.82.22-2.6.67-1.41,1.1-1.88,1.96-.7,1.87-.7,3.02.23,2.2.7,3.07,1.09,1.53,1.88,1.99,1.65.69,2.6.69,1.82-.23,2.62-.69c.79-.46,1.42-1.12,1.89-1.99s.7-1.88.7-3.04-.23-2.17-.7-3.02Z" fill="#655cd6"/>
  </g>
</svg>