<?xml version="1.0" encoding="UTF-8"?>
<svg id="Layer_1" data-name="Layer 1" xmlns="http://www.w3.org/2000/svg" viewBox="0 0 462 361">
  <path d="m92.14,64.65c-2.28,0-4.3-.43-6.06-1.29-1.74-.86-3.1-2.08-4.08-3.66-.96-1.6-1.44-3.46-1.44-5.58s.48-4.03,1.44-5.67c.96-1.66,2.28-2.94,3.96-3.84,1.68-.92,3.56-1.38,5.64-1.38s3.96.46,5.64,1.38c1.68.9,3,2.18,3.96,3.84.96,1.64,1.44,3.53,1.44,5.67,0,1.7-.39,3.26-1.17,4.68-.76,1.4-1.77,2.47-3.03,3.21h4.53v2.64h-10.83Zm-.54-2.79c1.54,0,2.91-.3,4.11-.9s2.13-1.48,2.79-2.64c.68-1.18,1.02-2.58,1.02-4.2s-.35-3.01-1.05-4.23c-.7-1.24-1.65-2.19-2.85-2.85-1.2-.66-2.54-.99-4.02-.99s-2.83.33-4.05.99c-1.2.66-2.15,1.6-2.85,2.82-.7,1.22-1.05,2.64-1.05,4.26s.33,3.04.99,4.2c.68,1.16,1.62,2.04,2.82,2.64,1.2.6,2.58.9,4.14.9Zm22.6,3.24c-2.86,0-5.02-.73-6.48-2.19-1.46-1.48-2.19-3.51-2.19-6.09v-13.14h3.06v13.26c0,1.78.5,3.13,1.5,4.05,1,.9,2.37,1.35,4.11,1.35s3.08-.45,4.08-1.35c1-.92,1.5-2.27,1.5-4.05v-13.26h3.06v13.14c0,2.56-.73,4.58-2.19,6.06s-3.61,2.22-6.45,2.22Zm12.4-21.42h13.83v2.58h-10.77v6.63h8.04v2.55h-8.04v6.66h10.77v2.55h-13.83v-20.97Zm22.81,21.42c-1.2,0-2.39-.11-3.57-.33-1.16-.2-2.11-.48-2.85-.84v-2.76c1.92.9,3.99,1.35,6.21,1.35,3.12,0,4.68-1.05,4.68-3.15,0-.72-.17-1.3-.51-1.74-.34-.44-.83-.82-1.47-1.14-.64-.34-1.68-.8-3.12-1.38-1.98-.8-3.41-1.68-4.29-2.64-.88-.96-1.32-2.17-1.32-3.63,0-1.1.3-2.07.9-2.91.6-.86,1.44-1.52,2.52-1.98,1.08-.48,2.32-.72,3.72-.72,1.14,0,2.17.09,3.09.27.92.18,1.82.47,2.7.87v2.64c-1.74-.78-3.5-1.17-5.28-1.17-1.44,0-2.54.26-3.3.78-.76.52-1.14,1.26-1.14,2.22,0,.66.16,1.22.48,1.68.34.44.83.84,1.47,1.2.66.34,1.63.77,2.91,1.29,1.42.58,2.54,1.13,3.36,1.65.82.52,1.44,1.16,1.86,1.92.44.74.66,1.67.66,2.79,0,1.82-.65,3.23-1.95,4.23-1.3,1-3.22,1.5-5.76,1.5Zm15.54-18.84h-6.51v-2.58h16.11v2.58h-6.51v18.39h-3.09v-18.39Zm12.3-2.58h3.09v20.97h-3.09v-20.97Zm17.44,21.42c-2.08,0-3.96-.45-5.64-1.35-1.68-.92-3-2.21-3.96-3.87-.96-1.66-1.44-3.56-1.44-5.7s.48-4.04,1.44-5.7c.96-1.66,2.28-2.95,3.96-3.87,1.68-.92,3.56-1.38,5.64-1.38s3.96.46,5.64,1.38c1.68.92,3,2.21,3.96,3.87.96,1.66,1.44,3.56,1.44,5.7s-.48,4.04-1.44,5.7c-.96,1.66-2.28,2.95-3.96,3.87-1.68.9-3.56,1.35-5.64,1.35Zm0-2.76c1.48,0,2.82-.33,4.02-.99,1.22-.68,2.18-1.63,2.88-2.85.7-1.24,1.05-2.68,1.05-4.32s-.35-3.04-1.05-4.26c-.68-1.24-1.62-2.19-2.82-2.85-1.2-.68-2.54-1.02-4.02-1.02s-2.86.33-4.08.99c-1.2.66-2.16,1.61-2.88,2.85-.7,1.24-1.05,2.67-1.05,4.29s.35,3.08,1.05,4.32c.7,1.22,1.65,2.17,2.85,2.85,1.22.66,2.57.99,4.05.99Zm14.35-18.66h2.91l10.68,15.81v-15.81h3.09v20.97h-2.94l-10.68-15.81v15.81h-3.06v-20.97Zm26.39,21.42c-1.2,0-2.39-.11-3.57-.33-1.16-.2-2.11-.48-2.85-.84v-2.76c1.92.9,3.99,1.35,6.21,1.35,3.12,0,4.68-1.05,4.68-3.15,0-.72-.17-1.3-.51-1.74-.34-.44-.83-.82-1.47-1.14-.64-.34-1.68-.8-3.12-1.38-1.98-.8-3.41-1.68-4.29-2.64-.88-.96-1.32-2.17-1.32-3.63,0-1.1.3-2.07.9-2.91.6-.86,1.44-1.52,2.52-1.98,1.08-.48,2.32-.72,3.72-.72,1.14,0,2.17.09,3.09.27.92.18,1.82.47,2.7.87v2.64c-1.74-.78-3.5-1.17-5.28-1.17-1.44,0-2.54.26-3.3.78-.76.52-1.14,1.26-1.14,2.22,0,.66.16,1.22.48,1.68.34.44.83.84,1.47,1.2.66.34,1.63.77,2.91,1.29,1.42.58,2.54,1.13,3.36,1.65.82.52,1.44,1.16,1.86,1.92.44.74.66,1.67.66,2.79,0,1.82-.65,3.23-1.95,4.23-1.3,1-3.22,1.5-5.76,1.5Z"/>
  <path d="m94.21,123.7h9.95l13.95,34.95h-10.6l-2.6-6.65h-11.45l-2.65,6.65h-10.6l14-34.95Zm8.3,20.45l-3.35-9.8-3.35,9.8h6.7Zm18.59-20.45h10.35v34.95h-10.35v-34.95Zm29.37,0h11.05l7.9,21.05,7.95-21.05h11l-13.95,34.95h-9.95l-14-34.95Zm46.67,0h9.95l13.95,34.95h-10.6l-2.6-6.65h-11.45l-2.65,6.65h-10.6l14-34.95Zm8.3,20.45l-3.35-9.8-3.35,9.8h6.7Zm18.59-20.45h10.35v26.25h14.1v8.7h-24.45v-34.95Zm40.81,35.7c-3.67,0-6.72-.68-9.15-2.05-2.43-1.37-4.25-3.25-5.45-5.65-1.17-2.4-1.75-5.15-1.75-8.25v-19.75h10.35v19.65c0,2.13.5,3.75,1.5,4.85,1.03,1.1,2.53,1.65,4.5,1.65s3.45-.55,4.45-1.65c1.03-1.1,1.55-2.72,1.55-4.85v-19.65h10.35v19.75c0,3.1-.6,5.85-1.8,8.25-1.17,2.4-2.97,4.28-5.4,5.65-2.43,1.37-5.48,2.05-9.15,2.05Zm29.81-35.7h9.95l13.95,34.95h-10.6l-2.6-6.65h-11.45l-2.65,6.65h-10.6l14-34.95Zm8.3,20.45l-3.35-9.8-3.35,9.8h6.7Zm19.99-11.75h-9.4v-8.7h29.15v8.7h-9.4v26.25h-10.35v-26.25Zm21.99-8.7h10.35v34.95h-10.35v-34.95Zm32.26,35.7c-3.53,0-6.75-.77-9.65-2.3-2.87-1.53-5.13-3.67-6.8-6.4-1.63-2.77-2.45-5.93-2.45-9.5s.82-6.73,2.45-9.5c1.67-2.77,3.93-4.92,6.8-6.45,2.9-1.53,6.12-2.3,9.65-2.3s6.72.77,9.55,2.3c2.87,1.53,5.12,3.68,6.75,6.45,1.67,2.77,2.5,5.93,2.5,9.5s-.83,6.73-2.5,9.5c-1.63,2.73-3.88,4.87-6.75,6.4-2.83,1.53-6.02,2.3-9.55,2.3Zm0-9.7c1.53,0,2.92-.33,4.15-1,1.27-.7,2.27-1.68,3-2.95.73-1.3,1.1-2.82,1.1-4.55,0-2.57-.78-4.62-2.35-6.15-1.57-1.53-3.53-2.3-5.9-2.3s-4.4.77-6,2.3c-1.57,1.53-2.35,3.58-2.35,6.15,0,1.73.37,3.25,1.1,4.55.73,1.27,1.73,2.25,3,2.95,1.27.67,2.68,1,4.25,1Zm21.8-26h10.05l10.9,18.3v-18.3h10.35v34.95h-10l-10.95-18.3v18.3h-10.35v-34.95Z"/>
  <path d="m81.16,218.68h13.83v2.58h-10.77v6.69h8.04v2.43h-8.04v9.27h-3.06v-20.97Zm16.52,0h3.09v20.97h-3.09v-20.97Zm7,0h3.06v18.42h10.62v2.55h-13.68v-20.97Zm19.14,2.58h-6.51v-2.58h16.11v2.58h-6.51v18.39h-3.09v-18.39Zm12.3-2.58h13.83v2.58h-10.77v6.63h8.04v2.55h-8.04v6.66h10.77v2.55h-13.83v-20.97Zm16.99,0h8.43c2.24,0,3.96.54,5.16,1.62,1.2,1.08,1.8,2.66,1.8,4.74,0,1.54-.41,2.85-1.23,3.93-.82,1.06-1.98,1.78-3.48,2.16l4.62,8.52h-3.18l-4.47-8.28h-4.59v8.28h-3.06v-20.97Zm7.92,10.11c1.34,0,2.4-.31,3.18-.93.8-.64,1.2-1.58,1.2-2.82,0-1.36-.39-2.33-1.17-2.91-.76-.58-1.83-.87-3.21-.87h-4.86v7.53h4.86Z"/>
  <path d="m81.16,290.68h3.06l7.47,16.35,7.47-16.35h3.06v20.97h-2.97v-14.91l-6.81,14.91h-1.5l-6.84-14.91v14.91h-2.94v-20.97Zm31.97,0h2.94l8.37,20.97h-3.12l-2.1-5.22h-9.27l-2.04,5.22h-3.15l8.37-20.97Zm5.25,13.2l-3.78-9.81-3.78,9.81h7.56Zm10.92-10.62h-6.51v-2.58h16.11v2.58h-6.51v18.39h-3.09v-18.39Zm21.16,18.84c-2.16,0-4.08-.45-5.76-1.35s-2.99-2.17-3.93-3.81c-.94-1.66-1.41-3.58-1.41-5.76s.47-4.1,1.41-5.76c.94-1.66,2.25-2.94,3.93-3.84,1.68-.9,3.6-1.35,5.76-1.35,2.88,0,5.29.73,7.23,2.19v2.94c-1.74-1.54-4.06-2.31-6.96-2.31-1.62,0-3.06.33-4.32.99-1.24.66-2.21,1.61-2.91,2.85-.7,1.22-1.05,2.65-1.05,4.29s.35,3.08,1.05,4.32c.72,1.24,1.7,2.19,2.94,2.85,1.26.66,2.69.99,4.29.99,1.48,0,2.8-.19,3.96-.57,1.18-.4,2.27-1.03,3.27-1.89v2.97c-1.8,1.5-4.3,2.25-7.5,2.25Zm10.8-21.42h3.06v9h10.95v-9h3.06v20.97h-3.06v-9.39h-10.95v9.39h-3.06v-20.97Zm20.98,0h3.09v20.97h-3.09v-20.97Zm7,0h2.91l10.68,15.81v-15.81h3.09v20.97h-2.94l-10.68-15.81v15.81h-3.06v-20.97Zm31.07,21.42c-2.16,0-4.08-.45-5.76-1.35-1.68-.9-2.99-2.17-3.93-3.81-.94-1.66-1.41-3.58-1.41-5.76s.47-4.1,1.41-5.76c.94-1.66,2.25-2.94,3.93-3.84,1.68-.9,3.6-1.35,5.76-1.35,2.9,0,5.31.72,7.23,2.16v2.94c-1.74-1.52-4.06-2.28-6.96-2.28-1.58,0-3,.33-4.26.99-1.26.66-2.25,1.61-2.97,2.85-.7,1.22-1.05,2.65-1.05,4.29s.35,3.08,1.05,4.32c.7,1.24,1.67,2.19,2.91,2.85,1.24.66,2.64.99,4.2.99,1.82,0,3.31-.37,4.47-1.11v-5.49h-3.99v-2.49h7.05v9.6c-.94.78-2.05,1.35-3.33,1.71-1.26.36-2.71.54-4.35.54Zm21.48-21.42h3.18l4.68,15.93,4.62-15.93h2.4l4.59,15.93,4.68-15.93h3.18l-6.12,20.97h-2.91l-4.65-15.84-4.62,15.84h-2.91l-6.12-20.97Zm30.63,0h3.09v20.97h-3.09v-20.97Zm12.31,2.58h-6.51v-2.58h16.11v2.58h-6.51v18.39h-3.09v-18.39Zm12.3-2.58h3.06v9h10.95v-9h3.06v20.97h-3.06v-9.39h-10.95v9.39h-3.06v-20.97Zm31.48,0h3.24l6.6,16.8,6.6-16.8h3.24l-8.37,20.97h-2.94l-8.37-20.97Zm31.52,21.42c-2.16,0-4.08-.45-5.76-1.35-1.68-.9-2.99-2.17-3.93-3.81-.94-1.66-1.41-3.58-1.41-5.76s.47-4.1,1.41-5.76c.94-1.66,2.25-2.94,3.93-3.84,1.68-.9,3.6-1.35,5.76-1.35,2.88,0,5.29.73,7.23,2.19v2.94c-1.74-1.54-4.06-2.31-6.96-2.31-1.62,0-3.06.33-4.32.99-1.24.66-2.21,1.61-2.91,2.85-.7,1.22-1.05,2.65-1.05,4.29s.35,3.08,1.05,4.32c.72,1.24,1.7,2.19,2.94,2.85,1.26.66,2.69.99,4.29.99,1.48,0,2.8-.19,3.96-.57,1.18-.4,2.27-1.03,3.27-1.89v2.97c-1.8,1.5-4.3,2.25-7.5,2.25Z"/>
  <path d="m34.71,314.65h-2v-6h2v6Zm0-12h-2v-6h2v6Zm0-12h-2v-6h2v6Zm0-12h-2v-6h2v6Zm0-12h-2v-6h2v6Zm0-12h-2v-6h2v6Zm0-12h-2v-6h2v6Zm0-12h-2v-6h2v6Zm0-12h-2v-6h2v6Zm0-12h-2v-6h2v6Zm0-12h-2v-6h2v6Zm0-12h-2v-6h2v6Zm0-12h-2v-6h2v6Zm0-12h-2v-6h2v6Zm0-12h-2v-6h2v6Zm0-12h-2v-6h2v6Zm0-12h-2v-6h2v6Zm0-12h-2v-6h2v6Zm0-12h-2v-6h2v6Zm0-12h-2v-6h2v6Zm0-12h-2v-6h2v6Zm0-12h-2v-6h2v6Z" fill="#797979"/>
  <g>
    <circle cx="33.21" cy="58.65" r="7.5"/>
    <path d="m33.21,68.65c-5.51,0-10-4.49-10-10s4.49-10,10-10,10,4.49,10,10-4.49,10-10,10Zm0-15c-2.76,0-5,2.24-5,5s2.24,5,5,5,5-2.24,5-5-2.24-5-5-5Z" fill="#fff"/>
  </g>
  <g>
    <circle cx="33.21" cy="142.65" r="7.5"/>
    <path d="m33.21,152.65c-5.51,0-10-4.49-10-10s4.49-10,10-10,10,4.49,10,10-4.49,10-10,10Zm0-15c-2.76,0-5,2.24-5,5s2.24,5,5,5,5-2.24,5-5-2.24-5-5-5Z" fill="#fff"/>
  </g>
  <g>
    <circle cx="33.21" cy="226.65" r="7.5"/>
    <path d="m33.21,236.65c-5.51,0-10-4.49-10-10s4.49-10,10-10,10,4.49,10,10-4.49,10-10,10Zm0-15c-2.76,0-5,2.24-5,5s2.24,5,5,5,5-2.24,5-5-2.24-5-5-5Z" fill="#fff"/>
  </g>
  <g>
    <circle cx="33.21" cy="310.65" r="7.5"/>
    <path d="m33.21,320.65c-5.51,0-10-4.49-10-10s4.49-10,10-10,10,4.49,10,10-4.49,10-10,10Zm0-15c-2.76,0-5,2.24-5,5s2.24,5,5,5,5-2.24,5-5-2.24-5-5-5Z" fill="#fff"/>
  </g>
</svg>