<?xml version="1.0" encoding="UTF-8"?>
<svg id="Layer_1" data-name="Layer 1" xmlns="http://www.w3.org/2000/svg" viewBox="0 0 618 140">
  <g>
    <rect x="13.41" y="15.64" width="586.5" height="110" rx="10" ry="10" fill="#fff"/>
    <path d="m589.91,126.64H23.41c-6.07,0-11-4.93-11-11V25.64c0-6.07,4.93-11,11-11h566.5c6.07,0,11,4.93,11,11v90c0,6.07-4.93,11-11,11ZM23.41,16.64c-4.96,0-9,4.04-9,9v90c0,4.96,4.04,9,9,9h566.5c4.96,0,9-4.04,9-9V25.64c0-4.96-4.04-9-9-9H23.41Z"/>
  </g>
  <g>
    <rect x="407.41" y="42.14" width="173" height="57" rx="12" ry="12" fill="#655cd6"/>
    <path d="m568.41,44.14c5.52,0,10,4.48,10,10v33c0,5.52-4.48,10-10,10h-149c-5.52,0-10-4.48-10-10v-33c0-5.52,4.48-10,10-10h149m0-4h-149c-7.72,0-14,6.28-14,14v33c0,7.72,6.28,14,14,14h149c7.72,0,14-6.28,14-14v-33c0-7.72-6.28-14-14-14h0Z" fill="#8280f0"/>
  </g>
  <g>
    <path d="m494.29,74.23h-4.66l-.8,2.27h-1.9l3.98-11.14h2.11l3.98,11.14h-1.92l-.8-2.27Zm-.51-1.49l-1.81-5.17-1.82,5.17h3.63Z" fill="#fff"/>
    <path d="m500.08,76.27c-.55-.25-.98-.59-1.3-1.02-.32-.43-.49-.92-.51-1.45h1.89c.03.37.21.69.54.94.33.25.73.38,1.22.38s.91-.1,1.19-.3c.28-.2.42-.45.42-.76,0-.33-.16-.58-.47-.74-.31-.16-.81-.34-1.5-.53-.66-.18-1.2-.36-1.62-.53-.42-.17-.78-.43-1.08-.78-.3-.35-.46-.82-.46-1.39,0-.47.14-.9.42-1.29.28-.39.67-.7,1.19-.92s1.11-.34,1.78-.34c1,0,1.81.25,2.42.76.61.51.94,1.2.98,2.07h-1.82c-.03-.39-.19-.71-.48-.94-.29-.23-.68-.35-1.17-.35s-.85.09-1.1.27c-.26.18-.38.42-.38.72,0,.23.08.43.26.59.17.16.38.29.62.38.25.09.61.21,1.09.34.64.17,1.17.34,1.58.52.41.18.76.43,1.06.78.3.34.45.79.46,1.36,0,.5-.14.95-.42,1.34s-.67.7-1.18.93c-.51.22-1.1.34-1.78.34s-1.31-.12-1.86-.38Z" fill="#fff"/>
    <path d="m510.77,72.1l4.06,4.4h-2.46l-3.26-3.79v3.79h-1.82v-11.84h1.82v6.88l3.2-3.86h2.53l-4.06,4.42Z" fill="#fff"/>
    <path d="m532.84,67.97c.55.29.98.71,1.3,1.28s.47,1.25.47,2.05v5.2h-1.81v-4.93c0-.79-.2-1.39-.59-1.82-.39-.42-.93-.63-1.62-.63s-1.22.21-1.62.63c-.4.42-.6,1.03-.6,1.82v4.93h-1.81v-4.93c0-.79-.2-1.39-.59-1.82-.39-.42-.93-.63-1.62-.63s-1.22.21-1.62.63c-.4.42-.6,1.03-.6,1.82v4.93h-1.82v-8.82h1.82v1.01c.3-.36.68-.65,1.14-.85.46-.2.95-.3,1.47-.3.7,0,1.33.15,1.89.45s.98.73,1.28,1.3c.27-.53.68-.96,1.25-1.27.57-.31,1.17-.47,1.82-.47.69,0,1.31.14,1.86.43Z" fill="#fff"/>
    <path d="m544.95,72.77h-6.74c.05.7.31,1.27.78,1.7s1.04.64,1.73.64c.98,0,1.67-.41,2.08-1.23h1.97c-.27.81-.75,1.47-1.45,1.99-.7.52-1.57.78-2.6.78-.84,0-1.6-.19-2.26-.57s-1.19-.91-1.57-1.6c-.38-.69-.57-1.48-.57-2.39s.18-1.7.55-2.39c.37-.69.89-1.22,1.55-1.59.67-.37,1.43-.56,2.3-.56s1.57.18,2.22.54,1.16.87,1.52,1.53c.36.66.54,1.41.54,2.26,0,.33-.02.63-.06.9Zm-1.84-1.47c-.01-.67-.25-1.21-.72-1.62-.47-.41-1.05-.61-1.74-.61-.63,0-1.17.2-1.62.6-.45.4-.71.94-.8,1.62h4.88Z" fill="#fff"/>
  </g>
  <g>
    <path d="m441.8,83.93c-.36,0-.63-.14-.86-.37-.55-.55-1.1-1.09-1.64-1.64-.52-.53-.52-1.2,0-1.73.77-.78,1.55-1.56,2.33-2.34,4.17-4.18,8.34-8.36,12.51-12.54.76-.76,1.52-1.53,2.29-2.29.61-.61,1.24-.61,1.85,0,.5.5,1,1,1.5,1.5.62.62.62,1.26,0,1.88-3.08,3.09-6.15,6.17-9.23,9.26-2.6,2.61-5.21,5.22-7.81,7.84-.27.27-.55.47-.93.45Zm2.56-3.52c.1-.03.16-.12.24-.2,2.83-2.84,5.66-5.68,8.49-8.52,1.15-1.15,2.29-2.3,3.45-3.44.19-.19.18-.3,0-.48-.44-.41-.85-.85-1.28-1.27q-.46-.46-.91,0c-2.74,2.75-5.48,5.51-8.23,8.26-1.18,1.18-2.36,2.37-3.54,3.55-.11.11-.19.19-.04.34.56.55,1.11,1.11,1.66,1.66.05.05.09.1.17.11Zm13.02-16.84c-.09,0-.15.06-.22.12-.52.5-1.03,1-1.54,1.49-.12.12-.09.2.01.31.56.56,1.12,1.12,1.68,1.68.12.12.19.11.3,0,.49-.5.99-1,1.5-1.5.16-.16.15-.28,0-.43-.52-.51-1.03-1.02-1.54-1.54-.05-.05-.1-.12-.19-.13Zm-15.71,15.67s-.08.05-.12.09c-.51.51-1.01,1.01-1.52,1.52-.15.15-.12.28.02.42.51.51,1.02,1.03,1.53,1.55.15.15.27.16.43,0,.49-.5.98-.99,1.48-1.48.13-.13.14-.22,0-.36-.54-.54-1.08-1.08-1.62-1.62-.05-.05-.1-.12-.21-.12Z" fill="#fff"/>
    <path d="m465.41,65.86c0,.15-.1.27-.19.39-.29.4-.55.81-.61,1.31-.08.58.08,1.1.39,1.58.09.14.19.29.16.48-.07.36-.44.51-.78.3-.34-.21-.68-.4-1.07-.45-.51-.07-.99.03-1.43.3-.16.09-.3.2-.45.3-.32.24-.57.26-.77.06-.21-.2-.19-.46.06-.79.07-.1.15-.2.21-.31.51-.81.54-1.63.04-2.46-.04-.07-.09-.15-.14-.22-.13-.22-.12-.42.06-.6.18-.18.38-.2.6-.08.11.06.21.13.32.19.78.44,1.55.41,2.31-.05.19-.11.36-.25.54-.37.16-.11.34-.12.52-.02.16.09.24.24.24.45Zm-2.92,1.26c-.2-.03-.25.06-.22.2.08.35.04.7-.03,1.05-.03.16.02.18.16.15.35-.06.7-.1,1.05-.03.14.03.22-.03.19-.19-.07-.35-.04-.7.02-1.05.02-.12.04-.21-.14-.17-.36.08-.72.11-1.04.03Z" fill="#fff"/>
    <path d="m453.26,57.61c.14,0,.25.07.37.14.99.62,1.84.59,2.79-.1.1-.07.19-.16.3-.21.2-.11.41-.1.58.07.17.17.19.37.08.58-.06.12-.15.22-.23.33-.66.92-.69,1.78-.1,2.75.09.15.19.29.15.48-.08.36-.45.5-.79.29-.36-.22-.73-.42-1.16-.46-.66-.06-1.21.17-1.73.56-.39.29-.62.32-.84.1-.21-.21-.18-.45.11-.84.71-.97.75-1.81.13-2.84-.25-.42-.08-.84.34-.85Zm1.3,1.53c-.22-.03-.28.06-.25.2.08.35.03.7-.03,1.05-.02.12-.02.18.13.15.37-.08.74-.1,1.11-.03.12.02.19-.04.17-.16-.08-.38-.05-.76.03-1.14.02-.1-.01-.15-.12-.13-.37.07-.73.13-1.04.05Z" fill="#fff"/>
    <path d="m461.46,57.38c.13,0,.24.06.34.13,1.04.64,1.91.6,2.88-.15.08-.06.15-.12.23-.16.21-.1.41-.09.58.09.16.17.18.37.06.58-.06.1-.13.19-.2.28-.69.95-.72,1.8-.12,2.8,0,.02.02.03.03.05.17.28.16.49-.04.67-.21.2-.43.18-.65.03-.12-.08-.24-.15-.37-.22-.66-.34-1.32-.33-1.98,0-.22.11-.43.25-.63.4-.3.22-.55.23-.74.02-.18-.19-.17-.44.03-.73.12-.16.23-.33.33-.5.4-.71.43-1.43.04-2.16-.09-.16-.19-.31-.26-.48-.13-.32.11-.66.45-.66Zm1.3,1.53c-.24-.02-.3.02-.26.24.06.34.04.67-.04,1-.04.17,0,.21.16.17.35-.07.7-.1,1.05-.02.15.03.22-.04.19-.19-.08-.36-.04-.72.03-1.08.03-.13,0-.17-.15-.15-.34.06-.68.12-1,.04Z" fill="#fff"/>
  </g>
  <g>
    <path d="m60.01,76.58h-5.76l-.92,2.73h-3.94l5.59-15.44h4.36l5.59,15.44h-3.98l-.92-2.73Zm-.97-2.9l-1.91-5.65-1.89,5.65h3.81Z" fill="#655cd6"/>
    <path d="m68.74,78.93c-.84-.37-1.5-.87-1.98-1.51-.48-.64-.76-1.35-.81-2.15h3.72c.04.43.24.77.59,1.03.35.26.78.4,1.3.4.47,0,.83-.09,1.09-.28s.39-.42.39-.71c0-.35-.18-.61-.55-.78-.37-.17-.96-.36-1.78-.56-.88-.21-1.61-.42-2.2-.65-.59-.23-1.09-.59-1.52-1.08-.42-.49-.64-1.15-.64-1.99,0-.7.19-1.34.58-1.92.39-.58.96-1.04,1.72-1.38.76-.34,1.65-.51,2.7-.51,1.54,0,2.75.38,3.64,1.14.89.76,1.4,1.77,1.53,3.04h-3.48c-.06-.42-.25-.76-.56-1.01-.32-.25-.73-.37-1.24-.37-.44,0-.78.08-1.01.25-.23.17-.35.4-.35.69,0,.35.19.62.56.79s.96.35,1.75.53c.91.23,1.65.47,2.22.69.57.23,1.07.59,1.51,1.1.43.51.66,1.18.67,2.03,0,.72-.2,1.36-.61,1.93s-.98,1.01-1.74,1.33c-.75.32-1.63.48-2.63.48-1.07,0-2.02-.18-2.86-.55Z" fill="#655cd6"/>
    <path d="m86.39,79.31l-3.74-5.15v5.15h-3.76v-16.28h3.76v9l3.72-4.99h4.64l-5.1,6.16,5.15,6.12h-4.66Z" fill="#655cd6"/>
    <path d="m116.45,68.29c.9.92,1.35,2.21,1.35,3.85v7.17h-3.74v-6.67c0-.79-.21-1.4-.63-1.84s-.99-.65-1.73-.65-1.31.22-1.73.65-.63,1.04-.63,1.84v6.67h-3.74v-6.67c0-.79-.21-1.4-.63-1.84s-.99-.65-1.73-.65-1.31.22-1.73.65-.63,1.04-.63,1.84v6.67h-3.76v-12.28h3.76v1.54c.38-.51.88-.92,1.5-1.22s1.31-.45,2.09-.45c.92,0,1.75.2,2.48.59.73.4,1.29.96,1.71,1.69.42-.67,1-1.22,1.74-1.65.73-.43,1.53-.64,2.4-.64,1.53,0,2.74.46,3.64,1.39Z" fill="#655cd6"/>
    <path d="m131.95,74.07h-8.51c.06.76.3,1.35.74,1.75.43.4.96.61,1.6.61.94,0,1.59-.4,1.96-1.19h4c-.21.81-.58,1.53-1.11,2.18s-1.21,1.15-2.01,1.52c-.81.37-1.71.55-2.71.55-1.2,0-2.27-.26-3.21-.77s-1.67-1.25-2.2-2.2-.79-2.07-.79-3.34.26-2.39.78-3.34c.52-.95,1.25-1.69,2.19-2.2s2.02-.77,3.23-.77,2.24.25,3.17.75c.92.5,1.65,1.21,2.17,2.13s.78,2,.78,3.23c0,.35-.02.72-.07,1.1Zm-3.78-2.09c0-.65-.22-1.16-.66-1.54-.44-.38-.99-.57-1.65-.57s-1.16.18-1.59.55c-.43.37-.7.89-.8,1.56h4.71Z" fill="#655cd6"/>
    <path d="m138.62,69.83c.48-.95,1.13-1.69,1.95-2.2s1.74-.77,2.75-.77c.87,0,1.62.18,2.28.53.65.35,1.15.81,1.51,1.39v-1.74h3.76v12.28h-3.76v-1.74c-.37.57-.88,1.03-1.53,1.39-.65.35-1.41.53-2.28.53-1,0-1.91-.26-2.73-.78-.82-.52-1.47-1.26-1.95-2.22-.48-.96-.71-2.07-.71-3.33s.24-2.37.71-3.32Zm7.7,1.12c-.52-.54-1.16-.81-1.9-.81s-1.38.27-1.9.8c-.52.54-.78,1.27-.78,2.21s.26,1.68.78,2.23c.52.55,1.15.83,1.9.83s1.38-.27,1.9-.81c.52-.54.78-1.28.78-2.22s-.26-1.68-.78-2.22Z" fill="#655cd6"/>
    <path d="m164.52,68.3c.86.93,1.29,2.21,1.29,3.84v7.17h-3.74v-6.67c0-.82-.21-1.46-.64-1.91-.43-.45-1-.68-1.72-.68s-1.29.23-1.72.68c-.43.46-.64,1.09-.64,1.91v6.67h-3.76v-12.28h3.76v1.63c.38-.54.89-.97,1.54-1.29s1.37-.47,2.18-.47c1.44,0,2.58.47,3.44,1.4Z" fill="#655cd6"/>
    <path d="m180.96,67.03l-7.7,18.11h-4.05l2.82-6.25-4.99-11.86h4.2l2.84,7.68,2.82-7.68h4.07Z" fill="#655cd6"/>
    <path d="m189.17,76.12v3.19h-1.91c-1.36,0-2.43-.33-3.19-1-.76-.67-1.14-1.76-1.14-3.27v-4.88h-1.5v-3.12h1.5v-2.99h3.76v2.99h2.46v3.12h-2.46v4.93c0,.37.09.63.26.79.18.16.47.24.88.24h1.34Z" fill="#655cd6"/>
    <path d="m202.19,68.3c.85.93,1.28,2.21,1.28,3.84v7.17h-3.74v-6.67c0-.82-.21-1.46-.64-1.91-.42-.45-1-.68-1.72-.68s-1.29.23-1.72.68c-.43.46-.64,1.09-.64,1.91v6.67h-3.76v-16.28h3.76v5.65c.38-.54.9-.98,1.56-1.3s1.4-.48,2.22-.48c1.41,0,2.54.47,3.39,1.4Z" fill="#655cd6"/>
    <path d="m206.36,65.17c-.42-.39-.63-.87-.63-1.44s.21-1.07.63-1.46.96-.58,1.62-.58,1.18.19,1.59.58.63.88.63,1.46-.21,1.05-.63,1.44-.95.58-1.59.58-1.2-.19-1.62-.58Zm3.49,1.86v12.28h-3.76v-12.28h3.76Z" fill="#655cd6"/>
    <path d="m223.5,68.3c.86.93,1.29,2.21,1.29,3.84v7.17h-3.74v-6.67c0-.82-.21-1.46-.64-1.91-.43-.45-1-.68-1.72-.68s-1.29.23-1.72.68c-.43.46-.64,1.09-.64,1.91v6.67h-3.76v-12.28h3.76v1.63c.38-.54.89-.97,1.54-1.29s1.37-.47,2.18-.47c1.44,0,2.58.47,3.44,1.4Z" fill="#655cd6"/>
    <path d="m234.35,67.38c.65.35,1.15.81,1.51,1.39v-1.74h3.76v12.25c0,1.13-.22,2.15-.67,3.07s-1.13,1.65-2.05,2.19c-.92.54-2.06.81-3.42.81-1.82,0-3.29-.43-4.42-1.29-1.13-.86-1.78-2.02-1.94-3.49h3.72c.12.47.4.84.84,1.11.44.27.98.41,1.63.41.78,0,1.4-.22,1.86-.67s.69-1.16.69-2.15v-1.74c-.37.57-.87,1.04-1.52,1.4s-1.4.54-2.27.54c-1.01,0-1.93-.26-2.75-.78-.82-.52-1.47-1.26-1.95-2.22-.48-.96-.71-2.07-.71-3.33s.24-2.37.71-3.32c.48-.95,1.13-1.69,1.95-2.2s1.74-.77,2.75-.77c.87,0,1.62.18,2.28.53Zm.73,3.56c-.52-.54-1.16-.81-1.9-.81s-1.38.27-1.9.8c-.52.54-.78,1.27-.78,2.21s.26,1.68.78,2.23c.52.55,1.15.83,1.9.83s1.38-.27,1.9-.81c.52-.54.78-1.28.78-2.22s-.26-1.68-.78-2.22Z" fill="#655cd6"/>
  </g>
  <rect x="258.91" y="51.14" width="1" height="46" fill="gray"/>
</svg>