<?xml version="1.0" encoding="UTF-8"?>
<svg id="Layer_1" data-name="Layer 1" xmlns="http://www.w3.org/2000/svg" viewBox="0 0 114 113">
  <rect width="114" height="114" rx="14.95" ry="14.95"/>
  <path d="m103.74,72.08c-1.06-1.09-2.35-1.63-3.85-1.63s-2.79.54-3.85,1.63-1.59,2.44-1.59,4.04c0,1.5.53,2.81,1.59,3.93,1.06,1.12,2.34,1.67,3.85,1.67s2.79-.56,3.85-1.67c1.06-1.12,1.59-2.42,1.59-3.93,0-1.61-.53-2.96-1.59-4.04Z" fill="#655cd0"/>
  <path d="m90.22,51.57c-1.7-3.02-4.01-5.4-6.92-7.15-2.91-1.75-6.22-2.63-9.94-2.63s-7.04.88-9.98,2.63c-2.94,1.75-5.26,4.14-6.96,7.15-.83,1.48-1.46,3.05-1.88,4.72,0,0,0,0,0,0,0,0,0,.01,0,.04-.12.46-.22.92-.3,1.39-.24,1.04-.58,2.47-.96,3.68-.62,2.02-1.8,4.21-2.64,5.25-1.84,2.2-3.99,3.91-6.44,5.11-2.58,1.26-5.31,1.89-8.2,1.89-2.63,0-5.07-.49-7.31-1.47-2.24-.98-4.2-2.36-5.88-4.14-1.68-1.78-2.98-3.85-3.91-6.23-.93-2.37-1.39-4.95-1.39-7.73s.46-5.36,1.39-7.73c.93-2.37,2.23-4.45,3.91-6.22,1.67-1.78,3.63-3.16,5.88-4.14,2.24-.98,4.68-1.47,7.31-1.47,2.89,0,5.62.62,8.2,1.86,2.58,1.24,4.82,3.07,6.73,5.49l6.19-6.03c-1.65-2.06-3.6-3.8-5.84-5.22-2.24-1.42-4.65-2.51-7.23-3.29-2.58-.77-5.26-1.16-8.04-1.16-3.92,0-7.58.71-10.98,2.13-3.4,1.42-6.38,3.4-8.93,5.95-2.55,2.55-4.54,5.52-5.95,8.89-1.42,3.38-2.13,7.02-2.13,10.94s.71,7.57,2.13,10.94c1.42,3.38,3.4,6.34,5.95,8.89,2.55,2.55,5.53,4.54,8.93,5.95,3.4,1.42,7.06,2.13,10.98,2.13,2.78,0,5.46-.39,8.04-1.16,2.58-.77,4.99-1.88,7.23-3.32,2.11-1.36,3.94-2.97,5.53-4.83,1.66,2.72,3.87,4.9,6.62,6.53,2.96,1.75,6.28,2.63,9.94,2.63s7.02-.88,9.94-2.63c2.91-1.75,5.22-4.14,6.92-7.15,1.7-3.02,2.55-6.43,2.55-10.25s-.85-7.23-2.55-10.25Zm-7.42,16.7c-.93,1.93-2.2,3.44-3.83,4.52-1.62,1.08-3.49,1.62-5.61,1.62s-4-.54-5.64-1.62c-1.65-1.08-2.94-2.58-3.87-4.48-.93-1.91-1.39-4.07-1.39-6.5s.46-4.57,1.39-6.46c.93-1.88,2.22-3.38,3.87-4.48,1.65-1.11,3.53-1.66,5.64-1.66s3.98.55,5.61,1.66c1.62,1.11,2.9,2.6,3.83,4.48.93,1.88,1.39,4.03,1.39,6.46s-.46,4.52-1.39,6.46Z" fill="#fff"/>
</svg>