<?xml version="1.0" encoding="UTF-8"?>
<svg id="Layer_1" data-name="Layer 1" xmlns="http://www.w3.org/2000/svg" viewBox="0 0 597 896">
  <g>
    <path d="m363.28,192.86c-.49.65-1.05,1.64-1.86,3.1l-.41.74-.07.13c-.38.68-.7,1.25-1.21,1.64-.52.4-1.15.54-1.89.7l-.14.03-.8.18c-1.58.36-2.65.6-3.38.89-.72.28-.87.51-.92.7-.06.2-.06.5.36,1.18.44.69,1.17,1.55,2.24,2.81l.54.64.09.11c.51.59.93,1.08,1.12,1.71.19.62.13,1.27.05,2.06v.15s-.1.85-.1.85c-.16,1.67-.27,2.82-.23,3.65.04.83.21,1.06.35,1.16.12.09.35.2,1.1-.02.76-.22,1.76-.68,3.24-1.36l.75-.34.14-.06c.68-.32,1.28-.59,1.92-.59s1.24.27,1.92.59c.05.02.09.04.14.06l.75.35c1.48.68,2.48,1.14,3.24,1.36.75.21.97.11,1.1.02.14-.11.31-.34.35-1.16.04-.83-.07-1.98-.23-3.65l-.08-.85v-.15c-.09-.79-.15-1.44.04-2.06.19-.62.62-1.12,1.12-1.71l.09-.11.54-.64c1.07-1.26,1.81-2.12,2.24-2.81.43-.68.43-.98.36-1.18-.06-.18-.21-.42-.92-.7-.74-.29-1.81-.54-3.38-.89l-.8-.18s-.1-.02-.14-.03c-.74-.17-1.37-.31-1.89-.7-.51-.39-.83-.96-1.21-1.64l-.07-.13-.41-.74c-.81-1.45-1.37-2.45-1.86-3.1-.49-.65-.75-.7-.89-.7s-.4.05-.89.7Zm-1.49-1.15c.6-.78,1.34-1.44,2.38-1.44s1.79.66,2.39,1.44c.59.77,1.21,1.89,1.97,3.26l.45.81c.49.88.62,1.07.78,1.19.15.11.35.18,1.31.4l.88.2c1.48.33,2.69.61,3.58.96.92.36,1.72.9,2.03,1.89.31.99-.04,1.89-.57,2.74-.52.82-1.34,1.79-2.35,2.97l-.6.7c-.65.76-.79.95-.85,1.15-.06.21-.06.45.04,1.46l.09.93c.15,1.58.28,2.86.23,3.84-.04,1-.27,1.96-1.09,2.58-.84.64-1.82.57-2.76.29-.91-.26-2.05-.79-3.43-1.42l-.82-.38c-.9-.42-1.09-.48-1.27-.48s-.37.07-1.27.48l-.82.38c-1.38.64-2.52,1.16-3.43,1.42-.94.27-1.92.34-2.76-.29-.82-.63-1.05-1.58-1.09-2.58-.04-.98.08-2.27.23-3.84l.09-.93c.1-1.01.1-1.25.04-1.46-.06-.2-.2-.39-.85-1.15l-.6-.7c-1.01-1.18-1.83-2.15-2.35-2.97-.53-.85-.88-1.75-.57-2.74.31-1,1.12-1.53,2.03-1.89.89-.35,2.1-.62,3.58-.96l.08-.02.8-.18c.96-.22,1.15-.28,1.31-.4.16-.12.29-.31.78-1.19l.45-.81c.76-1.37,1.39-2.49,1.97-3.26h0Z" fill="#5248bd" fill-rule="evenodd"/>
    <path d="m402.28,192.86c-.49.65-1.05,1.64-1.86,3.1l-.41.74-.07.13c-.38.68-.7,1.25-1.21,1.64-.52.4-1.15.54-1.89.7l-.14.03-.8.18c-1.58.36-2.65.6-3.38.89-.72.28-.87.51-.92.7-.06.2-.06.5.36,1.18.44.69,1.17,1.55,2.24,2.81l.54.64.09.11c.51.59.93,1.08,1.12,1.71.19.62.13,1.27.05,2.06v.15s-.1.85-.1.85c-.16,1.67-.27,2.82-.23,3.65.04.83.21,1.06.35,1.16.12.09.35.2,1.1-.02.76-.22,1.76-.68,3.24-1.36l.75-.34.14-.06c.68-.32,1.28-.59,1.92-.59s1.24.27,1.92.59c.05.02.09.04.14.06l.75.35c1.48.68,2.48,1.14,3.24,1.36.75.21.97.11,1.1.02.14-.11.31-.34.35-1.16.04-.83-.07-1.98-.23-3.65l-.08-.85v-.15c-.09-.79-.15-1.44.04-2.06.19-.62.62-1.12,1.12-1.71l.09-.11.54-.64c1.07-1.26,1.81-2.12,2.24-2.81.43-.68.43-.98.36-1.18-.06-.18-.21-.42-.92-.7-.74-.29-1.81-.54-3.38-.89l-.8-.18s-.1-.02-.14-.03c-.74-.17-1.37-.31-1.89-.7-.51-.39-.83-.96-1.21-1.64l-.07-.13-.41-.74c-.81-1.45-1.37-2.45-1.86-3.1-.49-.65-.75-.7-.89-.7s-.4.05-.89.7Zm-1.49-1.15c.6-.78,1.34-1.44,2.38-1.44s1.79.66,2.39,1.44c.59.77,1.21,1.89,1.97,3.26l.45.81c.49.88.62,1.07.78,1.19.15.11.35.18,1.31.4l.88.2c1.48.33,2.69.61,3.58.96.92.36,1.72.9,2.03,1.89.31.99-.04,1.89-.57,2.74-.52.82-1.34,1.79-2.35,2.97l-.6.7c-.65.76-.79.95-.85,1.15-.06.21-.06.45.04,1.46l.09.93c.15,1.58.28,2.86.23,3.84-.04,1-.27,1.96-1.09,2.58-.84.64-1.82.57-2.76.29-.91-.26-2.05-.79-3.43-1.42l-.82-.38c-.9-.42-1.09-.48-1.27-.48s-.37.07-1.27.48l-.82.38c-1.38.64-2.52,1.16-3.43,1.42-.94.27-1.92.34-2.76-.29-.82-.63-1.05-1.58-1.09-2.58-.04-.98.08-2.27.23-3.84l.09-.93c.1-1.01.1-1.25.04-1.46-.06-.2-.2-.39-.85-1.15l-.6-.7c-1.01-1.18-1.83-2.15-2.35-2.97-.53-.85-.88-1.75-.57-2.74.31-1,1.12-1.53,2.03-1.89.89-.35,2.1-.62,3.58-.96l.08-.02.8-.18c.96-.22,1.15-.28,1.31-.4.16-.12.29-.31.78-1.19l.45-.81c.76-1.37,1.39-2.49,1.97-3.26h0Z" fill="#5248bd" fill-rule="evenodd"/>
    <path d="m441.81,192.86c-.48.65-1.01,1.64-1.8,3.1l-.39.74-.07.13c-.36.68-.67,1.25-1.17,1.64-.5.4-1.11.54-1.82.7l-.14.03-.77.18c-1.52.36-2.55.6-3.26.89-.69.28-.84.51-.89.7-.06.2-.06.5.35,1.18.42.69,1.13,1.55,2.16,2.81l.52.64.09.11c.49.59.89,1.08,1.08,1.71.18.62.12,1.27.05,2.06v.15s-.09.85-.09.85c-.16,1.67-.26,2.82-.23,3.65.04.83.2,1.06.34,1.16.12.09.34.2,1.06-.02.73-.22,1.7-.68,3.12-1.36l.72-.34.13-.06c.66-.32,1.23-.59,1.85-.59s1.2.27,1.85.59c.04.02.09.04.13.06l.72.35c1.42.68,2.39,1.14,3.12,1.36.72.21.94.11,1.06.02.13-.11.3-.34.34-1.16.04-.83-.07-1.98-.23-3.65l-.08-.85v-.15c-.09-.79-.15-1.44.04-2.06.19-.62.59-1.12,1.08-1.71l.09-.11.52-.64c1.03-1.26,1.74-2.12,2.16-2.81.41-.68.41-.98.35-1.18-.05-.18-.2-.42-.89-.7-.71-.29-1.74-.54-3.26-.89l-.77-.18s-.09-.02-.14-.03c-.71-.17-1.32-.31-1.82-.7-.5-.39-.8-.96-1.17-1.64l-.07-.13-.4-.74c-.78-1.45-1.32-2.45-1.8-3.1-.47-.65-.72-.7-.86-.7s-.38.05-.86.7Zm-1.44-1.15c.57-.78,1.29-1.44,2.3-1.44s1.72.66,2.3,1.44c.57.77,1.17,1.89,1.9,3.26l.43.81c.47.88.6,1.07.75,1.19.14.11.33.18,1.26.4l.85.2c1.42.33,2.59.61,3.45.96.89.36,1.66.9,1.96,1.89.29.99-.04,1.89-.55,2.74-.5.82-1.29,1.79-2.27,2.97l-.57.7c-.63.76-.76.95-.82,1.15-.06.21-.06.45.04,1.46l.09.93c.15,1.58.27,2.86.23,3.84-.04,1-.26,1.96-1.05,2.58-.81.64-1.75.57-2.65.29-.88-.26-1.97-.79-3.3-1.42l-.79-.38c-.87-.42-1.05-.48-1.23-.48s-.36.07-1.23.48l-.79.38c-1.33.64-2.43,1.16-3.31,1.42-.91.27-1.85.34-2.65-.29-.79-.63-1.01-1.58-1.05-2.58-.04-.98.08-2.27.23-3.84l.09-.93c.1-1.01.1-1.25.04-1.46-.06-.2-.19-.39-.82-1.15l-.57-.7c-.97-1.18-1.77-2.15-2.26-2.97-.51-.85-.85-1.75-.55-2.74.3-1,1.07-1.53,1.96-1.89.85-.35,2.02-.62,3.45-.96l.08-.02.77-.18c.92-.22,1.11-.28,1.26-.4.15-.12.27-.31.75-1.19l.43-.81c.73-1.37,1.33-2.49,1.9-3.26h0Z" fill="#5248bd" fill-rule="evenodd"/>
    <path d="m481.28,192.86c-.49.65-1.05,1.64-1.86,3.1l-.41.74-.07.13c-.38.68-.7,1.25-1.21,1.64-.52.4-1.15.54-1.89.7l-.14.03-.8.18c-1.58.36-2.65.6-3.38.89-.72.28-.87.51-.92.7-.06.2-.06.5.36,1.18.44.69,1.17,1.55,2.24,2.81l.54.64.09.11c.51.59.93,1.08,1.12,1.71.19.62.13,1.27.05,2.06v.15s-.1.85-.1.85c-.16,1.67-.27,2.82-.23,3.65.04.83.21,1.06.35,1.16.12.09.35.2,1.1-.02.76-.22,1.76-.68,3.24-1.36l.75-.34.14-.06c.68-.32,1.28-.59,1.92-.59s1.24.27,1.92.59c.05.02.09.04.14.06l.75.35c1.48.68,2.48,1.14,3.24,1.36.75.21.97.11,1.1.02.14-.11.31-.34.35-1.16.04-.83-.07-1.98-.23-3.65l-.08-.85v-.15c-.09-.79-.15-1.44.04-2.06.19-.62.62-1.12,1.12-1.71l.09-.11.54-.64c1.07-1.26,1.81-2.12,2.24-2.81.43-.68.43-.98.36-1.18-.06-.18-.21-.42-.92-.7-.74-.29-1.81-.54-3.38-.89l-.8-.18s-.1-.02-.14-.03c-.74-.17-1.37-.31-1.89-.7-.51-.39-.83-.96-1.21-1.64l-.07-.13-.41-.74c-.81-1.45-1.37-2.45-1.86-3.1-.49-.65-.75-.7-.89-.7s-.4.05-.89.7Zm-1.49-1.15c.6-.78,1.34-1.44,2.38-1.44s1.79.66,2.39,1.44c.59.77,1.21,1.89,1.97,3.26l.45.81c.49.88.62,1.07.78,1.19.15.11.35.18,1.31.4l.88.2c1.48.33,2.69.61,3.58.96.92.36,1.72.9,2.03,1.89.31.99-.04,1.89-.57,2.74-.52.82-1.34,1.79-2.35,2.97l-.6.7c-.65.76-.79.95-.85,1.15-.06.21-.06.45.04,1.46l.09.93c.15,1.58.28,2.86.23,3.84-.04,1-.27,1.96-1.09,2.58-.84.64-1.82.57-2.76.29-.91-.26-2.05-.79-3.43-1.42l-.82-.38c-.9-.42-1.09-.48-1.27-.48s-.37.07-1.27.48l-.82.38c-1.38.64-2.52,1.16-3.43,1.42-.94.27-1.92.34-2.76-.29-.82-.63-1.05-1.58-1.09-2.58-.04-.98.08-2.27.23-3.84l.09-.93c.1-1.01.1-1.25.04-1.46-.06-.2-.2-.39-.85-1.15l-.6-.7c-1.01-1.18-1.83-2.15-2.35-2.97-.53-.85-.88-1.75-.57-2.74.31-1,1.12-1.53,2.03-1.89.89-.35,2.1-.62,3.58-.96l.08-.02.8-.18c.96-.22,1.15-.28,1.31-.4.16-.12.29-.31.78-1.19l.45-.81c.76-1.37,1.39-2.49,1.97-3.26h0Z" fill="#5248bd" fill-rule="evenodd"/>
    <path d="m520.28,192.86c-.49.65-1.05,1.64-1.86,3.1l-.41.74-.07.13c-.38.68-.7,1.25-1.21,1.64-.52.4-1.15.54-1.89.7l-.14.03-.8.18c-1.58.36-2.65.6-3.38.89-.72.28-.87.51-.92.7-.06.2-.06.5.36,1.18.44.69,1.17,1.55,2.24,2.81l.54.64.09.11c.51.59.93,1.08,1.12,1.71.19.62.13,1.27.05,2.06v.15s-.1.85-.1.85c-.16,1.67-.27,2.82-.23,3.65.04.83.21,1.06.35,1.16.12.09.35.2,1.1-.02.76-.22,1.76-.68,3.24-1.36l.75-.34.14-.06c.68-.32,1.28-.59,1.92-.59s1.24.27,1.92.59c.05.02.09.04.14.06l.75.35c1.48.68,2.48,1.14,3.24,1.36.75.21.97.11,1.1.02.14-.11.31-.34.35-1.16.04-.83-.07-1.98-.23-3.65l-.08-.85v-.15c-.09-.79-.15-1.44.04-2.06.19-.62.62-1.12,1.12-1.71l.09-.11.54-.64c1.07-1.26,1.81-2.12,2.24-2.81.43-.68.43-.98.36-1.18-.06-.18-.21-.42-.92-.7-.74-.29-1.81-.54-3.38-.89l-.8-.18s-.1-.02-.14-.03c-.74-.17-1.37-.31-1.89-.7-.51-.39-.83-.96-1.21-1.64l-.07-.13-.41-.74c-.81-1.45-1.37-2.45-1.86-3.1-.49-.65-.75-.7-.89-.7s-.4.05-.89.7Zm-1.49-1.15c.6-.78,1.34-1.44,2.38-1.44s1.79.66,2.39,1.44c.59.77,1.21,1.89,1.97,3.26l.45.81c.49.88.62,1.07.78,1.19.15.11.35.18,1.31.4l.88.2c1.48.33,2.69.61,3.58.96.92.36,1.72.9,2.03,1.89.31.99-.04,1.89-.57,2.74-.52.82-1.34,1.79-2.35,2.97l-.6.7c-.65.76-.79.95-.85,1.15-.06.21-.06.45.04,1.46l.09.93c.15,1.58.28,2.86.23,3.84-.04,1-.27,1.96-1.09,2.58-.84.64-1.82.57-2.76.29-.91-.26-2.05-.79-3.43-1.42l-.82-.38c-.9-.42-1.09-.48-1.27-.48s-.37.07-1.27.48l-.82.38c-1.38.64-2.52,1.16-3.43,1.42-.94.27-1.92.34-2.76-.29-.82-.63-1.05-1.58-1.09-2.58-.04-.98.08-2.27.23-3.84l.09-.93c.1-1.01.1-1.25.04-1.46-.06-.2-.2-.39-.85-1.15l-.6-.7c-1.01-1.18-1.83-2.15-2.35-2.97-.53-.85-.88-1.75-.57-2.74.31-1,1.12-1.53,2.03-1.89.89-.35,2.1-.62,3.58-.96l.08-.02.8-.18c.96-.22,1.15-.28,1.31-.4.16-.12.29-.31.78-1.19l.45-.81c.76-1.37,1.39-2.49,1.97-3.26h0Z" fill="#5248bd" fill-rule="evenodd"/>
    <path d="m363.28,124.77c-.49.62-1.05,1.58-1.86,2.98l-.41.71-.07.13c-.38.65-.7,1.21-1.21,1.58-.52.38-1.15.52-1.89.68l-.14.03-.8.17c-1.58.34-2.65.58-3.38.86-.72.27-.87.49-.92.67-.06.19-.06.48.36,1.13.44.67,1.17,1.49,2.24,2.7l.54.61.09.11c.51.57.93,1.04,1.12,1.64.19.6.13,1.22.05,1.98v.14s-.1.82-.1.82c-.16,1.61-.27,2.72-.23,3.52.04.8.21,1.02.35,1.12.12.09.35.19,1.1-.02.76-.21,1.76-.65,3.24-1.31l.75-.33.14-.06c.68-.31,1.28-.57,1.92-.57s1.24.26,1.92.57c.05.02.09.04.14.06l.75.33c1.48.65,2.48,1.1,3.24,1.31.75.21.97.11,1.1.02.14-.1.31-.32.35-1.12.04-.8-.07-1.91-.23-3.52l-.08-.82v-.14c-.09-.76-.15-1.38.04-1.98.19-.6.62-1.07,1.12-1.64l.09-.11.54-.61c1.07-1.21,1.81-2.04,2.24-2.7.43-.66.43-.94.36-1.13-.06-.18-.21-.4-.92-.67-.74-.28-1.81-.52-3.38-.86l-.8-.17s-.1-.02-.14-.03c-.74-.16-1.37-.3-1.89-.68-.51-.37-.83-.93-1.21-1.58l-.07-.13-.41-.71c-.81-1.4-1.37-2.36-1.86-2.98-.49-.62-.75-.67-.89-.67s-.4.05-.89.67Zm-1.49-1.1c.6-.75,1.34-1.39,2.38-1.39s1.79.63,2.39,1.39c.59.74,1.21,1.82,1.97,3.13l.45.78c.49.85.62,1.03.78,1.15.15.11.35.17,1.31.38l.88.19c1.48.32,2.69.59,3.58.92.92.35,1.72.86,2.03,1.82.31.95-.04,1.82-.57,2.64-.52.79-1.34,1.72-2.35,2.86l-.6.67c-.65.73-.79.91-.85,1.11-.06.2-.06.44.04,1.41l.09.89c.15,1.52.28,2.76.23,3.7-.04.96-.27,1.88-1.09,2.49-.84.61-1.82.54-2.76.28-.91-.25-2.05-.76-3.43-1.37l-.82-.37c-.9-.4-1.09-.46-1.27-.46s-.37.06-1.27.46l-.82.37c-1.38.61-2.52,1.12-3.43,1.37-.94.26-1.92.33-2.76-.28-.82-.6-1.05-1.52-1.09-2.48-.04-.94.08-2.18.23-3.7l.09-.89c.1-.97.1-1.21.04-1.41-.06-.2-.2-.37-.85-1.11l-.6-.67c-1.01-1.14-1.83-2.07-2.35-2.86-.53-.82-.88-1.69-.57-2.64.31-.96,1.12-1.47,2.03-1.82.89-.34,2.1-.6,3.58-.92l.08-.02.8-.17c.96-.21,1.15-.27,1.31-.38.16-.11.29-.3.78-1.15l.45-.78c.76-1.32,1.39-2.39,1.97-3.13h0Z" fill="#5248bd" fill-rule="evenodd"/>
    <path d="m402.28,124.77c-.49.62-1.05,1.58-1.86,2.98l-.41.71-.07.13c-.38.65-.7,1.21-1.21,1.58-.52.38-1.15.52-1.89.68l-.14.03-.8.17c-1.58.34-2.65.58-3.38.86-.72.27-.87.49-.92.67-.06.19-.06.48.36,1.13.44.67,1.17,1.49,2.24,2.7l.54.61.09.11c.51.57.93,1.04,1.12,1.64.19.6.13,1.22.05,1.98v.14s-.1.82-.1.82c-.16,1.61-.27,2.72-.23,3.52.04.8.21,1.02.35,1.12.12.09.35.19,1.1-.02.76-.21,1.76-.65,3.24-1.31l.75-.33.14-.06c.68-.31,1.28-.57,1.92-.57s1.24.26,1.92.57c.05.02.09.04.14.06l.75.33c1.48.65,2.48,1.1,3.24,1.31.75.21.97.11,1.1.02.14-.1.31-.32.35-1.12.04-.8-.07-1.91-.23-3.52l-.08-.82v-.14c-.09-.76-.15-1.38.04-1.98.19-.6.62-1.07,1.12-1.64l.09-.11.54-.61c1.07-1.21,1.81-2.04,2.24-2.7.43-.66.43-.94.36-1.13-.06-.18-.21-.4-.92-.67-.74-.28-1.81-.52-3.38-.86l-.8-.17s-.1-.02-.14-.03c-.74-.16-1.37-.3-1.89-.68-.51-.37-.83-.93-1.21-1.58l-.07-.13-.41-.71c-.81-1.4-1.37-2.36-1.86-2.98-.49-.62-.75-.67-.89-.67s-.4.05-.89.67Zm-1.49-1.1c.6-.75,1.34-1.39,2.38-1.39s1.79.63,2.39,1.39c.59.74,1.21,1.82,1.97,3.13l.45.78c.49.85.62,1.03.78,1.15.15.11.35.17,1.31.38l.88.19c1.48.32,2.69.59,3.58.92.92.35,1.72.86,2.03,1.82.31.95-.04,1.82-.57,2.64-.52.79-1.34,1.72-2.35,2.86l-.6.67c-.65.73-.79.91-.85,1.11-.06.2-.06.44.04,1.41l.09.89c.15,1.52.28,2.76.23,3.7-.04.96-.27,1.88-1.09,2.49-.84.61-1.82.54-2.76.28-.91-.25-2.05-.76-3.43-1.37l-.82-.37c-.9-.4-1.09-.46-1.27-.46s-.37.06-1.27.46l-.82.37c-1.38.61-2.52,1.12-3.43,1.37-.94.26-1.92.33-2.76-.28-.82-.6-1.05-1.52-1.09-2.48-.04-.94.08-2.18.23-3.7l.09-.89c.1-.97.1-1.21.04-1.41-.06-.2-.2-.37-.85-1.11l-.6-.67c-1.01-1.14-1.83-2.07-2.35-2.86-.53-.82-.88-1.69-.57-2.64.31-.96,1.12-1.47,2.03-1.82.89-.34,2.1-.6,3.58-.92l.08-.02.8-.17c.96-.21,1.15-.27,1.31-.38.16-.11.29-.3.78-1.15l.45-.78c.76-1.32,1.39-2.39,1.97-3.13h0Z" fill="#5248bd" fill-rule="evenodd"/>
    <path d="m441.81,124.77c-.48.62-1.01,1.58-1.8,2.98l-.39.71-.07.13c-.36.65-.67,1.21-1.17,1.58-.5.38-1.11.52-1.82.68l-.14.03-.77.17c-1.52.34-2.55.58-3.26.86-.69.27-.84.49-.89.67-.06.19-.06.48.35,1.13.42.67,1.13,1.49,2.16,2.7l.52.61.09.11c.49.57.89,1.04,1.08,1.64.18.6.12,1.22.05,1.98v.14s-.09.82-.09.82c-.16,1.61-.26,2.72-.23,3.52.04.8.2,1.02.34,1.12.12.09.34.19,1.06-.02.73-.21,1.7-.65,3.12-1.31l.72-.33.13-.06c.66-.31,1.23-.57,1.85-.57s1.2.26,1.85.57c.04.02.09.04.13.06l.72.33c1.42.65,2.39,1.1,3.12,1.31.72.21.94.11,1.06.02.13-.1.3-.32.34-1.12.04-.8-.07-1.91-.23-3.52l-.08-.82v-.14c-.09-.76-.15-1.38.04-1.98.19-.6.59-1.07,1.08-1.64l.09-.11.52-.61c1.03-1.21,1.74-2.04,2.16-2.7.41-.66.41-.94.35-1.13-.05-.18-.2-.4-.89-.67-.71-.28-1.74-.52-3.26-.86l-.77-.17s-.09-.02-.14-.03c-.71-.16-1.32-.3-1.82-.68-.5-.37-.8-.93-1.17-1.58l-.07-.13-.4-.71c-.78-1.4-1.32-2.36-1.8-2.98-.47-.62-.72-.67-.86-.67s-.38.05-.86.67Zm-1.44-1.1c.57-.75,1.29-1.39,2.3-1.39s1.72.63,2.3,1.39c.57.74,1.17,1.82,1.9,3.13l.43.78c.47.85.6,1.03.75,1.15.14.11.33.17,1.26.38l.85.19c1.42.32,2.59.59,3.45.92.89.35,1.66.86,1.96,1.82.29.95-.04,1.82-.55,2.64-.5.79-1.29,1.72-2.27,2.86l-.57.67c-.63.73-.76.91-.82,1.11-.06.2-.06.44.04,1.41l.09.89c.15,1.52.27,2.76.23,3.7-.04.96-.26,1.88-1.05,2.49-.81.61-1.75.54-2.65.28-.88-.25-1.97-.76-3.3-1.37l-.79-.37c-.87-.4-1.05-.46-1.23-.46s-.36.06-1.23.46l-.79.37c-1.33.61-2.43,1.12-3.31,1.37-.91.26-1.85.33-2.65-.28-.79-.6-1.01-1.52-1.05-2.48-.04-.94.08-2.18.23-3.7l.09-.89c.1-.97.1-1.21.04-1.41-.06-.2-.19-.37-.82-1.11l-.57-.67c-.97-1.14-1.77-2.07-2.26-2.86-.51-.82-.85-1.69-.55-2.64.3-.96,1.07-1.47,1.96-1.82.85-.34,2.02-.6,3.45-.92l.08-.02.77-.17c.92-.21,1.11-.27,1.26-.38.15-.11.27-.3.75-1.15l.43-.78c.73-1.32,1.33-2.39,1.9-3.13h0Z" fill="#5248bd" fill-rule="evenodd"/>
    <g opacity=".15">
      <path d="m481.28,124.77c-.49.62-1.05,1.58-1.86,2.98l-.41.71-.07.13c-.38.65-.7,1.21-1.21,1.58-.52.38-1.15.52-1.89.68l-.14.03-.8.17c-1.58.34-2.65.58-3.38.86-.72.27-.87.49-.92.67-.06.19-.06.48.36,1.13.44.67,1.17,1.49,2.24,2.7l.54.61.09.11c.51.57.93,1.04,1.12,1.64.19.6.13,1.22.05,1.98v.14s-.1.82-.1.82c-.16,1.61-.27,2.72-.23,3.52.04.8.21,1.02.35,1.12.12.09.35.19,1.1-.02.76-.21,1.76-.65,3.24-1.31l.75-.33.14-.06c.68-.31,1.28-.57,1.92-.57s1.24.26,1.92.57c.05.02.09.04.14.06l.75.33c1.48.65,2.48,1.1,3.24,1.31.75.21.97.11,1.1.02.14-.1.31-.32.35-1.12.04-.8-.07-1.91-.23-3.52l-.08-.82v-.14c-.09-.76-.15-1.38.04-1.98.19-.6.62-1.07,1.12-1.64l.09-.11.54-.61c1.07-1.21,1.81-2.04,2.24-2.7.43-.66.43-.94.36-1.13-.06-.18-.21-.4-.92-.67-.74-.28-1.81-.52-3.38-.86l-.8-.17s-.1-.02-.14-.03c-.74-.16-1.37-.3-1.89-.68-.51-.37-.83-.93-1.21-1.58l-.07-.13-.41-.71c-.81-1.4-1.37-2.36-1.86-2.98-.49-.62-.75-.67-.89-.67s-.4.05-.89.67Zm-1.49-1.1c.6-.75,1.34-1.39,2.38-1.39s1.79.63,2.39,1.39c.59.74,1.21,1.82,1.97,3.13l.45.78c.49.85.62,1.03.78,1.15.15.11.35.17,1.31.38l.88.19c1.48.32,2.69.59,3.58.92.92.35,1.72.86,2.03,1.82.31.95-.04,1.82-.57,2.64-.52.79-1.34,1.72-2.35,2.86l-.6.67c-.65.73-.79.91-.85,1.11-.06.2-.06.44.04,1.41l.09.89c.15,1.52.28,2.76.23,3.7-.04.96-.27,1.88-1.09,2.49-.84.61-1.82.54-2.76.28-.91-.25-2.05-.76-3.43-1.37l-.82-.37c-.9-.4-1.09-.46-1.27-.46s-.37.06-1.27.46l-.82.37c-1.38.61-2.52,1.12-3.43,1.37-.94.26-1.92.33-2.76-.28-.82-.6-1.05-1.52-1.09-2.48-.04-.94.08-2.18.23-3.7l.09-.89c.1-.97.1-1.21.04-1.41-.06-.2-.2-.37-.85-1.11l-.6-.67c-1.01-1.14-1.83-2.07-2.35-2.86-.53-.82-.88-1.69-.57-2.64.31-.96,1.12-1.47,2.03-1.82.89-.34,2.1-.6,3.58-.92l.08-.02.8-.17c.96-.21,1.15-.27,1.31-.38.16-.11.29-.3.78-1.15l.45-.78c.76-1.32,1.39-2.39,1.97-3.13h0Z" fill-rule="evenodd"/>
    </g>
    <g opacity=".15">
      <path d="m520.28,124.77c-.49.62-1.05,1.58-1.86,2.98l-.41.71-.07.13c-.38.65-.7,1.21-1.21,1.58-.52.38-1.15.52-1.89.68l-.14.03-.8.17c-1.58.34-2.65.58-3.38.86-.72.27-.87.49-.92.67-.06.19-.06.48.36,1.13.44.67,1.17,1.49,2.24,2.7l.54.61.09.11c.51.57.93,1.04,1.12,1.64.19.6.13,1.22.05,1.98v.14s-.1.82-.1.82c-.16,1.61-.27,2.72-.23,3.52.04.8.21,1.02.35,1.12.12.09.35.19,1.1-.02.76-.21,1.76-.65,3.24-1.31l.75-.33.14-.06c.68-.31,1.28-.57,1.92-.57s1.24.26,1.92.57c.05.02.09.04.14.06l.75.33c1.48.65,2.48,1.1,3.24,1.31.75.21.97.11,1.1.02.14-.1.31-.32.35-1.12.04-.8-.07-1.91-.23-3.52l-.08-.82v-.14c-.09-.76-.15-1.38.04-1.98.19-.6.62-1.07,1.12-1.64l.09-.11.54-.61c1.07-1.21,1.81-2.04,2.24-2.7.43-.66.43-.94.36-1.13-.06-.18-.21-.4-.92-.67-.74-.28-1.81-.52-3.38-.86l-.8-.17s-.1-.02-.14-.03c-.74-.16-1.37-.3-1.89-.68-.51-.37-.83-.93-1.21-1.58l-.07-.13-.41-.71c-.81-1.4-1.37-2.36-1.86-2.98-.49-.62-.75-.67-.89-.67s-.4.05-.89.67Zm-1.49-1.1c.6-.75,1.34-1.39,2.38-1.39s1.79.63,2.39,1.39c.59.74,1.21,1.82,1.97,3.13l.45.78c.49.85.62,1.03.78,1.15.15.11.35.17,1.31.38l.88.19c1.48.32,2.69.59,3.58.92.92.35,1.72.86,2.03,1.82.31.95-.04,1.82-.57,2.64-.52.79-1.34,1.72-2.35,2.86l-.6.67c-.65.73-.79.91-.85,1.11-.06.2-.06.44.04,1.41l.09.89c.15,1.52.28,2.76.23,3.7-.04.96-.27,1.88-1.09,2.49-.84.61-1.82.54-2.76.28-.91-.25-2.05-.76-3.43-1.37l-.82-.37c-.9-.4-1.09-.46-1.27-.46s-.37.06-1.27.46l-.82.37c-1.38.61-2.52,1.12-3.43,1.37-.94.26-1.92.33-2.76-.28-.82-.6-1.05-1.52-1.09-2.48-.04-.94.08-2.18.23-3.7l.09-.89c.1-.97.1-1.21.04-1.41-.06-.2-.2-.37-.85-1.11l-.6-.67c-1.01-1.14-1.83-2.07-2.35-2.86-.53-.82-.88-1.69-.57-2.64.31-.96,1.12-1.47,2.03-1.82.89-.34,2.1-.6,3.58-.92l.08-.02.8-.17c.96-.21,1.15-.27,1.31-.38.16-.11.29-.3.78-1.15l.45-.78c.76-1.32,1.39-2.39,1.97-3.13h0Z" fill-rule="evenodd"/>
    </g>
    <path d="m363.28,55.86c-.49.65-1.05,1.64-1.86,3.1l-.41.74-.07.13c-.38.68-.7,1.25-1.21,1.64-.52.39-1.15.54-1.89.7l-.14.03-.8.18c-1.58.36-2.65.6-3.38.89-.72.28-.87.51-.92.7-.06.2-.06.5.36,1.18.44.69,1.17,1.55,2.24,2.81l.54.64.09.11c.51.59.93,1.08,1.12,1.71.19.62.13,1.27.05,2.06v.15s-.1.85-.1.85c-.16,1.67-.27,2.83-.23,3.65.04.83.21,1.06.35,1.16.12.09.35.2,1.1-.02.76-.22,1.76-.68,3.24-1.36l.75-.34.14-.06c.68-.32,1.28-.59,1.92-.59s1.24.27,1.92.59c.05.02.09.04.14.06l.75.35c1.48.68,2.48,1.14,3.24,1.36.75.21.97.11,1.1.02.14-.11.31-.34.35-1.16.04-.83-.07-1.98-.23-3.65l-.08-.85v-.15c-.09-.79-.15-1.44.04-2.06.19-.62.62-1.12,1.12-1.71l.09-.11.54-.64c1.07-1.26,1.81-2.12,2.24-2.81.43-.68.43-.98.36-1.18-.06-.18-.21-.42-.92-.7-.74-.29-1.81-.54-3.38-.89l-.8-.18s-.1-.02-.14-.03c-.74-.17-1.37-.31-1.89-.7-.51-.39-.83-.96-1.21-1.64l-.07-.13-.41-.74c-.81-1.45-1.37-2.45-1.86-3.1-.49-.65-.75-.7-.89-.7s-.4.06-.89.7Zm-1.49-1.15c.6-.78,1.34-1.44,2.38-1.44s1.79.66,2.39,1.44c.59.77,1.21,1.89,1.97,3.26l.45.81c.49.88.62,1.07.78,1.19.15.11.35.18,1.31.4l.88.2c1.48.33,2.69.61,3.58.96.92.36,1.72.9,2.03,1.89.31.99-.04,1.89-.57,2.74-.52.82-1.34,1.79-2.35,2.97l-.6.7c-.65.76-.79.94-.85,1.15-.06.21-.06.45.04,1.46l.09.93c.15,1.58.28,2.86.23,3.84-.04,1-.27,1.96-1.09,2.58-.84.64-1.82.57-2.76.29-.91-.26-2.05-.78-3.43-1.42l-.82-.38c-.9-.41-1.09-.48-1.27-.48s-.37.07-1.27.48l-.82.38c-1.38.64-2.52,1.16-3.43,1.42-.94.27-1.92.34-2.76-.29-.82-.63-1.05-1.58-1.09-2.58-.04-.98.08-2.27.23-3.84l.09-.93c.1-1.01.1-1.25.04-1.46-.06-.2-.2-.39-.85-1.15l-.6-.7c-1.01-1.18-1.83-2.15-2.35-2.97-.53-.85-.88-1.75-.57-2.74.31-1,1.12-1.53,2.03-1.89.89-.35,2.1-.62,3.58-.96l.08-.02.8-.18c.96-.22,1.15-.28,1.31-.4.16-.12.29-.31.78-1.19l.45-.81c.76-1.37,1.39-2.49,1.97-3.26h0Z" fill="#5248bd" fill-rule="evenodd"/>
    <path d="m402.28,55.86c-.49.65-1.05,1.64-1.86,3.1l-.41.74-.07.13c-.38.68-.7,1.25-1.21,1.64-.52.39-1.15.54-1.89.7l-.14.03-.8.18c-1.58.36-2.65.6-3.38.89-.72.28-.87.51-.92.7-.06.2-.06.5.36,1.18.44.69,1.17,1.55,2.24,2.81l.54.64.09.11c.51.59.93,1.08,1.12,1.71.19.62.13,1.27.05,2.06v.15s-.1.85-.1.85c-.16,1.67-.27,2.83-.23,3.65.04.83.21,1.06.35,1.16.12.09.35.2,1.1-.02.76-.22,1.76-.68,3.24-1.36l.75-.34.14-.06c.68-.32,1.28-.59,1.92-.59s1.24.27,1.92.59c.05.02.09.04.14.06l.75.35c1.48.68,2.48,1.14,3.24,1.36.75.21.97.11,1.1.02.14-.11.31-.34.35-1.16.04-.83-.07-1.98-.23-3.65l-.08-.85v-.15c-.09-.79-.15-1.44.04-2.06.19-.62.62-1.12,1.12-1.71l.09-.11.54-.64c1.07-1.26,1.81-2.12,2.24-2.81.43-.68.43-.98.36-1.18-.06-.18-.21-.42-.92-.7-.74-.29-1.81-.54-3.38-.89l-.8-.18s-.1-.02-.14-.03c-.74-.17-1.37-.31-1.89-.7-.51-.39-.83-.96-1.21-1.64l-.07-.13-.41-.74c-.81-1.45-1.37-2.45-1.86-3.1-.49-.65-.75-.7-.89-.7s-.4.06-.89.7Zm-1.49-1.15c.6-.78,1.34-1.44,2.38-1.44s1.79.66,2.39,1.44c.59.77,1.21,1.89,1.97,3.26l.45.81c.49.88.62,1.07.78,1.19.15.11.35.18,1.31.4l.88.2c1.48.33,2.69.61,3.58.96.92.36,1.72.9,2.03,1.89.31.99-.04,1.89-.57,2.74-.52.82-1.34,1.79-2.35,2.97l-.6.7c-.65.76-.79.94-.85,1.15-.06.21-.06.45.04,1.46l.09.93c.15,1.58.28,2.86.23,3.84-.04,1-.27,1.96-1.09,2.58-.84.64-1.82.57-2.76.29-.91-.26-2.05-.78-3.43-1.42l-.82-.38c-.9-.41-1.09-.48-1.27-.48s-.37.07-1.27.48l-.82.38c-1.38.64-2.52,1.16-3.43,1.42-.94.27-1.92.34-2.76-.29-.82-.63-1.05-1.58-1.09-2.58-.04-.98.08-2.27.23-3.84l.09-.93c.1-1.01.1-1.25.04-1.46-.06-.2-.2-.39-.85-1.15l-.6-.7c-1.01-1.18-1.83-2.15-2.35-2.97-.53-.85-.88-1.75-.57-2.74.31-1,1.12-1.53,2.03-1.89.89-.35,2.1-.62,3.58-.96l.08-.02.8-.18c.96-.22,1.15-.28,1.31-.4.16-.12.29-.31.78-1.19l.45-.81c.76-1.37,1.39-2.49,1.97-3.26h0Z" fill="#5248bd" fill-rule="evenodd"/>
    <path d="m441.81,55.86c-.48.65-1.01,1.64-1.8,3.1l-.39.74-.07.13c-.36.68-.67,1.25-1.17,1.64-.5.39-1.11.54-1.82.7l-.14.03-.77.18c-1.52.36-2.55.6-3.26.89-.69.28-.84.51-.89.7-.06.2-.06.5.35,1.18.42.69,1.13,1.55,2.16,2.81l.52.64.09.11c.49.59.89,1.08,1.08,1.71.18.62.12,1.27.05,2.06v.15s-.09.85-.09.85c-.16,1.67-.26,2.83-.23,3.65.04.83.2,1.06.34,1.16.12.09.34.2,1.06-.02.73-.22,1.7-.68,3.12-1.36l.72-.34.13-.06c.66-.32,1.23-.59,1.85-.59s1.2.27,1.85.59c.04.02.09.04.13.06l.72.35c1.42.68,2.39,1.14,3.12,1.36.72.21.94.11,1.06.02.13-.11.3-.34.34-1.16.04-.83-.07-1.98-.23-3.65l-.08-.85v-.15c-.09-.79-.15-1.44.04-2.06.19-.62.59-1.12,1.08-1.71l.09-.11.52-.64c1.03-1.26,1.74-2.12,2.16-2.81.41-.68.41-.98.35-1.18-.05-.18-.2-.42-.89-.7-.71-.29-1.74-.54-3.26-.89l-.77-.18s-.09-.02-.14-.03c-.71-.17-1.32-.31-1.82-.7-.5-.39-.8-.96-1.17-1.64l-.07-.13-.4-.74c-.78-1.45-1.32-2.45-1.8-3.1-.47-.65-.72-.7-.86-.7s-.38.06-.86.7Zm-1.44-1.15c.57-.78,1.29-1.44,2.3-1.44s1.72.66,2.3,1.44c.57.77,1.17,1.89,1.9,3.26l.43.81c.47.88.6,1.07.75,1.19.14.11.33.18,1.26.4l.85.2c1.42.33,2.59.61,3.45.96.89.36,1.66.9,1.96,1.89.29.99-.04,1.89-.55,2.74-.5.82-1.29,1.79-2.27,2.97l-.57.7c-.63.76-.76.94-.82,1.15-.06.21-.06.45.04,1.46l.09.93c.15,1.58.27,2.86.23,3.84-.04,1-.26,1.96-1.05,2.58-.81.64-1.75.57-2.65.29-.88-.26-1.97-.78-3.3-1.42l-.79-.38c-.87-.41-1.05-.48-1.23-.48s-.36.07-1.23.48l-.79.38c-1.33.64-2.43,1.16-3.31,1.42-.91.27-1.85.34-2.65-.29-.79-.63-1.01-1.58-1.05-2.58-.04-.98.08-2.27.23-3.84l.09-.93c.1-1.01.1-1.25.04-1.46-.06-.2-.19-.39-.82-1.15l-.57-.7c-.97-1.18-1.77-2.15-2.26-2.97-.51-.85-.85-1.75-.55-2.74.3-1,1.07-1.53,1.96-1.89.85-.35,2.02-.62,3.45-.96l.08-.02.77-.18c.92-.22,1.11-.28,1.26-.4.15-.12.27-.31.75-1.19l.43-.81c.73-1.37,1.33-2.49,1.9-3.26h0Z" fill="#5248bd" fill-rule="evenodd"/>
    <path d="m481.28,55.86c-.49.65-1.05,1.64-1.86,3.1l-.41.74-.07.13c-.38.68-.7,1.25-1.21,1.64-.52.39-1.15.54-1.89.7l-.14.03-.8.18c-1.58.36-2.65.6-3.38.89-.72.28-.87.51-.92.7-.06.2-.06.5.36,1.18.44.69,1.17,1.55,2.24,2.81l.54.64.09.11c.51.59.93,1.08,1.12,1.71.19.62.13,1.27.05,2.06v.15s-.1.85-.1.85c-.16,1.67-.27,2.83-.23,3.65.04.83.21,1.06.35,1.16.12.09.35.2,1.1-.02.76-.22,1.76-.68,3.24-1.36l.75-.34.14-.06c.68-.32,1.28-.59,1.92-.59s1.24.27,1.92.59c.05.02.09.04.14.06l.75.35c1.48.68,2.48,1.14,3.24,1.36.75.21.97.11,1.1.02.14-.11.31-.34.35-1.16.04-.83-.07-1.98-.23-3.65l-.08-.85v-.15c-.09-.79-.15-1.44.04-2.06.19-.62.62-1.12,1.12-1.71l.09-.11.54-.64c1.07-1.26,1.81-2.12,2.24-2.81.43-.68.43-.98.36-1.18-.06-.18-.21-.42-.92-.7-.74-.29-1.81-.54-3.38-.89l-.8-.18s-.1-.02-.14-.03c-.74-.17-1.37-.31-1.89-.7-.51-.39-.83-.96-1.21-1.64l-.07-.13-.41-.74c-.81-1.45-1.37-2.45-1.86-3.1-.49-.65-.75-.7-.89-.7s-.4.06-.89.7Zm-1.49-1.15c.6-.78,1.34-1.44,2.38-1.44s1.79.66,2.39,1.44c.59.77,1.21,1.89,1.97,3.26l.45.81c.49.88.62,1.07.78,1.19.15.11.35.18,1.31.4l.88.2c1.48.33,2.69.61,3.58.96.92.36,1.72.9,2.03,1.89.31.99-.04,1.89-.57,2.74-.52.82-1.34,1.79-2.35,2.97l-.6.7c-.65.76-.79.94-.85,1.15-.06.21-.06.45.04,1.46l.09.93c.15,1.58.28,2.86.23,3.84-.04,1-.27,1.96-1.09,2.58-.84.64-1.82.57-2.76.29-.91-.26-2.05-.78-3.43-1.42l-.82-.38c-.9-.41-1.09-.48-1.27-.48s-.37.07-1.27.48l-.82.38c-1.38.64-2.52,1.16-3.43,1.42-.94.27-1.92.34-2.76-.29-.82-.63-1.05-1.58-1.09-2.58-.04-.98.08-2.27.23-3.84l.09-.93c.1-1.01.1-1.25.04-1.46-.06-.2-.2-.39-.85-1.15l-.6-.7c-1.01-1.18-1.83-2.15-2.35-2.97-.53-.85-.88-1.75-.57-2.74.31-1,1.12-1.53,2.03-1.89.89-.35,2.1-.62,3.58-.96l.08-.02.8-.18c.96-.22,1.15-.28,1.31-.4.16-.12.29-.31.78-1.19l.45-.81c.76-1.37,1.39-2.49,1.97-3.26h0Z" fill="#5248bd" fill-rule="evenodd"/>
    <g opacity=".15">
      <path d="m520.28,55.86c-.49.65-1.05,1.64-1.86,3.1l-.41.74-.07.13c-.38.68-.7,1.25-1.21,1.64-.52.39-1.15.54-1.89.7l-.14.03-.8.18c-1.58.36-2.65.6-3.38.89-.72.28-.87.51-.92.7-.06.2-.06.5.36,1.18.44.69,1.17,1.55,2.24,2.81l.54.64.09.11c.51.59.93,1.08,1.12,1.71.19.62.13,1.27.05,2.06v.15s-.1.85-.1.85c-.16,1.67-.27,2.83-.23,3.65.04.83.21,1.06.35,1.16.12.09.35.2,1.1-.02.76-.22,1.76-.68,3.24-1.36l.75-.34.14-.06c.68-.32,1.28-.59,1.92-.59s1.24.27,1.92.59c.05.02.09.04.14.06l.75.35c1.48.68,2.48,1.14,3.24,1.36.75.21.97.11,1.1.02.14-.11.31-.34.35-1.16.04-.83-.07-1.98-.23-3.65l-.08-.85v-.15c-.09-.79-.15-1.44.04-2.06.19-.62.62-1.12,1.12-1.71l.09-.11.54-.64c1.07-1.26,1.81-2.12,2.24-2.81.43-.68.43-.98.36-1.18-.06-.18-.21-.42-.92-.7-.74-.29-1.81-.54-3.38-.89l-.8-.18s-.1-.02-.14-.03c-.74-.17-1.37-.31-1.89-.7-.51-.39-.83-.96-1.21-1.64l-.07-.13-.41-.74c-.81-1.45-1.37-2.45-1.86-3.1-.49-.65-.75-.7-.89-.7s-.4.06-.89.7Zm-1.49-1.15c.6-.78,1.34-1.44,2.38-1.44s1.79.66,2.39,1.44c.59.77,1.21,1.89,1.97,3.26l.45.81c.49.88.62,1.07.78,1.19.15.11.35.18,1.31.4l.88.2c1.48.33,2.69.61,3.58.96.92.36,1.72.9,2.03,1.89.31.99-.04,1.89-.57,2.74-.52.82-1.34,1.79-2.35,2.97l-.6.7c-.65.76-.79.94-.85,1.15-.06.21-.06.45.04,1.46l.09.93c.15,1.58.28,2.86.23,3.84-.04,1-.27,1.96-1.09,2.58-.84.64-1.82.57-2.76.29-.91-.26-2.05-.78-3.43-1.42l-.82-.38c-.9-.41-1.09-.48-1.27-.48s-.37.07-1.27.48l-.82.38c-1.38.64-2.52,1.16-3.43,1.42-.94.27-1.92.34-2.76-.29-.82-.63-1.05-1.58-1.09-2.58-.04-.98.08-2.27.23-3.84l.09-.93c.1-1.01.1-1.25.04-1.46-.06-.2-.2-.39-.85-1.15l-.6-.7c-1.01-1.18-1.83-2.15-2.35-2.97-.53-.85-.88-1.75-.57-2.74.31-1,1.12-1.53,2.03-1.89.89-.35,2.1-.62,3.58-.96l.08-.02.8-.18c.96-.22,1.15-.28,1.31-.4.16-.12.29-.31.78-1.19l.45-.81c.76-1.37,1.39-2.49,1.97-3.26h0Z" fill="#5248bd" fill-rule="evenodd"/>
    </g>
    <g>
      <path d="m236.5,53.26v5.21h-7.07v21.47h-6.5v-21.47h-7.07v-5.21h20.63Z"/>
      <path d="m246.27,58.46v5.4h8.7v5.02h-8.7v5.85h9.84v5.21h-16.34v-26.68h16.34v5.21h-9.84Z"/>
      <path d="m276.93,75.22h-9.96l-1.6,4.71h-6.8l9.65-26.68h7.52l9.65,26.68h-6.88l-1.6-4.71Zm-1.67-5.02l-3.31-9.77-3.27,9.77h6.57Z"/>
      <path d="m318.54,53.26v26.68h-6.5v-16l-5.97,16h-5.24l-6-16.04v16.04h-6.5v-26.68h7.68l7.49,18.47,7.41-18.47h7.64Z"/>
    </g>
    <g>
      <path d="m81.77,122.76v5.21h-7.07v21.47h-6.5v-21.47h-7.07v-5.21h20.63Z"/>
      <path d="m91.54,127.96v5.4h8.7v5.02h-8.7v5.85h9.84v5.21h-16.34v-26.68h16.34v5.21h-9.84Z"/>
      <path d="m106.2,129.01c1.14-2.06,2.73-3.67,4.77-4.83,2.04-1.15,4.35-1.73,6.93-1.73,3.17,0,5.88.84,8.13,2.51s3.76,3.95,4.52,6.84h-7.14c-.53-1.11-1.29-1.96-2.26-2.55-.98-.58-2.08-.87-3.33-.87-2,0-3.62.7-4.86,2.09-1.24,1.39-1.86,3.26-1.86,5.59s.62,4.19,1.86,5.59c1.24,1.39,2.86,2.09,4.86,2.09,1.24,0,2.35-.29,3.33-.87.97-.58,1.73-1.43,2.26-2.55h7.14c-.76,2.89-2.27,5.16-4.52,6.82s-4.97,2.49-8.13,2.49c-2.58,0-4.9-.58-6.93-1.73-2.04-1.15-3.63-2.75-4.77-4.81-1.14-2.05-1.71-4.4-1.71-7.03s.57-4.98,1.71-7.05Z"/>
      <path d="m157.65,122.76v26.68h-6.5v-10.98h-10.11v10.98h-6.5v-26.68h6.5v10.45h10.11v-10.45h6.5Z"/>
      <path d="m186.19,149.43h-6.5l-10.87-16.45v16.45h-6.5v-26.68h6.5l10.87,16.53v-16.53h6.5v26.68Z"/>
      <path d="m196.62,147.95c-2.09-1.16-3.75-2.79-4.98-4.88s-1.84-4.44-1.84-7.05.61-4.95,1.84-7.03c1.23-2.08,2.89-3.7,4.98-4.86s4.39-1.75,6.9-1.75,4.81.58,6.9,1.75,3.74,2.79,4.94,4.86c1.2,2.08,1.81,4.42,1.81,7.03s-.61,4.96-1.82,7.05-2.86,3.72-4.94,4.88c-2.08,1.17-4.37,1.75-6.88,1.75s-4.81-.58-6.9-1.75Zm12.01-6.31c1.28-1.42,1.92-3.29,1.92-5.62s-.64-4.24-1.92-5.64c-1.28-1.41-2.98-2.11-5.11-2.11s-3.87.7-5.15,2.09c-1.28,1.39-1.92,3.28-1.92,5.66s.64,4.24,1.92,5.64c1.28,1.41,3,2.11,5.15,2.11s3.83-.71,5.11-2.13Z"/>
      <path d="m227.27,144.42h8.51v5.02h-15.01v-26.68h6.5v21.66Z"/>
      <path d="m244.62,147.95c-2.09-1.16-3.75-2.79-4.98-4.88s-1.84-4.44-1.84-7.05.61-4.95,1.84-7.03c1.23-2.08,2.89-3.7,4.98-4.86s4.39-1.75,6.9-1.75,4.81.58,6.9,1.75,3.74,2.79,4.94,4.86c1.2,2.08,1.81,4.42,1.81,7.03s-.61,4.96-1.82,7.05-2.86,3.72-4.94,4.88c-2.08,1.17-4.37,1.75-6.88,1.75s-4.81-.58-6.9-1.75Zm12.01-6.31c1.28-1.42,1.92-3.29,1.92-5.62s-.64-4.24-1.92-5.64c-1.28-1.41-2.98-2.11-5.11-2.11s-3.87.7-5.15,2.09c-1.28,1.39-1.92,3.28-1.92,5.66s.64,4.24,1.92,5.64c1.28,1.41,3,2.11,5.15,2.11s3.83-.71,5.11-2.13Z"/>
      <path d="m286.47,131.19c-.48-.89-1.17-1.56-2.07-2.03-.9-.47-1.96-.7-3.17-.7-2.1,0-3.79.69-5.05,2.07-1.27,1.38-1.9,3.22-1.9,5.53,0,2.46.67,4.38,2,5.76,1.33,1.38,3.16,2.07,5.49,2.07,1.6,0,2.95-.41,4.05-1.22,1.1-.81,1.91-1.98,2.41-3.5h-8.25v-4.79h14.14v6.04c-.48,1.62-1.3,3.13-2.45,4.52-1.15,1.39-2.62,2.52-4.39,3.38-1.77.86-3.78,1.29-6,1.29-2.64,0-4.99-.58-7.05-1.73-2.06-1.15-3.67-2.75-4.83-4.81-1.15-2.05-1.73-4.4-1.73-7.03s.58-4.98,1.73-7.05c1.15-2.06,2.75-3.67,4.81-4.83,2.05-1.15,4.39-1.73,7.03-1.73,3.19,0,5.88.77,8.07,2.32,2.19,1.55,3.64,3.69,4.35,6.42h-7.18Z"/>
      <path d="m320.6,122.76l-9.23,17.86v8.82h-6.5v-8.82l-9.23-17.86h7.37l5.17,11.17,5.13-11.17h7.3Z"/>
    </g>
    <g>
      <path d="m137.36,218.25c-1.54-.63-2.78-1.57-3.71-2.81s-1.41-2.74-1.46-4.48h6.92c.1.99.44,1.74,1.03,2.26.58.52,1.34.78,2.28.78s1.72-.22,2.28-.67c.56-.44.84-1.06.84-1.84,0-.66-.22-1.2-.67-1.63s-.99-.79-1.63-1.06c-.65-.28-1.56-.59-2.75-.95-1.72-.53-3.13-1.06-4.22-1.6-1.09-.53-2.03-1.32-2.81-2.36s-1.18-2.39-1.18-4.07c0-2.48.9-4.43,2.7-5.83,1.8-1.41,4.14-2.11,7.03-2.11s5.31.7,7.11,2.11c1.8,1.41,2.76,3.36,2.89,5.87h-7.03c-.05-.86-.37-1.54-.95-2.03-.58-.49-1.33-.74-2.24-.74-.79,0-1.42.21-1.9.63-.48.42-.72,1.02-.72,1.8,0,.86.41,1.53,1.22,2.01.81.48,2.08,1,3.8,1.56,1.72.58,3.12,1.14,4.2,1.67s2.01,1.3,2.79,2.32c.79,1.01,1.18,2.32,1.18,3.91s-.39,2.9-1.16,4.14c-.77,1.24-1.89,2.23-3.36,2.96-1.47.74-3.21,1.1-5.21,1.1s-3.7-.32-5.24-.95Z"/>
      <path d="m162.04,217.45c-2.09-1.16-3.75-2.79-4.98-4.88s-1.84-4.44-1.84-7.05.61-4.95,1.84-7.03c1.23-2.08,2.89-3.7,4.98-4.86s4.39-1.75,6.9-1.75,4.81.58,6.9,1.75,3.74,2.79,4.94,4.86c1.2,2.08,1.81,4.42,1.81,7.03s-.61,4.96-1.82,7.05-2.86,3.72-4.94,4.88c-2.08,1.17-4.37,1.75-6.88,1.75s-4.81-.58-6.9-1.75Zm12.01-6.31c1.28-1.42,1.92-3.29,1.92-5.62s-.64-4.24-1.92-5.64c-1.28-1.41-2.98-2.11-5.11-2.11s-3.87.7-5.15,2.09c-1.28,1.39-1.92,3.28-1.92,5.66s.64,4.24,1.92,5.64c1.28,1.41,3,2.11,5.15,2.11s3.83-.71,5.11-2.13Z"/>
      <path d="m192.69,213.92h8.51v5.02h-15.01v-26.68h6.5v21.66Z"/>
      <path d="m210.7,192.26v15.96c0,1.6.39,2.83,1.18,3.69.79.86,1.94,1.29,3.46,1.29s2.68-.43,3.5-1.29c.81-.86,1.22-2.09,1.22-3.69v-15.96h6.5v15.92c0,2.38-.51,4.4-1.52,6.04-1.01,1.65-2.38,2.89-4.08,3.72s-3.62,1.25-5.72,1.25-3.98-.41-5.64-1.23c-1.66-.82-2.97-2.06-3.93-3.72-.96-1.66-1.44-3.68-1.44-6.06v-15.92h6.5Z"/>
      <path d="m250.3,192.26v5.21h-7.07v21.47h-6.5v-21.47h-7.07v-5.21h20.63Z"/>
      <path d="m260.06,192.26v26.68h-6.5v-26.68h6.5Z"/>
      <path d="m270.49,217.45c-2.09-1.16-3.75-2.79-4.98-4.88s-1.84-4.44-1.84-7.05.61-4.95,1.84-7.03c1.23-2.08,2.89-3.7,4.98-4.86s4.39-1.75,6.9-1.75,4.81.58,6.9,1.75,3.74,2.79,4.94,4.86c1.2,2.08,1.81,4.42,1.81,7.03s-.61,4.96-1.82,7.05-2.86,3.72-4.94,4.88c-2.08,1.17-4.37,1.75-6.88,1.75s-4.81-.58-6.9-1.75Zm12.01-6.31c1.28-1.42,1.92-3.29,1.92-5.62s-.64-4.24-1.92-5.64c-1.28-1.41-2.98-2.11-5.11-2.11s-3.87.7-5.15,2.09c-1.28,1.39-1.92,3.28-1.92,5.66s.64,4.24,1.92,5.64c1.28,1.41,3,2.11,5.15,2.11s3.83-.71,5.11-2.13Z"/>
      <path d="m318.51,218.93h-6.5l-10.87-16.45v16.45h-6.5v-26.68h6.5l10.87,16.53v-16.53h6.5v26.68Z"/>
    </g>
  </g>
  <g>
    <path d="m164.74,357.88c0-6.52,1.69-12.47,5.07-17.85,3.38-5.37,8.52-9.66,15.4-12.86,6.88-3.2,15.34-4.8,25.37-4.8s18.45,1.6,25.27,4.8c6.82,3.2,11.93,7.49,15.31,12.86,3.38,5.38,5.07,11.32,5.07,17.85s-1.54,12.2-4.62,17.03c-3.08,4.83-7.22,8.64-12.41,11.41,6.52,3.14,11.53,7.46,15.04,12.95,3.5,5.5,5.25,11.93,5.25,19.3,0,8.58-2.17,15.97-6.52,22.19-4.35,6.22-10.24,10.96-17.66,14.22-7.43,3.26-15.67,4.89-24.73,4.89s-17.3-1.63-24.73-4.89c-7.43-3.26-13.32-8-17.67-14.22-4.35-6.22-6.52-13.62-6.52-22.19,0-7.49,1.75-13.98,5.25-19.48,3.5-5.5,8.45-9.75,14.86-12.77-11.35-6.04-17.03-15.52-17.03-28.45Zm32.07,46.47c-3.5,3.08-5.25,7.34-5.25,12.77,0,5.07,1.72,9.24,5.16,12.5s8.06,4.89,13.86,4.89,10.36-1.63,13.68-4.89c3.32-3.26,4.98-7.43,4.98-12.5s-1.72-9.54-5.16-12.68c-3.44-3.14-7.94-4.71-13.5-4.71s-10.27,1.54-13.77,4.62Zm25.09-53.27c-2.84-2.72-6.61-4.08-11.32-4.08s-8.49,1.39-11.32,4.17c-2.84,2.78-4.26,6.64-4.26,11.59s1.45,8.42,4.35,11.14c2.9,2.72,6.64,4.08,11.23,4.08s8.33-1.39,11.23-4.17c2.9-2.78,4.35-6.52,4.35-11.23,0-4.95-1.42-8.79-4.26-11.5Z" fill="#655cd6"/>
    <path d="m281.69,454c-3.44-3.2-5.16-7.16-5.16-11.87s1.72-8.88,5.16-12.14c3.44-3.26,7.88-4.89,13.32-4.89s9.69,1.63,13.14,4.89c3.44,3.26,5.16,7.31,5.16,12.14s-1.72,8.67-5.16,11.87c-3.44,3.2-7.82,4.8-13.14,4.8s-9.87-1.6-13.32-4.8Z" fill="#655cd6"/>
    <path d="m329.24,433.8v-25l57.25-81.89h34.6v80.08h14.86v26.81h-14.86v23.55h-30.98v-23.55h-60.88Zm63.05-72.83l-30.44,46.02h30.44v-46.02Z" fill="#655cd6"/>
  </g>
  <g>
    <path d="m101.4,523.36h-5.62l4.1-9.58h3.69l-2.17,9.58Zm7.68,0h-5.62l4.1-9.58h3.69l-2.17,9.58Z"/>
    <path d="m133.39,513.78v4.29h-7.07v22.23h-5.32v-22.23h-7.07v-4.29h19.46Z"/>
    <path d="m153.38,520c1.24.7,2.21,1.72,2.91,3.08.7,1.36,1.04,2.98,1.04,4.88v12.35h-5.32v-11.63c0-1.67-.42-2.96-1.25-3.86s-1.98-1.35-3.42-1.35-2.63.45-3.48,1.35-1.27,2.19-1.27,3.86v11.63h-5.32v-28.12h5.32v9.69c.68-.91,1.6-1.63,2.74-2.15,1.14-.52,2.41-.78,3.8-.78,1.6,0,3.01.35,4.26,1.04Z"/>
    <path d="m181.81,531.38h-15.39c.13,1.52.66,2.71,1.6,3.57.94.86,2.09,1.29,3.46,1.29,1.98,0,3.38-.85,4.22-2.54h5.74c-.61,2.03-1.77,3.69-3.5,5-1.72,1.31-3.84,1.96-6.35,1.96-2.03,0-3.84-.45-5.45-1.35-1.61-.9-2.86-2.17-3.76-3.82-.9-1.65-1.35-3.54-1.35-5.7s.44-4.09,1.33-5.74,2.13-2.91,3.72-3.8c1.6-.88,3.43-1.33,5.51-1.33s3.79.43,5.38,1.29c1.58.86,2.81,2.08,3.69,3.67.87,1.58,1.31,3.4,1.31,5.45,0,.76-.05,1.45-.15,2.05Zm-5.36-3.57c-.03-1.37-.52-2.46-1.48-3.29-.96-.82-2.14-1.23-3.53-1.23-1.32,0-2.43.4-3.33,1.2-.9.8-1.45,1.91-1.65,3.32h9.99Z"/>
    <path d="m195.35,520c1.18-2.06,2.79-3.67,4.83-4.83s4.33-1.73,6.86-1.73c2.96,0,5.56.76,7.79,2.28,2.23,1.52,3.79,3.62,4.67,6.31h-6.12c-.61-1.27-1.46-2.22-2.56-2.85-1.1-.63-2.38-.95-3.82-.95-1.55,0-2.92.36-4.12,1.08-1.2.72-2.14,1.74-2.81,3.06-.67,1.32-1.01,2.86-1.01,4.64s.34,3.29,1.01,4.62,1.61,2.36,2.81,3.08c1.2.72,2.58,1.08,4.12,1.08,1.44,0,2.72-.32,3.82-.97,1.1-.65,1.96-1.6,2.56-2.87h6.12c-.89,2.71-2.44,4.82-4.66,6.33-2.22,1.51-4.82,2.26-7.81,2.26-2.53,0-4.82-.58-6.86-1.73s-3.65-2.76-4.83-4.81c-1.18-2.05-1.77-4.38-1.77-6.99s.59-4.95,1.77-7.01Z"/>
    <path d="m232.06,519.9c1.1-.63,2.36-.95,3.78-.95v5.59h-1.41c-1.67,0-2.93.39-3.78,1.18s-1.27,2.15-1.27,4.1v10.49h-5.32v-21.05h5.32v3.27c.68-1.12,1.58-1.99,2.68-2.62Z"/>
    <path d="m259.55,519.26l-13.03,31.01h-5.66l4.56-10.49-8.44-20.52h5.97l5.43,14.71,5.51-14.71h5.66Z"/>
    <path d="m270.55,519.88c1.2-.65,2.58-.97,4.12-.97,1.8,0,3.43.44,4.88,1.33,1.46.89,2.61,2.15,3.46,3.78.85,1.63,1.27,3.53,1.27,5.68s-.42,4.06-1.27,5.72c-.85,1.66-2,2.95-3.46,3.86-1.46.91-3.08,1.37-4.88,1.37-1.55,0-2.91-.32-4.09-.95-1.18-.63-2.13-1.43-2.87-2.39v13.04h-5.32v-31.08h5.32v3.04c.68-.96,1.63-1.77,2.83-2.41Zm7.52,6.54c-.52-.92-1.2-1.63-2.05-2.11-.85-.48-1.77-.72-2.75-.72s-1.87.25-2.72.74c-.85.49-1.53,1.21-2.05,2.15-.52.94-.78,2.04-.78,3.31s.26,2.37.78,3.31,1.2,1.65,2.05,2.15c.85.49,1.75.74,2.72.74s1.91-.25,2.75-.76c.85-.51,1.53-1.23,2.05-2.17s.78-2.05.78-3.34-.26-2.36-.78-3.29Z"/>
    <path d="m294.36,523.62v10.18c0,.71.17,1.22.51,1.54.34.32.92.47,1.73.47h2.47v4.48h-3.34c-4.48,0-6.73-2.18-6.73-6.54v-10.15h-2.51v-4.37h2.51v-5.21h5.36v5.21h4.71v4.37h-4.71Z"/>
    <path d="m306.79,539.3c-1.62-.9-2.89-2.17-3.82-3.82-.92-1.65-1.39-3.54-1.39-5.7s.47-4.05,1.42-5.7,2.25-2.92,3.9-3.82c1.65-.9,3.48-1.35,5.51-1.35s3.86.45,5.51,1.35c1.65.9,2.95,2.17,3.9,3.82.95,1.65,1.42,3.55,1.42,5.7s-.49,4.05-1.46,5.7c-.98,1.65-2.29,2.92-3.95,3.82-1.66.9-3.51,1.35-5.57,1.35s-3.85-.45-5.47-1.35Zm8.19-3.99c.85-.47,1.53-1.17,2.03-2.11s.76-2.08.76-3.42c0-2-.53-3.54-1.58-4.62-1.05-1.08-2.34-1.62-3.86-1.62s-2.79.54-3.82,1.62c-1.03,1.08-1.54,2.62-1.54,4.62s.5,3.54,1.5,4.62c1,1.08,2.26,1.62,3.78,1.62.96,0,1.87-.23,2.72-.7Z"/>
    <path d="m339.62,539.72c-1.37-.62-2.45-1.46-3.25-2.53s-1.24-2.24-1.31-3.54h5.36c.1.81.5,1.48,1.2,2.02.7.53,1.56.8,2.6.8s1.81-.2,2.38-.61c.57-.4.86-.92.86-1.56,0-.68-.35-1.2-1.04-1.54-.7-.34-1.81-.71-3.33-1.12-1.57-.38-2.86-.77-3.86-1.18-1-.4-1.86-1.03-2.58-1.86-.72-.84-1.08-1.96-1.08-3.38,0-1.16.34-2.23,1.01-3.19.67-.96,1.63-1.72,2.89-2.28,1.25-.56,2.73-.84,4.43-.84,2.51,0,4.51.63,6,1.88s2.32,2.94,2.47,5.07h-5.09c-.08-.84-.42-1.5-1.04-1.99-.62-.49-1.45-.74-2.49-.74-.96,0-1.7.18-2.22.53-.52.35-.78.85-.78,1.48,0,.71.35,1.25,1.06,1.62.71.37,1.81.74,3.31,1.12,1.52.38,2.77.77,3.76,1.18.99.41,1.84,1.03,2.56,1.88.72.85,1.1,1.97,1.12,3.36,0,1.22-.34,2.31-1.01,3.27-.67.96-1.63,1.72-2.89,2.26s-2.72.82-4.39.82-3.27-.31-4.64-.93Z"/>
    <path d="m360.78,539.3c-1.62-.9-2.89-2.17-3.82-3.82-.92-1.65-1.39-3.54-1.39-5.7s.47-4.05,1.42-5.7,2.25-2.92,3.9-3.82c1.65-.9,3.48-1.35,5.51-1.35s3.86.45,5.51,1.35c1.65.9,2.95,2.17,3.9,3.82.95,1.65,1.42,3.55,1.42,5.7s-.49,4.05-1.46,5.7c-.98,1.65-2.29,2.92-3.95,3.82-1.66.9-3.51,1.35-5.57,1.35s-3.85-.45-5.47-1.35Zm8.19-3.99c.85-.47,1.53-1.17,2.03-2.11s.76-2.08.76-3.42c0-2-.53-3.54-1.58-4.62-1.05-1.08-2.34-1.62-3.86-1.62s-2.79.54-3.82,1.62c-1.03,1.08-1.54,2.62-1.54,4.62s.5,3.54,1.5,4.62c1,1.08,2.26,1.62,3.78,1.62.96,0,1.87-.23,2.72-.7Z"/>
    <path d="m390.8,523.62h-3.69v16.68h-5.4v-16.68h-2.39v-4.37h2.39v-1.06c0-2.58.73-4.48,2.2-5.7,1.47-1.21,3.69-1.79,6.65-1.71v4.48c-1.29-.03-2.19.19-2.7.64-.51.46-.76,1.28-.76,2.47v.88h3.69v4.37Z"/>
    <path d="m400.45,523.62v10.18c0,.71.17,1.22.51,1.54.34.32.92.47,1.73.47h2.47v4.48h-3.34c-4.48,0-6.73-2.18-6.73-6.54v-10.15h-2.51v-4.37h2.51v-5.21h5.36v5.21h4.71v4.37h-4.71Z"/>
    <path d="m438.19,519.26l-6.16,21.05h-5.74l-3.84-14.71-3.84,14.71h-5.78l-6.19-21.05h5.4l3.72,16.04,4.03-16.04h5.62l3.95,16,3.72-16h5.09Z"/>
    <path d="m440.98,524.04c.85-1.65,2-2.91,3.46-3.8,1.46-.88,3.08-1.33,4.88-1.33,1.57,0,2.95.32,4.12.95s2.12,1.43,2.83,2.39v-3h5.36v21.05h-5.36v-3.08c-.68.99-1.63,1.8-2.83,2.45-1.2.65-2.59.97-4.16.97-1.77,0-3.39-.46-4.84-1.37-1.46-.91-2.61-2.2-3.46-3.86-.85-1.66-1.27-3.56-1.27-5.72s.42-4.02,1.27-5.66Zm14.53,2.41c-.51-.93-1.19-1.63-2.05-2.13s-1.79-.74-2.77-.74-1.9.24-2.74.72c-.84.48-1.51,1.19-2.03,2.11-.52.93-.78,2.02-.78,3.29s.26,2.38.78,3.32c.52.95,1.2,1.68,2.05,2.19.85.51,1.75.76,2.72.76s1.91-.25,2.77-.74,1.54-1.2,2.05-2.13c.51-.92.76-2.03.76-3.32s-.25-2.4-.76-3.32Z"/>
    <path d="m474.84,519.9c1.1-.63,2.36-.95,3.78-.95v5.59h-1.41c-1.67,0-2.93.39-3.78,1.18s-1.27,2.15-1.27,4.1v10.49h-5.32v-21.05h5.32v3.27c.68-1.12,1.58-1.99,2.68-2.62Z"/>
    <path d="m501.61,531.38h-15.39c.13,1.52.66,2.71,1.6,3.57.94.86,2.09,1.29,3.46,1.29,1.98,0,3.38-.85,4.22-2.54h5.74c-.61,2.03-1.77,3.69-3.5,5-1.72,1.31-3.84,1.96-6.35,1.96-2.03,0-3.84-.45-5.45-1.35-1.61-.9-2.86-2.17-3.76-3.82-.9-1.65-1.35-3.54-1.35-5.7s.44-4.09,1.33-5.74,2.13-2.91,3.72-3.8c1.6-.88,3.43-1.33,5.51-1.33s3.79.43,5.38,1.29c1.58.86,2.81,2.08,3.69,3.67.87,1.58,1.31,3.4,1.31,5.45,0,.76-.05,1.45-.15,2.05Zm-5.36-3.57c-.03-1.37-.52-2.46-1.48-3.29-.96-.82-2.14-1.23-3.53-1.23-1.32,0-2.43.4-3.33,1.2-.9.8-1.45,1.91-1.65,3.32h9.99Z"/>
    <path d="m134.55,573.62h-3.69v16.68h-5.4v-16.68h-2.39v-4.37h2.39v-1.06c0-2.58.73-4.48,2.2-5.7,1.47-1.22,3.69-1.79,6.65-1.71v4.48c-1.29-.03-2.19.19-2.7.65s-.76,1.28-.76,2.47v.87h3.69v4.37Z"/>
    <path d="m141.89,589.3c-1.62-.9-2.89-2.17-3.82-3.82s-1.39-3.55-1.39-5.7.47-4.05,1.42-5.7,2.25-2.92,3.9-3.82c1.65-.9,3.48-1.35,5.51-1.35s3.86.45,5.51,1.35c1.65.9,2.95,2.17,3.9,3.82.95,1.65,1.42,3.55,1.42,5.7s-.49,4.05-1.46,5.7c-.98,1.65-2.29,2.92-3.95,3.82-1.66.9-3.51,1.35-5.57,1.35s-3.85-.45-5.47-1.35Zm8.19-3.99c.85-.47,1.53-1.17,2.03-2.11.51-.94.76-2.08.76-3.42,0-2-.53-3.54-1.58-4.62-1.05-1.08-2.34-1.62-3.86-1.62s-2.79.54-3.82,1.62c-1.03,1.08-1.54,2.62-1.54,4.62s.5,3.54,1.5,4.62c1,1.08,2.26,1.62,3.78,1.62.96,0,1.87-.23,2.72-.7Z"/>
    <path d="m170.25,569.9c1.1-.63,2.36-.95,3.78-.95v5.59h-1.41c-1.67,0-2.93.39-3.78,1.18s-1.27,2.15-1.27,4.1v10.49h-5.32v-21.05h5.32v3.27c.68-1.11,1.58-1.99,2.68-2.62Z"/>
    <path d="m191.97,568.08v6.65h8.93v4.22h-8.93v7.03h10.07v4.33h-15.39v-26.56h15.39v4.33h-10.07Z"/>
    <path d="m224.61,571.32c1.54,1.58,2.32,3.79,2.32,6.63v12.35h-5.32v-11.63c0-1.67-.42-2.96-1.25-3.86-.84-.9-1.98-1.35-3.42-1.35s-2.63.45-3.48,1.35c-.85.9-1.27,2.19-1.27,3.86v11.63h-5.32v-21.05h5.32v2.62c.71-.91,1.61-1.63,2.72-2.15,1.1-.52,2.31-.78,3.63-.78,2.51,0,4.53.79,6.08,2.38Z"/>
    <path d="m238.18,573.62v10.18c0,.71.17,1.22.51,1.54s.92.47,1.73.47h2.47v4.48h-3.34c-4.48,0-6.73-2.18-6.73-6.54v-10.14h-2.51v-4.37h2.51v-5.21h5.36v5.21h4.71v4.37h-4.71Z"/>
    <path d="m254.73,569.9c1.1-.63,2.36-.95,3.78-.95v5.59h-1.41c-1.67,0-2.93.39-3.78,1.18s-1.27,2.15-1.27,4.1v10.49h-5.32v-21.05h5.32v3.27c.68-1.11,1.58-1.99,2.68-2.62Z"/>
    <path d="m281.5,581.38h-15.39c.13,1.52.66,2.71,1.6,3.57.94.86,2.09,1.29,3.46,1.29,1.98,0,3.38-.85,4.22-2.55h5.74c-.61,2.03-1.77,3.69-3.5,5s-3.84,1.96-6.35,1.96c-2.03,0-3.84-.45-5.45-1.35-1.61-.9-2.86-2.17-3.76-3.82s-1.35-3.55-1.35-5.7.44-4.09,1.33-5.74,2.13-2.91,3.72-3.8c1.6-.89,3.43-1.33,5.51-1.33s3.79.43,5.38,1.29c1.58.86,2.81,2.08,3.69,3.67.87,1.58,1.31,3.4,1.31,5.45,0,.76-.05,1.44-.15,2.05Zm-5.36-3.57c-.03-1.37-.52-2.46-1.48-3.29-.96-.82-2.14-1.24-3.53-1.24-1.32,0-2.43.4-3.33,1.2-.9.8-1.45,1.91-1.65,3.33h9.99Z"/>
    <path d="m293.67,569.88c1.2-.65,2.58-.97,4.12-.97,1.8,0,3.43.44,4.88,1.33,1.46.89,2.61,2.15,3.46,3.78.85,1.63,1.27,3.53,1.27,5.68s-.42,4.06-1.27,5.72c-.85,1.66-2,2.94-3.46,3.86-1.46.91-3.08,1.37-4.88,1.37-1.55,0-2.91-.32-4.09-.95-1.18-.63-2.13-1.43-2.87-2.39v13.03h-5.32v-31.08h5.32v3.04c.68-.96,1.63-1.77,2.83-2.41Zm7.52,6.54c-.52-.93-1.2-1.63-2.05-2.11-.85-.48-1.77-.72-2.75-.72s-1.87.25-2.72.74c-.85.49-1.53,1.21-2.05,2.15s-.78,2.04-.78,3.3.26,2.37.78,3.31,1.2,1.65,2.05,2.15c.85.49,1.75.74,2.72.74s1.91-.25,2.75-.76c.85-.51,1.53-1.23,2.05-2.17s.78-2.05.78-3.34-.26-2.36-.78-3.29Z"/>
    <path d="m319.29,569.9c1.1-.63,2.36-.95,3.78-.95v5.59h-1.41c-1.67,0-2.93.39-3.78,1.18s-1.27,2.15-1.27,4.1v10.49h-5.32v-21.05h5.32v3.27c.68-1.11,1.58-1.99,2.68-2.62Z"/>
    <path d="m346.06,581.38h-15.39c.13,1.52.66,2.71,1.6,3.57.94.86,2.09,1.29,3.46,1.29,1.98,0,3.38-.85,4.22-2.55h5.74c-.61,2.03-1.77,3.69-3.5,5s-3.84,1.96-6.35,1.96c-2.03,0-3.84-.45-5.45-1.35-1.61-.9-2.86-2.17-3.76-3.82s-1.35-3.55-1.35-5.7.44-4.09,1.33-5.74,2.13-2.91,3.72-3.8c1.6-.89,3.43-1.33,5.51-1.33s3.79.43,5.38,1.29c1.58.86,2.81,2.08,3.69,3.67.87,1.58,1.31,3.4,1.31,5.45,0,.76-.05,1.44-.15,2.05Zm-5.36-3.57c-.03-1.37-.52-2.46-1.48-3.29-.96-.82-2.14-1.24-3.53-1.24-1.32,0-2.43.4-3.33,1.2-.9.8-1.45,1.91-1.65,3.33h9.99Z"/>
    <path d="m367.83,571.32c1.54,1.58,2.32,3.79,2.32,6.63v12.35h-5.32v-11.63c0-1.67-.42-2.96-1.25-3.86-.84-.9-1.98-1.35-3.42-1.35s-2.63.45-3.48,1.35c-.85.9-1.27,2.19-1.27,3.86v11.63h-5.32v-21.05h5.32v2.62c.71-.91,1.61-1.63,2.72-2.15,1.1-.52,2.31-.78,3.63-.78,2.51,0,4.53.79,6.08,2.38Z"/>
    <path d="m394.62,581.38h-15.39c.13,1.52.66,2.71,1.6,3.57.94.86,2.09,1.29,3.46,1.29,1.98,0,3.38-.85,4.22-2.55h5.74c-.61,2.03-1.77,3.69-3.5,5s-3.84,1.96-6.35,1.96c-2.03,0-3.84-.45-5.45-1.35-1.61-.9-2.86-2.17-3.76-3.82s-1.35-3.55-1.35-5.7.44-4.09,1.33-5.74,2.13-2.91,3.72-3.8c1.6-.89,3.43-1.33,5.51-1.33s3.79.43,5.38,1.29c1.58.86,2.81,2.08,3.69,3.67.87,1.58,1.31,3.4,1.31,5.45,0,.76-.05,1.44-.15,2.05Zm-5.36-3.57c-.03-1.37-.52-2.46-1.48-3.29-.96-.82-2.14-1.24-3.53-1.24-1.32,0-2.43.4-3.33,1.2-.9.8-1.45,1.91-1.65,3.33h9.99Z"/>
    <path d="m418.52,569.25v21.05h-5.36v-2.66c-.68.91-1.58,1.63-2.68,2.15s-2.3.78-3.59.78c-1.65,0-3.1-.35-4.37-1.04-1.27-.7-2.26-1.72-2.98-3.08-.72-1.36-1.08-2.97-1.08-4.85v-12.35h5.32v11.59c0,1.67.42,2.96,1.25,3.86.84.9,1.98,1.35,3.42,1.35s2.62-.45,3.46-1.35c.84-.9,1.25-2.19,1.25-3.86v-11.59h5.36Z"/>
    <path d="m431.76,569.9c1.1-.63,2.36-.95,3.78-.95v5.59h-1.41c-1.67,0-2.93.39-3.78,1.18s-1.27,2.15-1.27,4.1v10.49h-5.32v-21.05h5.32v3.27c.68-1.11,1.58-1.99,2.68-2.62Z"/>
    <path d="m442.54,589.72c-1.37-.62-2.45-1.46-3.25-2.53-.8-1.06-1.24-2.24-1.31-3.53h5.36c.1.81.5,1.48,1.2,2.01.7.53,1.56.8,2.6.8s1.81-.2,2.38-.61c.57-.4.86-.92.86-1.56,0-.69-.35-1.2-1.04-1.54-.7-.34-1.81-.72-3.33-1.12-1.57-.38-2.86-.77-3.86-1.18-1-.41-1.86-1.03-2.58-1.86-.72-.84-1.08-1.96-1.08-3.38,0-1.17.34-2.23,1.01-3.19.67-.96,1.63-1.72,2.89-2.28,1.25-.56,2.73-.84,4.43-.84,2.51,0,4.51.63,6,1.88s2.32,2.95,2.47,5.07h-5.09c-.08-.84-.42-1.5-1.04-1.99s-1.45-.74-2.49-.74c-.96,0-1.7.18-2.22.53-.52.36-.78.85-.78,1.48,0,.71.35,1.25,1.06,1.62.71.37,1.81.74,3.31,1.12,1.52.38,2.77.77,3.76,1.18.99.4,1.84,1.03,2.56,1.88.72.85,1.1,1.97,1.12,3.36,0,1.21-.34,2.3-1.01,3.27-.67.96-1.63,1.72-2.89,2.26-1.25.54-2.72.82-4.39.82s-3.27-.31-4.64-.93Z"/>
    <path d="m460.89,563.78h5.59l-4.1,9.58h-3.65l2.17-9.58Zm7.68,0h5.59l-4.1,9.58h-3.65l2.17-9.58Z"/>
  </g>
  <rect x="310.45" y="712.23" width="123" height="25" rx="10" ry="10" fill="#d7d7d7"/>
  <path d="m468.61,735.56c-2.68,0-5.01-.97-6.99-2.91l.99-.99c.92.9,1.85,1.55,2.79,1.95.94.4,2.01.6,3.21.6,1.08,0,2.03-.23,2.85-.69.82-.46,1.46-1.1,1.92-1.92.46-.84.69-1.81.69-2.91,0-1.52-.5-2.74-1.5-3.66-1-.94-2.31-1.41-3.93-1.41-.84,0-1.67.1-2.49.3-.8.18-1.64.5-2.52.96l-1.05-.36.48-10.29h11.46v1.35h-10.08l-.36,7.83c.84-.4,1.63-.68,2.37-.84.74-.18,1.53-.27,2.37-.27,1.36,0,2.55.27,3.57.81,1.02.52,1.81,1.26,2.37,2.22.58.94.87,2.04.87,3.3,0,1.38-.3,2.59-.9,3.63-.58,1.04-1.4,1.85-2.46,2.43-1.04.58-2.26.87-3.66.87Zm16.3-21.66c1.56,0,2.94.43,4.14,1.29,1.22.84,2.17,2.01,2.85,3.51.68,1.48,1.02,3.19,1.02,5.13,0,2.36-.39,4.42-1.17,6.18-.76,1.76-1.84,3.13-3.24,4.11-1.38.96-3,1.44-4.86,1.44-.8,0-1.59-.1-2.37-.3-.78-.2-1.5-.49-2.16-.87l.66-1.26c.62.32,1.28.58,1.98.78.7.2,1.37.3,2.01.3,1.54,0,2.86-.4,3.96-1.2,1.12-.8,1.99-1.95,2.61-3.45.62-1.5.95-3.29.99-5.37-.82,1-1.79,1.78-2.91,2.34-1.1.56-2.24.84-3.42.84-1.36,0-2.57-.28-3.63-.84-1.06-.58-1.89-1.37-2.49-2.37s-.9-2.13-.9-3.39c0-1.34.3-2.52.9-3.54.6-1.04,1.42-1.85,2.46-2.43,1.06-.6,2.25-.9,3.57-.9Zm.24,12.15c1.14,0,2.25-.3,3.33-.9,1.08-.6,2.02-1.42,2.82-2.46-.12-1.5-.46-2.8-1.02-3.9-.56-1.12-1.3-1.99-2.22-2.61-.92-.62-1.98-.93-3.18-.93-1.02,0-1.94.24-2.76.72-.8.48-1.43,1.13-1.89,1.95-.46.82-.69,1.75-.69,2.79s.24,1.94.72,2.76c.48.8,1.14,1.43,1.98,1.89.84.46,1.81.69,2.91.69Zm14.8-1.17c-1.28,0-2.32-.5-3.12-1.5-.8-1-1.2-2.3-1.2-3.9s.4-2.9,1.2-3.9c.8-1,1.84-1.5,3.12-1.5s2.32.5,3.12,1.5c.8,1,1.2,2.3,1.2,3.9s-.4,2.9-1.2,3.9c-.8,1-1.84,1.5-3.12,1.5Zm0-1.08c.94,0,1.69-.39,2.25-1.17.56-.78.84-1.83.84-3.15s-.28-2.37-.84-3.15c-.56-.78-1.31-1.17-2.25-1.17s-1.67.39-2.25,1.17c-.56.78-.84,1.83-.84,3.15s.28,2.37.84,3.15c.58.78,1.33,1.17,2.25,1.17Zm-.93,11.43l11.85-21h1.35l-11.85,21h-1.35Zm12.18.15c-1.28,0-2.32-.5-3.12-1.5-.8-1-1.2-2.3-1.2-3.9s.4-2.9,1.2-3.9c.8-1,1.84-1.5,3.12-1.5s2.32.5,3.12,1.5c.8,1,1.2,2.3,1.2,3.9s-.4,2.9-1.2,3.9c-.8,1-1.84,1.5-3.12,1.5Zm0-1.08c.94,0,1.69-.39,2.25-1.17.56-.78.84-1.83.84-3.15s-.28-2.37-.84-3.15c-.56-.78-1.31-1.17-2.25-1.17s-1.67.39-2.25,1.17c-.56.78-.84,1.83-.84,3.15s.28,2.37.84,3.15c.58.78,1.33,1.17,2.25,1.17Z" fill="#848484"/>
  <path d="m181.9,735.23v-21h8.25c1.34,0,2.49.25,3.45.75.98.5,1.73,1.2,2.25,2.1.54.9.81,1.96.81,3.18s-.27,2.26-.81,3.18c-.52.9-1.27,1.6-2.25,2.1-.96.5-2.11.75-3.45.75h-6.69v8.94h-1.56Zm1.56-10.35h6.6c1.6,0,2.84-.42,3.72-1.26.88-.84,1.32-1.96,1.32-3.36s-.44-2.52-1.32-3.36c-.88-.84-2.12-1.26-3.72-1.26h-6.6v9.24Zm16.89,10.35v-14.43h1.5v2.73c.38-.94.92-1.67,1.62-2.19.7-.52,1.51-.78,2.43-.78.22,0,.44.02.66.06.22.02.43.05.63.09v1.41c-.18-.06-.39-.1-.63-.12-.24-.04-.47-.06-.69-.06-.94,0-1.76.28-2.46.84-.68.54-1.2,1.33-1.56,2.37v10.08h-1.5Zm15.03.3c-1.3,0-2.47-.33-3.51-.99-1.04-.66-1.87-1.55-2.49-2.67-.6-1.14-.9-2.42-.9-3.84s.3-2.69.9-3.81c.62-1.12,1.45-2.01,2.49-2.67,1.04-.66,2.21-.99,3.51-.99s2.47.33,3.51.99c1.04.66,1.86,1.55,2.46,2.67.62,1.12.93,2.39.93,3.81s-.31,2.7-.93,3.84c-.6,1.12-1.42,2.01-2.46,2.67-1.04.66-2.21.99-3.51.99Zm0-1.38c1.04,0,1.96-.26,2.76-.78.82-.54,1.46-1.27,1.92-2.19.48-.94.72-1.99.72-3.15s-.24-2.2-.72-3.12c-.46-.92-1.1-1.64-1.92-2.16-.8-.54-1.72-.81-2.76-.81s-1.94.27-2.76.81c-.82.52-1.47,1.24-1.95,2.16-.46.92-.69,1.96-.69,3.12s.23,2.21.69,3.15c.48.92,1.13,1.65,1.95,2.19.82.52,1.74.78,2.76.78Zm10.93,1.08v-21.75l1.5-.36v9.69c.6-.76,1.3-1.31,2.1-1.65.82-.36,1.7-.54,2.64-.54,1.28,0,2.43.33,3.45.99,1.02.66,1.82,1.55,2.4,2.67.6,1.12.9,2.37.9,3.75s-.3,2.61-.9,3.75c-.58,1.12-1.38,2.02-2.4,2.7-1.02.66-2.19.99-3.51.99-.9,0-1.76-.17-2.58-.51-.8-.36-1.51-.9-2.13-1.62v1.89h-1.47Zm6-1.14c1.06,0,2-.26,2.82-.78.82-.52,1.47-1.23,1.95-2.13.48-.92.72-1.96.72-3.12s-.25-2.22-.75-3.12c-.48-.92-1.13-1.64-1.95-2.16-.82-.52-1.75-.78-2.79-.78-.96,0-1.83.2-2.61.6-.78.38-1.41.91-1.89,1.59v7.68c.48.68,1.11,1.22,1.89,1.62.8.4,1.67.6,2.61.6Zm11.02,1.14v-21.75l1.5-.36v22.11h-1.5Zm12.54.3c-1.32,0-2.51-.33-3.57-.99-1.06-.66-1.9-1.55-2.52-2.67-.62-1.14-.93-2.42-.93-3.84s.3-2.69.9-3.81c.6-1.12,1.4-2.01,2.4-2.67,1.02-.66,2.14-.99,3.36-.99s2.32.32,3.3.96c.98.62,1.76,1.47,2.34,2.55.58,1.08.87,2.3.87,3.66v.57h-11.67c.04,1.12.31,2.13.81,3.03.5.88,1.16,1.57,1.98,2.07.84.5,1.77.75,2.79.75.8,0,1.58-.14,2.34-.42.76-.3,1.4-.69,1.92-1.17l.9,1.11c-.8.62-1.63,1.09-2.49,1.41-.84.3-1.75.45-2.73.45Zm-5.46-8.46h10.08c-.08-.98-.35-1.85-.81-2.61-.46-.78-1.05-1.39-1.77-1.83-.72-.46-1.52-.69-2.4-.69s-1.65.22-2.37.66c-.72.44-1.32,1.05-1.8,1.83-.48.76-.79,1.64-.93,2.64Zm15.54,8.16v-14.43h1.5v2.19c.52-.78,1.13-1.38,1.83-1.8.72-.42,1.54-.63,2.46-.63,1.02,0,1.92.26,2.7.78.8.5,1.41,1.19,1.83,2.07.56-.94,1.24-1.65,2.04-2.13.82-.48,1.76-.72,2.82-.72,1,0,1.87.23,2.61.69.76.46,1.35,1.1,1.77,1.92.44.82.66,1.77.66,2.85v9.21h-1.5v-8.79c0-1.4-.35-2.51-1.05-3.33-.7-.82-1.67-1.23-2.91-1.23-.9,0-1.69.24-2.37.72-.68.46-1.24,1.1-1.68,1.92.04.24.07.49.09.75.04.24.06.49.06.75v9.21h-1.5v-8.79c0-1.4-.35-2.51-1.05-3.33-.7-.82-1.67-1.23-2.91-1.23-1.7,0-3,.8-3.9,2.4v10.95h-1.5Z" fill="#777"/>
  <rect x="310.45" y="765.23" width="93" height="24" rx="10" ry="10" fill="#7253ec"/>
  <path d="m434.96,788.23v-5.85h-11.34v-1.17l11.28-13.98h1.56v13.8h3.06v1.35h-3.06v5.85h-1.5Zm-9.42-7.2h9.42v-11.67l-9.42,11.67Zm17.11,7.2l10.74-19.65h-12.87v-1.35h14.61v1.17l-10.83,19.83h-1.65Zm18.48-10.35c-1.28,0-2.32-.5-3.12-1.5s-1.2-2.3-1.2-3.9.4-2.9,1.2-3.9,1.84-1.5,3.12-1.5,2.32.5,3.12,1.5c.8,1,1.2,2.3,1.2,3.9s-.4,2.9-1.2,3.9c-.8,1-1.84,1.5-3.12,1.5Zm0-1.08c.94,0,1.69-.39,2.25-1.17s.84-1.83.84-3.15-.28-2.37-.84-3.15c-.56-.78-1.31-1.17-2.25-1.17s-1.67.39-2.25,1.17c-.56.78-.84,1.83-.84,3.15s.28,2.37.84,3.15c.58.78,1.33,1.17,2.25,1.17Zm-.93,11.43l11.85-21h1.35l-11.85,21h-1.35Zm12.18.15c-1.28,0-2.32-.5-3.12-1.5s-1.2-2.3-1.2-3.9.4-2.9,1.2-3.9,1.84-1.5,3.12-1.5,2.32.5,3.12,1.5c.8,1,1.2,2.3,1.2,3.9s-.4,2.9-1.2,3.9c-.8,1-1.84,1.5-3.12,1.5Zm0-1.08c.94,0,1.69-.39,2.25-1.17s.84-1.83.84-3.15-.28-2.37-.84-3.15-1.31-1.17-2.25-1.17-1.67.39-2.25,1.17c-.56.78-.84,1.83-.84,3.15s.28,2.37.84,3.15c.58.78,1.33,1.17,2.25,1.17Z" fill="#848484"/>
  <path d="m146.16,788.23v-21h2.34l7.56,16.05,7.53-16.05h2.34v21h-1.47v-19.59l-8.4,18.09-8.43-18.09v19.59h-1.47Zm29.07.3c-1,0-1.9-.18-2.7-.54-.8-.38-1.43-.9-1.89-1.56-.46-.66-.69-1.44-.69-2.34s.23-1.67.69-2.31c.48-.64,1.12-1.13,1.92-1.47.82-.36,1.73-.54,2.73-.54.92,0,1.77.11,2.55.33.8.2,1.51.52,2.13.96v-2.25c0-1.34-.34-2.34-1.02-3-.68-.66-1.66-.99-2.94-.99-.7,0-1.41.11-2.13.33-.7.2-1.47.53-2.31.99l-.6-1.23c1.8-.9,3.5-1.35,5.1-1.35,1.7,0,3.02.42,3.96,1.26.94.84,1.41,2.08,1.41,3.72v9.69h-1.47v-1.77c-.62.66-1.33,1.17-2.13,1.53-.8.36-1.67.54-2.61.54Zm-3.81-4.47c0,.98.37,1.76,1.11,2.34.76.58,1.72.87,2.88.87.94,0,1.78-.17,2.52-.51.74-.34,1.42-.83,2.04-1.47v-3c-.64-.44-1.32-.76-2.04-.96-.72-.2-1.55-.3-2.49-.3-1.16,0-2.12.27-2.88.81-.76.54-1.14,1.28-1.14,2.22Zm14.66,4.17v-14.43h1.5v2.73c.38-.94.92-1.67,1.62-2.19.7-.52,1.51-.78,2.43-.78.22,0,.44.02.66.06.22.02.43.05.63.09v1.41c-.18-.06-.39-.1-.63-.12-.24-.04-.47-.06-.69-.06-.94,0-1.76.28-2.46.84-.68.54-1.2,1.33-1.56,2.37v10.08h-1.5Zm9.84,0v-21.75l1.5-.36v14.31l7.32-6.63h1.95l-7.8,6.96,8.13,7.47h-2.1l-7.5-7.02v7.02h-1.5Zm18.93.3c-1.32,0-2.51-.33-3.57-.99-1.06-.66-1.9-1.55-2.52-2.67-.62-1.14-.93-2.42-.93-3.84s.3-2.69.9-3.81c.6-1.12,1.4-2.01,2.4-2.67,1.02-.66,2.14-.99,3.36-.99s2.32.32,3.3.96c.98.62,1.76,1.47,2.34,2.55.58,1.08.87,2.3.87,3.66v.57h-11.67c.04,1.12.31,2.13.81,3.03.5.88,1.16,1.57,1.98,2.07.84.5,1.77.75,2.79.75.8,0,1.58-.14,2.34-.42.76-.3,1.4-.69,1.92-1.17l.9,1.11c-.8.62-1.63,1.09-2.49,1.41-.84.3-1.75.45-2.73.45Zm-5.46-8.46h10.08c-.08-.98-.35-1.85-.81-2.61-.46-.78-1.05-1.39-1.77-1.83-.72-.46-1.52-.69-2.4-.69s-1.65.22-2.37.66c-.72.44-1.32,1.05-1.8,1.83-.48.76-.79,1.64-.93,2.64Zm19.99,8.46c-1.12,0-1.97-.28-2.55-.84-.56-.58-.84-1.37-.84-2.37v-10.23h-3.03v-1.29h3.03v-3.93l1.5-.39v4.32h4.23v1.29h-4.23v9.75c0,.82.16,1.41.48,1.77.34.36.9.54,1.68.54.44,0,.8-.03,1.08-.09.3-.08.63-.19.99-.33v1.41c-.4.14-.79.24-1.17.3s-.77.09-1.17.09Zm16.95,0c-1.1,0-2.12-.2-3.06-.6-.94-.4-1.78-.94-2.52-1.62l.9-1.08c.82.68,1.58,1.18,2.28,1.5.72.32,1.51.48,2.37.48,1.18,0,2.15-.27,2.91-.81.78-.54,1.17-1.27,1.17-2.19,0-.64-.23-1.16-.69-1.56-.46-.42-1.21-.73-2.25-.93l-2.28-.39c-1.4-.24-2.42-.66-3.06-1.26-.64-.62-.96-1.42-.96-2.4,0-.82.22-1.54.66-2.16.44-.62,1.04-1.1,1.8-1.44.76-.34,1.62-.51,2.58-.51s1.86.15,2.7.45c.84.28,1.71.74,2.61,1.38l-.78,1.17c-.76-.54-1.52-.95-2.28-1.23-.74-.3-1.49-.45-2.25-.45-1.1,0-1.98.23-2.64.69-.64.46-.96,1.13-.96,2.01,0,.64.2,1.15.6,1.53.42.38,1.14.66,2.16.84l2.31.42c1.48.26,2.54.71,3.18,1.35.66.64.99,1.46.99,2.46,0,.84-.25,1.59-.75,2.25-.48.66-1.14,1.18-1.98,1.56-.82.36-1.74.54-2.76.54Zm8.93-.3v-14.43h1.5v14.43h-1.5Zm.75-18.24c-.38,0-.71-.13-.99-.39-.26-.28-.39-.61-.39-.99s.13-.7.39-.96c.28-.28.61-.42.99-.42s.7.14.96.42c.28.26.42.58.42.96s-.14.71-.42.99c-.26.26-.58.39-.96.39Zm4.35,18.24v-1.29l8.82-11.76h-8.73v-1.38h10.56v1.29l-8.82,11.76h8.88v1.38h-10.71Zm20.36.3c-1.32,0-2.51-.33-3.57-.99-1.06-.66-1.9-1.55-2.52-2.67-.62-1.14-.93-2.42-.93-3.84s.3-2.69.9-3.81c.6-1.12,1.4-2.01,2.4-2.67,1.02-.66,2.14-.99,3.36-.99s2.32.32,3.3.96c.98.62,1.76,1.47,2.34,2.55.58,1.08.87,2.3.87,3.66v.57h-11.67c.04,1.12.31,2.13.81,3.03.5.88,1.16,1.57,1.98,2.07.84.5,1.77.75,2.79.75.8,0,1.58-.14,2.34-.42.76-.3,1.4-.69,1.92-1.17l.9,1.11c-.8.62-1.63,1.09-2.49,1.41-.84.3-1.75.45-2.73.45Zm-5.46-8.46h10.08c-.08-.98-.35-1.85-.81-2.61-.46-.78-1.05-1.39-1.77-1.83-.72-.46-1.52-.69-2.4-.69s-1.65.22-2.37.66c-.72.44-1.32,1.05-1.8,1.83-.48.76-.79,1.64-.93,2.64Z" fill="#777"/>
  <rect x="310.45" y="817.23" width="57" height="25" rx="10" ry="10"/>
  <path d="m391.92,840.23v-19.23l-3.18,1.44v-1.5l3.78-1.71h.9v21h-1.5Zm13.26.33c-1.4,0-2.65-.25-3.75-.75-1.1-.52-1.97-1.23-2.61-2.13-.64-.9-.96-1.92-.96-3.06,0-.88.22-1.7.66-2.46s1.05-1.41,1.83-1.95c.78-.56,1.67-.96,2.67-1.2-1.28-.34-2.32-.94-3.12-1.8-.78-.88-1.17-1.89-1.17-3.03,0-1,.28-1.9.84-2.7.56-.8,1.32-1.43,2.28-1.89.98-.46,2.08-.69,3.3-.69s2.34.23,3.3.69c.98.46,1.75,1.09,2.31,1.89.56.8.84,1.7.84,2.7,0,1.14-.39,2.15-1.17,3.03-.78.86-1.81,1.46-3.09,1.8,1.54.36,2.77,1.05,3.69,2.07.94,1,1.41,2.18,1.41,3.54,0,1.14-.32,2.16-.96,3.06-.62.9-1.48,1.61-2.58,2.13-1.08.5-2.32.75-3.72.75Zm-.03-12.24c.96,0,1.81-.18,2.55-.54.76-.36,1.36-.84,1.8-1.44.44-.62.66-1.31.66-2.07s-.22-1.44-.66-2.04c-.44-.62-1.04-1.11-1.8-1.47-.74-.36-1.59-.54-2.55-.54s-1.79.18-2.55.54c-.74.36-1.33.85-1.77,1.47-.44.6-.66,1.28-.66,2.04s.22,1.45.66,2.07c.44.6,1.03,1.08,1.77,1.44.76.36,1.61.54,2.55.54Zm0,10.89c1.1,0,2.08-.2,2.94-.6.88-.42,1.58-.99,2.1-1.71.52-.72.78-1.52.78-2.4s-.26-1.7-.78-2.4c-.52-.72-1.22-1.28-2.1-1.68-.86-.42-1.84-.63-2.94-.63s-2.06.21-2.94.63c-.88.4-1.58.96-2.1,1.68-.52.7-.78,1.5-.78,2.4s.26,1.68.78,2.4c.52.72,1.22,1.29,2.1,1.71.88.4,1.86.6,2.94.6Zm14.32-9.33c-1.28,0-2.32-.5-3.12-1.5-.8-1-1.2-2.3-1.2-3.9s.4-2.9,1.2-3.9c.8-1,1.84-1.5,3.12-1.5s2.32.5,3.12,1.5c.8,1,1.2,2.3,1.2,3.9s-.4,2.9-1.2,3.9c-.8,1-1.84,1.5-3.12,1.5Zm0-1.08c.94,0,1.69-.39,2.25-1.17s.84-1.83.84-3.15-.28-2.37-.84-3.15-1.31-1.17-2.25-1.17-1.67.39-2.25,1.17c-.56.78-.84,1.83-.84,3.15s.28,2.37.84,3.15c.58.78,1.33,1.17,2.25,1.17Zm-.93,11.43l11.85-21h1.35l-11.85,21h-1.35Zm12.18.15c-1.28,0-2.32-.5-3.12-1.5-.8-1-1.2-2.3-1.2-3.9s.4-2.9,1.2-3.9c.8-1,1.84-1.5,3.12-1.5s2.32.5,3.12,1.5c.8,1,1.2,2.3,1.2,3.9s-.4,2.9-1.2,3.9c-.8,1-1.84,1.5-3.12,1.5Zm0-1.08c.94,0,1.69-.39,2.25-1.17.56-.78.84-1.83.84-3.15s-.28-2.37-.84-3.15-1.31-1.17-2.25-1.17-1.67.39-2.25,1.17c-.56.78-.84,1.83-.84,3.15s.28,2.37.84,3.15c.58.78,1.33,1.17,2.25,1.17Z" fill="#848484"/>
  <path d="m89.03,840.23v-21h7.98c1.3,0,2.4.22,3.3.66.92.44,1.62,1.05,2.1,1.83.5.78.75,1.7.75,2.76,0,1.22-.35,2.25-1.05,3.09-.7.84-1.7,1.41-3,1.71,1.58.26,2.79.84,3.63,1.74.86.9,1.29,2.03,1.29,3.39,0,1.14-.27,2.15-.81,3.03-.54.88-1.31,1.57-2.31,2.07-1,.48-2.2.72-3.6.72h-8.28Zm1.56-11.64h6.27c1.52,0,2.69-.36,3.51-1.08.84-.74,1.26-1.7,1.26-2.88s-.42-2.14-1.26-2.88c-.82-.74-1.96-1.11-3.42-1.11h-6.36v7.95Zm0,10.23h6.6c1.62,0,2.9-.41,3.84-1.23.96-.82,1.44-1.89,1.44-3.21s-.47-2.38-1.41-3.18c-.94-.82-2.26-1.23-3.96-1.23h-6.51v8.85Zm22.61,1.65c-1.06,0-1.99-.23-2.79-.69-.8-.46-1.43-1.1-1.89-1.92-.44-.82-.66-1.77-.66-2.85v-9.21h1.5v8.79c0,1.4.38,2.51,1.14,3.33.76.82,1.8,1.23,3.12,1.23.88,0,1.68-.21,2.4-.63.72-.42,1.31-1.05,1.77-1.89v-10.83h1.5v14.43h-1.5v-2.31c-.54.82-1.19,1.45-1.95,1.89s-1.64.66-2.64.66Zm14.91.06c-1.1,0-2.12-.2-3.06-.6-.94-.4-1.78-.94-2.52-1.62l.9-1.08c.82.68,1.58,1.18,2.28,1.5.72.32,1.51.48,2.37.48,1.18,0,2.15-.27,2.91-.81.78-.54,1.17-1.27,1.17-2.19,0-.64-.23-1.16-.69-1.56-.46-.42-1.21-.73-2.25-.93l-2.28-.39c-1.4-.24-2.42-.66-3.06-1.26-.64-.62-.96-1.42-.96-2.4,0-.82.22-1.54.66-2.16.44-.62,1.04-1.1,1.8-1.44.76-.34,1.62-.51,2.58-.51s1.86.15,2.7.45c.84.28,1.71.74,2.61,1.38l-.78,1.17c-.76-.54-1.52-.95-2.28-1.23-.74-.3-1.49-.45-2.25-.45-1.1,0-1.98.23-2.64.69-.64.46-.96,1.13-.96,2.01,0,.64.2,1.15.6,1.53.42.38,1.14.66,2.16.84l2.31.42c1.48.26,2.54.71,3.18,1.35.66.64.99,1.46.99,2.46,0,.84-.25,1.59-.75,2.25-.48.66-1.14,1.18-1.98,1.56-.82.36-1.74.54-2.76.54Zm8.93-.3v-14.43h1.5v14.43h-1.5Zm.75-18.24c-.38,0-.71-.13-.99-.39-.26-.28-.39-.61-.39-.99s.13-.7.39-.96c.28-.28.61-.42.99-.42s.7.14.96.42c.28.26.42.58.42.96s-.14.71-.42.99c-.26.26-.58.39-.96.39Zm5.43,18.24v-14.43h1.5v2.31c.54-.82,1.19-1.45,1.95-1.89.76-.44,1.64-.66,2.64-.66,1.06,0,1.99.23,2.79.69.8.46,1.42,1.1,1.86,1.92.46.82.69,1.77.69,2.85v9.21h-1.5v-8.79c0-1.4-.38-2.51-1.14-3.33-.76-.82-1.8-1.23-3.12-1.23-.86,0-1.66.21-2.4.63-.72.42-1.31,1.05-1.77,1.89v10.83h-1.5Zm22.41.3c-1.32,0-2.51-.33-3.57-.99-1.06-.66-1.9-1.55-2.52-2.67-.62-1.14-.93-2.42-.93-3.84s.3-2.69.9-3.81c.6-1.12,1.4-2.01,2.4-2.67,1.02-.66,2.14-.99,3.36-.99s2.32.32,3.3.96c.98.62,1.76,1.47,2.34,2.55.58,1.08.87,2.3.87,3.66v.57h-11.67c.04,1.12.31,2.13.81,3.03.5.88,1.16,1.57,1.98,2.07.84.5,1.77.75,2.79.75.8,0,1.58-.14,2.34-.42.76-.3,1.4-.69,1.92-1.17l.9,1.11c-.8.62-1.63,1.09-2.49,1.41-.84.3-1.75.45-2.73.45Zm-5.46-8.46h10.08c-.08-.98-.35-1.85-.81-2.61-.46-.78-1.05-1.39-1.77-1.83-.72-.46-1.52-.69-2.4-.69s-1.65.22-2.37.66c-.72.44-1.32,1.05-1.8,1.83-.48.76-.79,1.64-.93,2.64Zm19.82,8.46c-1.1,0-2.12-.2-3.06-.6-.94-.4-1.78-.94-2.52-1.62l.9-1.08c.82.68,1.58,1.18,2.28,1.5.72.32,1.51.48,2.37.48,1.18,0,2.15-.27,2.91-.81.78-.54,1.17-1.27,1.17-2.19,0-.64-.23-1.16-.69-1.56-.46-.42-1.21-.73-2.25-.93l-2.28-.39c-1.4-.24-2.42-.66-3.06-1.26-.64-.62-.96-1.42-.96-2.4,0-.82.22-1.54.66-2.16.44-.62,1.04-1.1,1.8-1.44.76-.34,1.62-.51,2.58-.51s1.86.15,2.7.45c.84.28,1.71.74,2.61,1.38l-.78,1.17c-.76-.54-1.52-.95-2.28-1.23-.74-.3-1.49-.45-2.25-.45-1.1,0-1.98.23-2.64.69-.64.46-.96,1.13-.96,2.01,0,.64.2,1.15.6,1.53.42.38,1.14.66,2.16.84l2.31.42c1.48.26,2.54.71,3.18,1.35.66.64.99,1.46.99,2.46,0,.84-.25,1.59-.75,2.25-.48.66-1.14,1.18-1.98,1.56-.82.36-1.74.54-2.76.54Zm13.07,0c-1.1,0-2.12-.2-3.06-.6-.94-.4-1.78-.94-2.52-1.62l.9-1.08c.82.68,1.58,1.18,2.28,1.5.72.32,1.51.48,2.37.48,1.18,0,2.15-.27,2.91-.81.78-.54,1.17-1.27,1.17-2.19,0-.64-.23-1.16-.69-1.56-.46-.42-1.21-.73-2.25-.93l-2.28-.39c-1.4-.24-2.42-.66-3.06-1.26-.64-.62-.96-1.42-.96-2.4,0-.82.22-1.54.66-2.16.44-.62,1.04-1.1,1.8-1.44.76-.34,1.62-.51,2.58-.51s1.86.15,2.7.45c.84.28,1.71.74,2.61,1.38l-.78,1.17c-.76-.54-1.52-.95-2.28-1.23-.74-.3-1.49-.45-2.25-.45-1.1,0-1.98.23-2.64.69-.64.46-.96,1.13-.96,2.01,0,.64.2,1.15.6,1.53.42.38,1.14.66,2.16.84l2.31.42c1.48.26,2.54.71,3.18,1.35.66.64.99,1.46.99,2.46,0,.84-.25,1.59-.75,2.25-.48.66-1.14,1.18-1.98,1.56-.82.36-1.74.54-2.76.54Zm16.07-.3v-14.43h1.5v2.19c.52-.78,1.13-1.38,1.83-1.8.72-.42,1.54-.63,2.46-.63,1.02,0,1.92.26,2.7.78.8.5,1.41,1.19,1.83,2.07.56-.94,1.24-1.65,2.04-2.13.82-.48,1.76-.72,2.82-.72,1,0,1.87.23,2.61.69.76.46,1.35,1.1,1.77,1.92.44.82.66,1.77.66,2.85v9.21h-1.5v-8.79c0-1.4-.35-2.51-1.05-3.33s-1.67-1.23-2.91-1.23c-.9,0-1.69.24-2.37.72-.68.46-1.24,1.1-1.68,1.92.04.24.07.49.09.75.04.24.06.49.06.75v9.21h-1.5v-8.79c0-1.4-.35-2.51-1.05-3.33s-1.67-1.23-2.91-1.23c-1.7,0-3,.8-3.9,2.4v10.95h-1.5Zm31.08.3c-1.3,0-2.47-.33-3.51-.99s-1.87-1.55-2.49-2.67c-.6-1.14-.9-2.42-.9-3.84s.3-2.69.9-3.81c.62-1.12,1.45-2.01,2.49-2.67,1.04-.66,2.21-.99,3.51-.99s2.47.33,3.51.99c1.04.66,1.86,1.55,2.46,2.67.62,1.12.93,2.39.93,3.81s-.31,2.7-.93,3.84c-.6,1.12-1.42,2.01-2.46,2.67-1.04.66-2.21.99-3.51.99Zm0-1.38c1.04,0,1.96-.26,2.76-.78.82-.54,1.46-1.27,1.92-2.19.48-.94.72-1.99.72-3.15s-.24-2.2-.72-3.12c-.46-.92-1.1-1.64-1.92-2.16-.8-.54-1.72-.81-2.76-.81s-1.94.27-2.76.81c-.82.52-1.47,1.24-1.95,2.16-.46.92-.69,1.96-.69,3.12s.23,2.21.69,3.15c.48.92,1.13,1.65,1.95,2.19.82.52,1.74.78,2.76.78Zm17.02,1.32c-1.28,0-2.43-.33-3.45-.99-1.02-.66-1.83-1.55-2.43-2.67-.58-1.12-.87-2.37-.87-3.75s.29-2.63.87-3.75c.6-1.12,1.41-2.01,2.43-2.67,1.04-.68,2.21-1.02,3.51-1.02.88,0,1.72.18,2.52.54.82.34,1.54.86,2.16,1.56v-9.24l1.5-.36v22.11h-1.5v-1.95c-.6.74-1.31,1.29-2.13,1.65-.8.36-1.67.54-2.61.54Zm.24-1.38c.96,0,1.83-.19,2.61-.57.78-.4,1.41-.94,1.89-1.62v-7.68c-.48-.68-1.12-1.22-1.92-1.62-.78-.4-1.64-.6-2.58-.6-1.04,0-1.98.26-2.82.78-.82.52-1.47,1.24-1.95,2.16-.48.9-.72,1.93-.72,3.09s.24,2.2.72,3.12c.5.92,1.16,1.64,1.98,2.16.84.52,1.77.78,2.79.78Zm17.05,1.44c-1.32,0-2.51-.33-3.57-.99s-1.9-1.55-2.52-2.67c-.62-1.14-.93-2.42-.93-3.84s.3-2.69.9-3.81c.6-1.12,1.4-2.01,2.4-2.67,1.02-.66,2.14-.99,3.36-.99s2.32.32,3.3.96c.98.62,1.76,1.47,2.34,2.55.58,1.08.87,2.3.87,3.66v.57h-11.67c.04,1.12.31,2.13.81,3.03.5.88,1.16,1.57,1.98,2.07.84.5,1.77.75,2.79.75.8,0,1.58-.14,2.34-.42.76-.3,1.4-.69,1.92-1.17l.9,1.11c-.8.62-1.63,1.09-2.49,1.41-.84.3-1.75.45-2.73.45Zm-5.46-8.46h10.08c-.08-.98-.35-1.85-.81-2.61-.46-.78-1.05-1.39-1.77-1.83-.72-.46-1.52-.69-2.4-.69s-1.65.22-2.37.66c-.72.44-1.32,1.05-1.8,1.83-.48.76-.79,1.64-.93,2.64Zm15.54,8.16v-21.75l1.5-.36v22.11h-1.5Z" fill="#777"/>
</svg>