<?xml version="1.0" encoding="UTF-8"?>
<svg id="Layer_2" data-name="Layer 2" xmlns="http://www.w3.org/2000/svg" viewBox="0 0 327 395">
  <rect x="5.78" y="4.61" width="319" height="387" rx="19" ry="19" fill="#fff"/>
  <rect x="29.78" y="226.61" width="272" height="1" fill="#cfcfcf"/>
  <path d="m147.12,187.85c-1.88-1-2.82-2.57-2.82-4.71,0-1.08.28-2.06.84-2.94.56-.9,1.41-1.61,2.55-2.13,1.14-.54,2.54-.81,4.2-.81s3.05.27,4.17.81c1.14.52,1.99,1.23,2.55,2.13.56.88.84,1.86.84,2.94s-.26,2.02-.78,2.82c-.5.8-1.18,1.43-2.04,1.89,1.08.52,1.91,1.24,2.49,2.16.58.9.87,1.96.87,3.18,0,1.42-.36,2.65-1.08,3.69-.72,1.02-1.7,1.8-2.94,2.34-1.22.54-2.58.81-4.08.81s-2.87-.27-4.11-.81c-1.22-.54-2.19-1.32-2.91-2.34-.72-1.04-1.08-2.27-1.08-3.69,0-1.24.29-2.31.87-3.21.58-.92,1.4-1.63,2.46-2.13Zm7.35-3.93c0-.82-.24-1.45-.72-1.89-.46-.46-1.08-.69-1.86-.69s-1.41.23-1.89.69c-.46.46-.69,1.1-.69,1.92s.24,1.4.72,1.86c.48.44,1.1.66,1.86.66s1.38-.23,1.86-.69c.48-.46.72-1.08.72-1.86Zm-2.58,6.15c-.94,0-1.7.26-2.28.78-.58.5-.87,1.2-.87,2.1,0,.84.28,1.53.84,2.07.58.54,1.35.81,2.31.81s1.71-.27,2.25-.81c.56-.54.84-1.23.84-2.07s-.29-1.58-.87-2.1c-.56-.52-1.3-.78-2.22-.78Zm13.99,9.78c-.9,0-1.64-.26-2.22-.78-.56-.54-.84-1.2-.84-1.98s.28-1.47.84-2.01c.58-.54,1.32-.81,2.22-.81s1.6.27,2.16.81c.58.54.87,1.21.87,2.01s-.29,1.44-.87,1.98c-.56.52-1.28.78-2.16.78Zm5.68-4.14v-4.14l9.48-13.56h5.73v13.26h2.46v4.44h-2.46v3.9h-5.13v-3.9h-10.08Zm10.44-12.06l-5.04,7.62h5.04v-7.62Z" fill="#5248bd"/>
  <path d="m287.78,50.34c-.79,0-1.56-.32-2.12-.88l-7.07-7.07c-.63-.63-1.13-1.37-1.47-2.19-.34-.82-.52-1.69-.52-2.59,0-.89.17-1.76.51-2.59.34-.83.84-1.57,1.47-2.2.63-.63,1.37-1.12,2.2-1.47.83-.34,1.69-.55,2.59-.51.89,0,1.77.18,2.59.52.68.28,1.29.67,1.84,1.15,1.22-1.03,2.75-1.59,4.36-1.59h.04c1.79.01,3.47.71,4.73,1.98,1.26,1.26,1.97,2.94,1.98,4.73.01,1.79-.67,3.47-1.92,4.75,0,0,0,0,0,0l-7.07,7.07c-.56.56-1.33.88-2.12.88Zm-4.44-18.49c-.75,0-1.49.15-2.19.43-.7.29-1.33.71-1.87,1.25s-.96,1.17-1.25,1.87c-.29.7-.44,1.45-.44,2.21,0,.76.15,1.5.45,2.2.29.7.72,1.33,1.26,1.87l7.07,7.07c.74.74,2.08.74,2.83,0l7.07-7.07c1.06-1.09,1.64-2.53,1.63-4.05,0-1.52-.61-2.95-1.68-4.03-1.08-1.08-2.51-1.67-4.03-1.68-1.5-.02-2.96.57-4.05,1.63-.2.19-.51.19-.7,0-.54-.54-1.16-.96-1.87-1.26-.7-.29-1.44-.44-2.21-.44h-.01Zm13.28,10.19h0,0Z" fill="#ff32b9"/>
  <path d="m88.47,345.72c-.74,0-1.39-.13-1.95-.38-.55-.26-.99-.61-1.31-1.07-.32-.46-.49-.97-.51-1.54h1.18c.05.54.29,1.02.72,1.44.43.4,1.05.61,1.87.61.76,0,1.35-.19,1.79-.58.45-.4.67-.89.67-1.49,0-.48-.12-.86-.37-1.15-.25-.3-.55-.52-.91-.66-.36-.15-.86-.31-1.5-.48-.75-.2-1.34-.4-1.78-.59-.44-.19-.81-.49-1.12-.9-.31-.4-.46-.96-.46-1.65,0-.58.15-1.09.45-1.54.3-.46.72-.82,1.26-1.07.54-.26,1.17-.38,1.87-.38,1.03,0,1.87.26,2.5.77.64.5,1.01,1.15,1.1,1.95h-1.22c-.07-.46-.33-.86-.75-1.22-.43-.36-1-.54-1.73-.54-.67,0-1.23.18-1.68.54-.45.35-.67.84-.67,1.46,0,.47.12.85.37,1.14.25.29.55.51.91.66.37.15.87.31,1.5.48.73.2,1.31.4,1.76.61.45.19.83.49,1.14.9.31.4.46.95.46,1.63,0,.52-.14,1.02-.42,1.49-.28.47-.69.85-1.23,1.14s-1.19.43-1.95.43Zm9.59.02c-.82,0-1.56-.18-2.22-.54-.65-.37-1.17-.9-1.55-1.57-.37-.68-.56-1.48-.56-2.38s.19-1.7.58-2.37c.38-.68.91-1.21,1.57-1.57.66-.37,1.4-.56,2.22-.56s1.56.19,2.22.56c.67.36,1.19.88,1.57,1.57.38.67.58,1.46.58,2.37s-.19,1.68-.58,2.37c-.38.68-.91,1.21-1.58,1.58-.67.36-1.42.54-2.24.54Zm0-.98c.58,0,1.11-.13,1.6-.38.49-.27.89-.66,1.18-1.18.31-.53.46-1.18.46-1.95s-.15-1.41-.45-1.94c-.3-.53-.69-.93-1.18-1.18-.49-.27-1.02-.4-1.6-.4s-1.11.13-1.6.4c-.49.26-.89.65-1.18,1.18-.29.52-.43,1.17-.43,1.94s.14,1.42.43,1.95c.3.52.69.92,1.17,1.18.49.26,1.02.38,1.6.38Zm7.56-10.99v11.84h-1.12v-11.84h1.12Zm10.1,3.1v8.74h-1.12v-1.54c-.26.54-.65.96-1.18,1.25-.53.29-1.13.43-1.79.43-1.05,0-1.9-.32-2.56-.96-.66-.65-.99-1.59-.99-2.82v-5.1h1.1v4.98c0,.95.23,1.68.7,2.18.48.5,1.13.75,1.95.75s1.51-.27,2.02-.8c.5-.53.75-1.32.75-2.35v-4.75h1.12Zm4.01.94v5.42c0,.53.1.9.3,1.1.2.2.56.3,1.07.3h1.02v.96h-1.2c-.79,0-1.38-.18-1.76-.54-.38-.37-.58-.98-.58-1.82v-5.42h-1.22v-.94h1.22v-2.19h1.14v2.19h2.4v.94h-2.4Zm4.81-2.59c-.22,0-.42-.08-.58-.24-.16-.16-.24-.36-.24-.59s.08-.43.24-.58c.16-.16.35-.24.58-.24s.42.08.58.24c.16.15.24.34.24.58s-.08.43-.24.59c-.16.16-.35.24-.58.24Zm.56,1.65v8.74h-1.12v-8.74h1.12Zm6.36,8.86c-.82,0-1.56-.18-2.22-.54-.65-.37-1.17-.9-1.55-1.57-.37-.68-.56-1.48-.56-2.38s.19-1.7.58-2.37c.38-.68.91-1.21,1.57-1.57.66-.37,1.4-.56,2.22-.56s1.56.19,2.22.56c.67.36,1.2.88,1.57,1.57.38.67.58,1.46.58,2.37s-.19,1.68-.58,2.37c-.38.68-.91,1.21-1.58,1.58-.67.36-1.42.54-2.24.54Zm0-.98c.58,0,1.11-.13,1.6-.38.49-.27.89-.66,1.18-1.18.31-.53.46-1.18.46-1.95s-.15-1.41-.45-1.94c-.3-.53-.69-.93-1.18-1.18-.49-.27-1.02-.4-1.6-.4s-1.11.13-1.6.4c-.49.26-.89.65-1.18,1.18-.29.52-.43,1.17-.43,1.94s.14,1.42.43,1.95c.3.52.69.92,1.17,1.18.49.26,1.02.38,1.6.38Zm10.54-8.05c1.04,0,1.9.32,2.56.98.66.64.99,1.57.99,2.8v5.12h-1.1v-4.99c0-.95-.24-1.67-.72-2.18-.47-.5-1.11-.75-1.94-.75s-1.51.27-2.02.8c-.5.53-.75,1.32-.75,2.35v4.77h-1.12v-8.74h1.12v1.49c.28-.53.68-.94,1.2-1.22.52-.29,1.11-.43,1.78-.43Z"/>
  <path d="m166.85,334.85c-.24.31-.51.79-.9,1.49l-.2.36-.04.06c-.18.33-.33.6-.58.79-.25.19-.55.26-.91.34l-.07.02-.38.09c-.76.17-1.28.29-1.63.43-.35.14-.42.25-.45.34-.03.09-.03.24.18.57.21.33.56.75,1.08,1.35l.26.31.05.05c.24.29.45.52.54.82.09.3.06.61.02.99v.07s-.05.41-.05.41c-.08.8-.13,1.36-.11,1.76.02.4.1.51.17.56.06.05.17.1.53,0,.36-.1.85-.33,1.56-.65l.36-.17.07-.03c.33-.15.62-.29.93-.29s.6.13.93.28c.02.01.04.02.07.03l.36.17c.71.33,1.2.55,1.56.65.36.1.47.05.53,0,.07-.05.15-.16.17-.56.02-.4-.04-.95-.11-1.76l-.04-.41v-.07c-.04-.38-.07-.69.02-.99.09-.3.3-.54.54-.82l.05-.05.26-.31c.52-.6.87-1.02,1.08-1.35.21-.33.21-.47.18-.57-.03-.09-.1-.2-.45-.34-.35-.14-.87-.26-1.63-.43l-.38-.09s-.05-.01-.07-.02c-.35-.08-.66-.15-.91-.34-.25-.19-.4-.46-.58-.79l-.04-.06-.2-.36c-.39-.7-.66-1.18-.9-1.49-.24-.31-.36-.34-.43-.34s-.19.03-.43.34Zm-.72-.55c.29-.38.64-.69,1.15-.69s.86.32,1.15.69c.28.37.58.91.95,1.57l.22.39c.24.43.3.52.37.57.07.06.17.09.63.19l.42.1c.71.16,1.3.29,1.72.46.44.17.83.43.98.91.15.47-.02.91-.28,1.32-.25.4-.65.86-1.13,1.43l-.29.33c-.31.37-.38.45-.41.55-.03.1-.03.22.02.7l.04.45c.07.76.13,1.38.11,1.85-.02.48-.13.94-.53,1.24-.4.31-.87.27-1.33.14-.44-.12-.99-.38-1.65-.68l-.4-.18c-.43-.2-.53-.23-.61-.23s-.18.03-.61.23l-.4.18c-.67.31-1.21.56-1.65.68-.45.13-.92.17-1.33-.14-.4-.3-.51-.76-.53-1.24-.02-.47.04-1.09.11-1.85l.04-.45c.05-.49.05-.6.02-.7-.03-.1-.1-.19-.41-.55l-.29-.33c-.49-.57-.88-1.03-1.13-1.43-.26-.41-.42-.84-.28-1.32.15-.48.54-.74.98-.91.43-.17,1.01-.3,1.72-.46h.04s.38-.1.38-.1c.46-.1.56-.14.63-.19.08-.06.14-.15.38-.57l.22-.39c.37-.66.67-1.2.95-1.57h0Z" fill="#5248bd" fill-rule="evenodd"/>
  <path d="m185.85,334.85c-.24.31-.51.79-.9,1.49l-.2.36-.04.06c-.18.33-.33.6-.58.79-.25.19-.55.26-.91.34l-.07.02-.38.09c-.76.17-1.28.29-1.63.43-.35.14-.42.25-.45.34-.03.09-.03.24.18.57.21.33.56.75,1.08,1.35l.26.31.05.05c.24.29.45.52.54.82.09.3.06.61.02.99v.07s-.05.41-.05.41c-.08.8-.13,1.36-.11,1.76.02.4.1.51.17.56.06.05.17.1.53,0,.36-.1.85-.33,1.56-.65l.36-.17.07-.03c.33-.15.62-.29.93-.29s.6.13.93.28c.02.01.04.02.07.03l.36.17c.71.33,1.2.55,1.56.65.36.1.47.05.53,0,.07-.05.15-.16.17-.56.02-.4-.04-.95-.11-1.76l-.04-.41v-.07c-.04-.38-.07-.69.02-.99.09-.3.3-.54.54-.82l.05-.05.26-.31c.52-.6.87-1.02,1.08-1.35.21-.33.21-.47.18-.57-.03-.09-.1-.2-.45-.34-.35-.14-.87-.26-1.63-.43l-.38-.09s-.05-.01-.07-.02c-.35-.08-.66-.15-.91-.34-.25-.19-.4-.46-.58-.79l-.04-.06-.2-.36c-.39-.7-.66-1.18-.9-1.49-.24-.31-.36-.34-.43-.34s-.19.03-.43.34Zm-.72-.55c.29-.38.64-.69,1.15-.69s.86.32,1.15.69c.28.37.58.91.95,1.57l.22.39c.24.43.3.52.37.57.07.06.17.09.63.19l.42.1c.71.16,1.3.29,1.72.46.44.17.83.43.98.91.15.47-.02.91-.28,1.32-.25.4-.65.86-1.13,1.43l-.29.33c-.31.37-.38.45-.41.55-.03.1-.03.22.02.7l.04.45c.07.76.13,1.38.11,1.85-.02.48-.13.94-.53,1.24-.4.31-.87.27-1.33.14-.44-.12-.99-.38-1.65-.68l-.4-.18c-.43-.2-.53-.23-.61-.23s-.18.03-.61.23l-.4.18c-.67.31-1.21.56-1.65.68-.45.13-.92.17-1.33-.14-.4-.3-.51-.76-.53-1.24-.02-.47.04-1.09.11-1.85l.04-.45c.05-.49.05-.6.02-.7-.03-.1-.1-.19-.41-.55l-.29-.33c-.49-.57-.88-1.03-1.13-1.43-.26-.41-.42-.84-.28-1.32.15-.48.54-.74.98-.91.43-.17,1.01-.3,1.72-.46h.04s.38-.1.38-.1c.46-.1.56-.14.63-.19.08-.06.14-.15.38-.57l.22-.39c.37-.66.67-1.2.95-1.57h0Z" fill="#5248bd" fill-rule="evenodd"/>
  <path d="m204.85,334.85c-.24.31-.51.79-.9,1.49l-.2.36-.04.06c-.18.33-.33.6-.58.79-.25.19-.55.26-.91.34l-.07.02-.38.09c-.76.17-1.28.29-1.63.43-.35.14-.42.25-.45.34-.03.09-.03.24.18.57.21.33.56.75,1.08,1.35l.26.31.05.05c.24.29.45.52.54.82.09.3.06.61.02.99v.07s-.05.41-.05.41c-.08.8-.13,1.36-.11,1.76.02.4.1.51.17.56.06.05.17.1.53,0,.36-.1.85-.33,1.56-.65l.36-.17.07-.03c.33-.15.62-.29.93-.29s.6.13.93.28c.02.01.04.02.07.03l.36.17c.71.33,1.2.55,1.56.65.36.1.47.05.53,0,.07-.05.15-.16.17-.56.02-.4-.04-.95-.11-1.76l-.04-.41v-.07c-.04-.38-.07-.69.02-.99.09-.3.3-.54.54-.82l.05-.05.26-.31c.52-.6.87-1.02,1.08-1.35.21-.33.21-.47.18-.57-.03-.09-.1-.2-.45-.34-.35-.14-.87-.26-1.63-.43l-.38-.09s-.05-.01-.07-.02c-.35-.08-.66-.15-.91-.34-.25-.19-.4-.46-.58-.79l-.04-.06-.2-.36c-.39-.7-.66-1.18-.9-1.49-.24-.31-.36-.34-.43-.34s-.19.03-.43.34Zm-.72-.55c.29-.38.64-.69,1.15-.69s.86.32,1.15.69c.28.37.58.91.95,1.57l.22.39c.24.43.3.52.37.57.07.06.17.09.63.19l.42.1c.71.16,1.3.29,1.72.46.44.17.83.43.98.91.15.47-.02.91-.28,1.32-.25.4-.65.86-1.13,1.43l-.29.33c-.31.37-.38.45-.41.55-.03.1-.03.22.02.7l.04.45c.07.76.13,1.38.11,1.85-.02.48-.13.94-.53,1.24-.4.31-.87.27-1.33.14-.44-.12-.99-.38-1.65-.68l-.4-.18c-.43-.2-.53-.23-.61-.23s-.18.03-.61.23l-.4.18c-.67.31-1.21.56-1.65.68-.45.13-.92.17-1.33-.14-.4-.3-.51-.76-.53-1.24-.02-.47.04-1.09.11-1.85l.04-.45c.05-.49.05-.6.02-.7-.03-.1-.1-.19-.41-.55l-.29-.33c-.49-.57-.88-1.03-1.13-1.43-.26-.41-.42-.84-.28-1.32.15-.48.54-.74.98-.91.43-.17,1.01-.3,1.72-.46h.04s.38-.1.38-.1c.46-.1.56-.14.63-.19.08-.06.14-.15.38-.57l.22-.39c.37-.66.67-1.2.95-1.57h0Z" fill="#5248bd" fill-rule="evenodd"/>
  <path d="m223.85,334.85c-.24.31-.51.79-.9,1.49l-.2.36-.04.06c-.18.33-.33.6-.58.79-.25.19-.55.26-.91.34l-.07.02-.38.09c-.76.17-1.28.29-1.63.43-.35.14-.42.25-.45.34-.03.09-.03.24.18.57.21.33.56.75,1.08,1.35l.26.31.05.05c.24.29.45.52.54.82.09.3.06.61.02.99v.07s-.05.41-.05.41c-.08.8-.13,1.36-.11,1.76.02.4.1.51.17.56.06.05.17.1.53,0,.36-.1.85-.33,1.56-.65l.36-.17.07-.03c.33-.15.62-.29.93-.29s.6.13.93.28c.02.01.04.02.07.03l.36.17c.71.33,1.2.55,1.56.65.36.1.47.05.53,0,.07-.05.15-.16.17-.56.02-.4-.04-.95-.11-1.76l-.04-.41v-.07c-.04-.38-.07-.69.02-.99.09-.3.3-.54.54-.82l.05-.05.26-.31c.52-.6.87-1.02,1.08-1.35.21-.33.21-.47.18-.57-.03-.09-.1-.2-.45-.34-.35-.14-.87-.26-1.63-.43l-.38-.09s-.05-.01-.07-.02c-.35-.08-.66-.15-.91-.34-.25-.19-.4-.46-.58-.79l-.04-.06-.2-.36c-.39-.7-.66-1.18-.9-1.49-.24-.31-.36-.34-.43-.34s-.19.03-.43.34Zm-.72-.55c.29-.38.64-.69,1.15-.69s.86.32,1.15.69c.28.37.58.91.95,1.57l.22.39c.24.43.3.52.37.57.07.06.17.09.63.19l.42.1c.71.16,1.3.29,1.72.46.44.17.83.43.98.91.15.47-.02.91-.28,1.32-.25.4-.65.86-1.13,1.43l-.29.33c-.31.37-.38.45-.41.55-.03.1-.03.22.02.7l.04.45c.07.76.13,1.38.11,1.85-.02.48-.13.94-.53,1.24-.4.31-.87.27-1.33.14-.44-.12-.99-.38-1.65-.68l-.4-.18c-.43-.2-.53-.23-.61-.23s-.18.03-.61.23l-.4.18c-.67.31-1.21.56-1.65.68-.45.13-.92.17-1.33-.14-.4-.3-.51-.76-.53-1.24-.02-.47.04-1.09.11-1.85l.04-.45c.05-.49.05-.6.02-.7-.03-.1-.1-.19-.41-.55l-.29-.33c-.49-.57-.88-1.03-1.13-1.43-.26-.41-.42-.84-.28-1.32.15-.48.54-.74.98-.91.43-.17,1.01-.3,1.72-.46h.04s.38-.1.38-.1c.46-.1.56-.14.63-.19.08-.06.14-.15.38-.57l.22-.39c.37-.66.67-1.2.95-1.57h0Z" fill="#5248bd" fill-rule="evenodd"/>
  <path d="m242.85,334.85c-.24.31-.51.79-.9,1.49l-.2.36-.04.06c-.18.33-.33.6-.58.79-.25.19-.55.26-.91.34l-.07.02-.38.09c-.76.17-1.28.29-1.63.43-.35.14-.42.25-.45.34-.03.09-.03.24.18.57.21.33.56.75,1.08,1.35l.26.31.05.05c.24.29.45.52.54.82.09.3.06.61.02.99v.07s-.05.41-.05.41c-.08.8-.13,1.36-.11,1.76.02.4.1.51.17.56.06.05.17.1.53,0,.36-.1.85-.33,1.56-.65l.36-.17.07-.03c.33-.15.62-.29.93-.29s.6.13.93.28c.02.01.04.02.07.03l.36.17c.71.33,1.2.55,1.56.65.36.1.47.05.53,0,.07-.05.15-.16.17-.56.02-.4-.04-.95-.11-1.76l-.04-.41v-.07c-.04-.38-.07-.69.02-.99.09-.3.3-.54.54-.82l.05-.05.26-.31c.52-.6.87-1.02,1.08-1.35.21-.33.21-.47.18-.57-.03-.09-.1-.2-.45-.34-.35-.14-.87-.26-1.63-.43l-.38-.09s-.05-.01-.07-.02c-.35-.08-.66-.15-.91-.34-.25-.19-.4-.46-.58-.79l-.04-.06-.2-.36c-.39-.7-.66-1.18-.9-1.49-.24-.31-.36-.34-.43-.34s-.19.03-.43.34Zm-.72-.55c.29-.38.64-.69,1.15-.69s.86.32,1.15.69c.28.37.58.91.95,1.57l.22.39c.24.43.3.52.37.57.07.06.17.09.63.19l.42.1c.71.16,1.3.29,1.72.46.44.17.83.43.98.91.15.47-.02.91-.28,1.32-.25.4-.65.86-1.13,1.43l-.29.33c-.31.37-.38.45-.41.55-.03.1-.03.22.02.7l.04.45c.07.76.13,1.38.11,1.85-.02.48-.13.94-.53,1.24-.4.31-.87.27-1.33.14-.44-.12-.99-.38-1.65-.68l-.4-.18c-.43-.2-.53-.23-.61-.23s-.18.03-.61.23l-.4.18c-.67.31-1.21.56-1.65.68-.45.13-.92.17-1.33-.14-.4-.3-.51-.76-.53-1.24-.02-.47.04-1.09.11-1.85l.04-.45c.05-.49.05-.6.02-.7-.03-.1-.1-.19-.41-.55l-.29-.33c-.49-.57-.88-1.03-1.13-1.43-.26-.41-.42-.84-.28-1.32.15-.48.54-.74.98-.91.43-.17,1.01-.3,1.72-.46h.04s.38-.1.38-.1c.46-.1.56-.14.63-.19.08-.06.14-.15.38-.57l.22-.39c.37-.66.67-1.2.95-1.57h0Z" fill="#5248bd" fill-rule="evenodd"/>
  <path d="m62.08,301.42v.93h-3.1v10.26h-1.12v-10.26h-3.12v-.93h7.34Zm9.67,6.37c0,.38-.01.68-.03.88h-7.25c.03.66.19,1.23.48,1.7.29.47.67.83,1.14,1.07.47.23.98.35,1.54.35.73,0,1.33-.18,1.82-.53.5-.35.83-.83.99-1.42h1.18c-.21.85-.67,1.55-1.38,2.1-.69.53-1.57.8-2.62.8-.82,0-1.56-.18-2.21-.54-.65-.37-1.16-.9-1.54-1.57-.36-.68-.54-1.48-.54-2.38s.18-1.7.54-2.38c.36-.68.87-1.2,1.52-1.57.65-.36,1.39-.54,2.22-.54s1.56.18,2.18.54c.63.36,1.11.85,1.44,1.47.34.61.51,1.29.51,2.03Zm-1.14-.03c.01-.65-.12-1.21-.4-1.66-.27-.46-.63-.8-1.1-1.04-.47-.23-.98-.35-1.54-.35-.83,0-1.54.27-2.13.8-.59.53-.91,1.29-.98,2.26h6.14Zm2.67.48c0-.91.18-1.7.54-2.37.36-.68.86-1.21,1.5-1.57.64-.37,1.37-.56,2.19-.56,1.08,0,1.96.27,2.66.8.7.53,1.16,1.26,1.36,2.18h-1.2c-.15-.63-.47-1.12-.98-1.47-.49-.36-1.1-.54-1.84-.54-.59,0-1.11.13-1.58.4-.47.27-.84.67-1.12,1.2-.27.52-.4,1.17-.4,1.94s.13,1.42.4,1.95c.28.53.65.93,1.12,1.2.47.27,1,.4,1.58.4.74,0,1.35-.18,1.84-.53.5-.36.83-.86.98-1.5h1.2c-.2.9-.66,1.62-1.36,2.16-.7.54-1.59.82-2.66.82-.82,0-1.55-.18-2.19-.54-.64-.37-1.14-.9-1.5-1.57-.36-.68-.54-1.48-.54-2.38Zm14.48-4.53c.66,0,1.25.14,1.78.42.53.28.95.7,1.25,1.28.31.57.46,1.26.46,2.08v5.12h-1.1v-4.99c0-.95-.24-1.67-.72-2.18-.47-.5-1.11-.75-1.94-.75s-1.51.27-2.02.8c-.5.53-.75,1.32-.75,2.35v4.77h-1.12v-11.84h1.12v4.59c.28-.52.68-.93,1.22-1.22.54-.29,1.15-.43,1.82-.43Zm10.06,0c1.05,0,1.9.32,2.56.98.66.64.99,1.57.99,2.8v5.12h-1.1v-4.99c0-.95-.24-1.67-.72-2.18-.47-.5-1.11-.75-1.94-.75s-1.51.27-2.02.8c-.5.53-.75,1.32-.75,2.35v4.77h-1.12v-8.74h1.12v1.49c.28-.53.68-.94,1.2-1.22.52-.29,1.11-.43,1.78-.43Zm9.85,9.02c-.82,0-1.56-.18-2.22-.54-.65-.37-1.17-.9-1.55-1.57-.37-.68-.56-1.48-.56-2.38s.19-1.7.58-2.37c.38-.68.91-1.21,1.57-1.57.66-.37,1.4-.56,2.22-.56s1.56.19,2.22.56c.67.36,1.19.88,1.57,1.57.38.67.58,1.46.58,2.37s-.19,1.68-.58,2.37c-.38.68-.91,1.21-1.58,1.58-.67.36-1.42.54-2.24.54Zm0-.98c.58,0,1.11-.13,1.6-.38.49-.27.89-.66,1.18-1.18.31-.53.46-1.18.46-1.95s-.15-1.41-.45-1.94c-.3-.53-.69-.93-1.18-1.18-.49-.27-1.02-.4-1.6-.4s-1.11.13-1.6.4c-.49.26-.89.65-1.18,1.18-.29.52-.43,1.17-.43,1.94s.14,1.42.43,1.95c.3.52.69.92,1.17,1.18.49.26,1.02.38,1.6.38Zm7.56-10.99v11.84h-1.12v-11.84h1.12Zm6.36,11.97c-.82,0-1.56-.18-2.22-.54-.65-.37-1.17-.9-1.55-1.57-.37-.68-.56-1.48-.56-2.38s.19-1.7.58-2.37c.38-.68.91-1.21,1.57-1.57.66-.37,1.4-.56,2.22-.56s1.56.19,2.22.56c.67.36,1.19.88,1.57,1.57.38.67.58,1.46.58,2.37s-.19,1.68-.58,2.37c-.38.68-.91,1.21-1.58,1.58-.67.36-1.42.54-2.24.54Zm0-.98c.58,0,1.11-.13,1.6-.38.49-.27.89-.66,1.18-1.18.31-.53.46-1.18.46-1.95s-.15-1.41-.45-1.94c-.3-.53-.69-.93-1.18-1.18-.49-.27-1.02-.4-1.6-.4s-1.11.13-1.6.4c-.49.26-.88.65-1.18,1.18-.29.52-.43,1.17-.43,1.94s.14,1.42.43,1.95c.3.52.69.92,1.17,1.18.49.26,1.02.38,1.6.38Zm10.11-8.02c.82,0,1.54.19,2.14.58s1.04.87,1.31,1.46v-1.9h1.12v8.96c0,.8-.18,1.51-.53,2.13-.34.62-.82,1.09-1.44,1.42-.62.34-1.32.51-2.11.51-1.12,0-2.05-.27-2.8-.8-.74-.53-1.19-1.26-1.38-2.18h1.1c.19.61.56,1.09,1.09,1.46.54.36,1.21.54,1.98.54.57,0,1.07-.12,1.52-.37.45-.23.8-.59,1.06-1.06.26-.47.38-1.02.38-1.66v-2.16c-.28.6-.72,1.09-1.33,1.49-.6.38-1.31.58-2.13.58s-1.52-.19-2.16-.56c-.63-.37-1.12-.9-1.49-1.58-.35-.68-.53-1.47-.53-2.37s.18-1.68.53-2.35c.36-.68.86-1.21,1.49-1.57.64-.37,1.36-.56,2.16-.56Zm3.46,4.5c0-.7-.14-1.32-.43-1.86-.29-.53-.68-.94-1.18-1.23-.49-.29-1.03-.43-1.63-.43s-1.17.14-1.66.42c-.49.28-.88.68-1.17,1.22-.28.52-.42,1.15-.42,1.87s.14,1.34.42,1.89c.29.53.68.94,1.17,1.23.49.28,1.04.42,1.66.42s1.14-.14,1.63-.43c.5-.29.9-.7,1.18-1.23.29-.53.43-1.15.43-1.86Zm10.88-4.37l-5.18,12.85h-1.17l1.7-4.16-3.58-8.69h1.23l2.98,7.46,2.88-7.46h1.15Z"/>
  <path d="m166.85,301.85c-.24.31-.51.79-.9,1.49l-.2.36-.04.06c-.18.33-.33.6-.58.79-.25.19-.55.26-.91.34l-.07.02-.38.09c-.76.17-1.28.29-1.63.43-.35.14-.42.25-.45.34-.03.09-.03.24.18.57.21.33.56.75,1.08,1.35l.26.31.05.05c.24.29.45.52.54.82.09.3.06.61.02.99v.07s-.05.41-.05.41c-.08.8-.13,1.36-.11,1.76.02.4.1.51.17.56.06.05.17.1.53,0,.36-.1.85-.33,1.56-.65l.36-.17.07-.03c.33-.15.62-.29.93-.29s.6.13.93.28c.02.01.04.02.07.03l.36.17c.71.33,1.2.55,1.56.65.36.1.47.05.53,0,.07-.05.15-.16.17-.56.02-.4-.04-.95-.11-1.76l-.04-.41v-.07c-.04-.38-.07-.69.02-.99.09-.3.3-.54.54-.82l.05-.05.26-.31c.52-.6.87-1.02,1.08-1.35.21-.33.21-.47.18-.57-.03-.09-.1-.2-.45-.34-.35-.14-.87-.26-1.63-.43l-.38-.09s-.05-.01-.07-.02c-.35-.08-.66-.15-.91-.34-.25-.19-.4-.46-.58-.79l-.04-.06-.2-.36c-.39-.7-.66-1.18-.9-1.49-.24-.31-.36-.34-.43-.34s-.19.03-.43.34Zm-.72-.55c.29-.38.64-.69,1.15-.69s.86.32,1.15.69c.28.37.58.91.95,1.57l.22.39c.24.43.3.52.37.57.07.06.17.09.63.19l.42.1c.71.16,1.3.29,1.72.46.44.17.83.43.98.91.15.47-.02.91-.28,1.32-.25.4-.65.86-1.13,1.43l-.29.33c-.31.37-.38.45-.41.55-.03.1-.03.22.02.7l.04.45c.07.76.13,1.38.11,1.85-.02.48-.13.94-.53,1.24-.4.31-.87.27-1.33.14-.44-.12-.99-.38-1.65-.68l-.4-.18c-.43-.2-.53-.23-.61-.23s-.18.03-.61.23l-.4.18c-.67.31-1.21.56-1.65.68-.45.13-.92.17-1.33-.14-.4-.3-.51-.76-.53-1.24-.02-.47.04-1.09.11-1.85l.04-.45c.05-.49.05-.6.02-.7-.03-.1-.1-.19-.41-.55l-.29-.33c-.49-.57-.88-1.03-1.13-1.43-.26-.41-.42-.84-.28-1.32.15-.48.54-.74.98-.91.43-.17,1.01-.3,1.72-.46h.04s.38-.1.38-.1c.46-.1.56-.14.63-.19.08-.06.14-.15.38-.57l.22-.39c.37-.66.67-1.2.95-1.57h0Z" fill="#5248bd" fill-rule="evenodd"/>
  <path d="m185.85,301.85c-.24.31-.51.79-.9,1.49l-.2.36-.04.06c-.18.33-.33.6-.58.79-.25.19-.55.26-.91.34l-.07.02-.38.09c-.76.17-1.28.29-1.63.43-.35.14-.42.25-.45.34-.03.09-.03.24.18.57.21.33.56.75,1.08,1.35l.26.31.05.05c.24.29.45.52.54.82.09.3.06.61.02.99v.07s-.05.41-.05.41c-.08.8-.13,1.36-.11,1.76.02.4.1.51.17.56.06.05.17.1.53,0,.36-.1.85-.33,1.56-.65l.36-.17.07-.03c.33-.15.62-.29.93-.29s.6.13.93.28c.02.01.04.02.07.03l.36.17c.71.33,1.2.55,1.56.65.36.1.47.05.53,0,.07-.05.15-.16.17-.56.02-.4-.04-.95-.11-1.76l-.04-.41v-.07c-.04-.38-.07-.69.02-.99.09-.3.3-.54.54-.82l.05-.05.26-.31c.52-.6.87-1.02,1.08-1.35.21-.33.21-.47.18-.57-.03-.09-.1-.2-.45-.34-.35-.14-.87-.26-1.63-.43l-.38-.09s-.05-.01-.07-.02c-.35-.08-.66-.15-.91-.34-.25-.19-.4-.46-.58-.79l-.04-.06-.2-.36c-.39-.7-.66-1.18-.9-1.49-.24-.31-.36-.34-.43-.34s-.19.03-.43.34Zm-.72-.55c.29-.38.64-.69,1.15-.69s.86.32,1.15.69c.28.37.58.91.95,1.57l.22.39c.24.43.3.52.37.57.07.06.17.09.63.19l.42.1c.71.16,1.3.29,1.72.46.44.17.83.43.98.91.15.47-.02.91-.28,1.32-.25.4-.65.86-1.13,1.43l-.29.33c-.31.37-.38.45-.41.55-.03.1-.03.22.02.7l.04.45c.07.76.13,1.38.11,1.85-.02.48-.13.94-.53,1.24-.4.31-.87.27-1.33.14-.44-.12-.99-.38-1.65-.68l-.4-.18c-.43-.2-.53-.23-.61-.23s-.18.03-.61.23l-.4.18c-.67.31-1.21.56-1.65.68-.45.13-.92.17-1.33-.14-.4-.3-.51-.76-.53-1.24-.02-.47.04-1.09.11-1.85l.04-.45c.05-.49.05-.6.02-.7-.03-.1-.1-.19-.41-.55l-.29-.33c-.49-.57-.88-1.03-1.13-1.43-.26-.41-.42-.84-.28-1.32.15-.48.54-.74.98-.91.43-.17,1.01-.3,1.72-.46h.04s.38-.1.38-.1c.46-.1.56-.14.63-.19.08-.06.14-.15.38-.57l.22-.39c.37-.66.67-1.2.95-1.57h0Z" fill="#5248bd" fill-rule="evenodd"/>
  <path d="m204.85,301.85c-.24.31-.51.79-.9,1.49l-.2.36-.04.06c-.18.33-.33.6-.58.79-.25.19-.55.26-.91.34l-.07.02-.38.09c-.76.17-1.28.29-1.63.43-.35.14-.42.25-.45.34-.03.09-.03.24.18.57.21.33.56.75,1.08,1.35l.26.31.05.05c.24.29.45.52.54.82.09.3.06.61.02.99v.07s-.05.41-.05.41c-.08.8-.13,1.36-.11,1.76.02.4.1.51.17.56.06.05.17.1.53,0,.36-.1.85-.33,1.56-.65l.36-.17.07-.03c.33-.15.62-.29.93-.29s.6.13.93.28c.02.01.04.02.07.03l.36.17c.71.33,1.2.55,1.56.65.36.1.47.05.53,0,.07-.05.15-.16.17-.56.02-.4-.04-.95-.11-1.76l-.04-.41v-.07c-.04-.38-.07-.69.02-.99.09-.3.3-.54.54-.82l.05-.05.26-.31c.52-.6.87-1.02,1.08-1.35.21-.33.21-.47.18-.57-.03-.09-.1-.2-.45-.34-.35-.14-.87-.26-1.63-.43l-.38-.09s-.05-.01-.07-.02c-.35-.08-.66-.15-.91-.34-.25-.19-.4-.46-.58-.79l-.04-.06-.2-.36c-.39-.7-.66-1.18-.9-1.49-.24-.31-.36-.34-.43-.34s-.19.03-.43.34Zm-.72-.55c.29-.38.64-.69,1.15-.69s.86.32,1.15.69c.28.37.58.91.95,1.57l.22.39c.24.43.3.52.37.57.07.06.17.09.63.19l.42.1c.71.16,1.3.29,1.72.46.44.17.83.43.98.91.15.47-.02.91-.28,1.32-.25.4-.65.86-1.13,1.43l-.29.33c-.31.37-.38.45-.41.55-.03.1-.03.22.02.7l.04.45c.07.76.13,1.38.11,1.85-.02.48-.13.94-.53,1.24-.4.31-.87.27-1.33.14-.44-.12-.99-.38-1.65-.68l-.4-.18c-.43-.2-.53-.23-.61-.23s-.18.03-.61.23l-.4.18c-.67.31-1.21.56-1.65.68-.45.13-.92.17-1.33-.14-.4-.3-.51-.76-.53-1.24-.02-.47.04-1.09.11-1.85l.04-.45c.05-.49.05-.6.02-.7-.03-.1-.1-.19-.41-.55l-.29-.33c-.49-.57-.88-1.03-1.13-1.43-.26-.41-.42-.84-.28-1.32.15-.48.54-.74.98-.91.43-.17,1.01-.3,1.72-.46h.04s.38-.1.38-.1c.46-.1.56-.14.63-.19.08-.06.14-.15.38-.57l.22-.39c.37-.66.67-1.2.95-1.57h0Z" fill="#5248bd" fill-rule="evenodd"/>
  <g opacity=".15">
    <path d="m223.85,301.85c-.24.31-.51.79-.9,1.49l-.2.36-.04.06c-.18.33-.33.6-.58.79-.25.19-.55.26-.91.34l-.07.02-.38.09c-.76.17-1.28.29-1.63.43-.35.14-.42.25-.45.34-.03.09-.03.24.18.57.21.33.56.75,1.08,1.35l.26.31.05.05c.24.29.45.52.54.82.09.3.06.61.02.99v.07s-.05.41-.05.41c-.08.8-.13,1.36-.11,1.76.02.4.1.51.17.56.06.05.17.1.53,0,.36-.1.85-.33,1.56-.65l.36-.17.07-.03c.33-.15.62-.29.93-.29s.6.13.93.28c.02.01.04.02.07.03l.36.17c.71.33,1.2.55,1.56.65.36.1.47.05.53,0,.07-.05.15-.16.17-.56.02-.4-.04-.95-.11-1.76l-.04-.41v-.07c-.04-.38-.07-.69.02-.99.09-.3.3-.54.54-.82l.05-.05.26-.31c.52-.6.87-1.02,1.08-1.35.21-.33.21-.47.18-.57-.03-.09-.1-.2-.45-.34-.35-.14-.87-.26-1.63-.43l-.38-.09s-.05-.01-.07-.02c-.35-.08-.66-.15-.91-.34-.25-.19-.4-.46-.58-.79l-.04-.06-.2-.36c-.39-.7-.66-1.18-.9-1.49-.24-.31-.36-.34-.43-.34s-.19.03-.43.34Zm-.72-.55c.29-.38.64-.69,1.15-.69s.86.32,1.15.69c.28.37.58.91.95,1.57l.22.39c.24.43.3.52.37.57.07.06.17.09.63.19l.42.1c.71.16,1.3.29,1.72.46.44.17.83.43.98.91.15.47-.02.91-.28,1.32-.25.4-.65.86-1.13,1.43l-.29.33c-.31.37-.38.45-.41.55-.03.1-.03.22.02.7l.04.45c.07.76.13,1.38.11,1.85-.02.48-.13.94-.53,1.24-.4.31-.87.27-1.33.14-.44-.12-.99-.38-1.65-.68l-.4-.18c-.43-.2-.53-.23-.61-.23s-.18.03-.61.23l-.4.18c-.67.31-1.21.56-1.65.68-.45.13-.92.17-1.33-.14-.4-.3-.51-.76-.53-1.24-.02-.47.04-1.09.11-1.85l.04-.45c.05-.49.05-.6.02-.7-.03-.1-.1-.19-.41-.55l-.29-.33c-.49-.57-.88-1.03-1.13-1.43-.26-.41-.42-.84-.28-1.32.15-.48.54-.74.98-.91.43-.17,1.01-.3,1.72-.46h.04s.38-.1.38-.1c.46-.1.56-.14.63-.19.08-.06.14-.15.38-.57l.22-.39c.37-.66.67-1.2.95-1.57h0Z" fill-rule="evenodd"/>
  </g>
  <g opacity=".15">
    <path d="m242.85,301.85c-.24.31-.51.79-.9,1.49l-.2.36-.04.06c-.18.33-.33.6-.58.79-.25.19-.55.26-.91.34l-.07.02-.38.09c-.76.17-1.28.29-1.63.43-.35.14-.42.25-.45.34-.03.09-.03.24.18.57.21.33.56.75,1.08,1.35l.26.31.05.05c.24.29.45.52.54.82.09.3.06.61.02.99v.07s-.05.41-.05.41c-.08.8-.13,1.36-.11,1.76.02.4.1.51.17.56.06.05.17.1.53,0,.36-.1.85-.33,1.56-.65l.36-.17.07-.03c.33-.15.62-.29.93-.29s.6.13.93.28c.02.01.04.02.07.03l.36.17c.71.33,1.2.55,1.56.65.36.1.47.05.53,0,.07-.05.15-.16.17-.56.02-.4-.04-.95-.11-1.76l-.04-.41v-.07c-.04-.38-.07-.69.02-.99.09-.3.3-.54.54-.82l.05-.05.26-.31c.52-.6.87-1.02,1.08-1.35.21-.33.21-.47.18-.57-.03-.09-.1-.2-.45-.34-.35-.14-.87-.26-1.63-.43l-.38-.09s-.05-.01-.07-.02c-.35-.08-.66-.15-.91-.34-.25-.19-.4-.46-.58-.79l-.04-.06-.2-.36c-.39-.7-.66-1.18-.9-1.49-.24-.31-.36-.34-.43-.34s-.19.03-.43.34Zm-.72-.55c.29-.38.64-.69,1.15-.69s.86.32,1.15.69c.28.37.58.91.95,1.57l.22.39c.24.43.3.52.37.57.07.06.17.09.63.19l.42.1c.71.16,1.3.29,1.72.46.44.17.83.43.98.91.15.47-.02.91-.28,1.32-.25.4-.65.86-1.13,1.43l-.29.33c-.31.37-.38.45-.41.55-.03.1-.03.22.02.7l.04.45c.07.76.13,1.38.11,1.85-.02.48-.13.94-.53,1.24-.4.31-.87.27-1.33.14-.44-.12-.99-.38-1.65-.68l-.4-.18c-.43-.2-.53-.23-.61-.23s-.18.03-.61.23l-.4.18c-.67.31-1.21.56-1.65.68-.45.13-.92.17-1.33-.14-.4-.3-.51-.76-.53-1.24-.02-.47.04-1.09.11-1.85l.04-.45c.05-.49.05-.6.02-.7-.03-.1-.1-.19-.41-.55l-.29-.33c-.49-.57-.88-1.03-1.13-1.43-.26-.41-.42-.84-.28-1.32.15-.48.54-.74.98-.91.43-.17,1.01-.3,1.72-.46h.04s.38-.1.38-.1c.46-.1.56-.14.63-.19.08-.06.14-.15.38-.57l.22-.39c.37-.66.67-1.2.95-1.57h0Z" fill-rule="evenodd"/>
  </g>
  <path d="m108.89,268.42v.93h-3.1v10.26h-1.12v-10.26h-3.12v-.93h7.34Zm9.67,6.37c0,.38-.01.68-.03.88h-7.25c.03.66.19,1.23.48,1.7.29.47.67.83,1.14,1.07.47.23.98.35,1.54.35.73,0,1.33-.18,1.82-.53.5-.35.83-.83.99-1.42h1.18c-.21.85-.67,1.55-1.38,2.1-.69.53-1.57.8-2.62.8-.82,0-1.56-.18-2.21-.54-.65-.37-1.16-.9-1.54-1.57-.36-.68-.54-1.48-.54-2.38s.18-1.7.54-2.38c.36-.68.87-1.2,1.52-1.57.65-.36,1.39-.54,2.22-.54s1.56.18,2.18.54c.63.36,1.11.85,1.44,1.47.34.61.51,1.29.51,2.03Zm-1.14-.03c.01-.65-.12-1.21-.4-1.66-.27-.46-.64-.8-1.1-1.04-.47-.23-.98-.35-1.54-.35-.83,0-1.54.27-2.13.8-.59.53-.91,1.29-.98,2.26h6.14Zm2.67.46c0-.9.18-1.68.53-2.35.36-.68.86-1.21,1.49-1.57.64-.37,1.36-.56,2.16-.56s1.55.19,2.14.58c.61.38,1.05.88,1.31,1.47v-1.92h1.12v8.74h-1.12v-1.94c-.28.6-.72,1.09-1.33,1.49-.6.38-1.31.58-2.14.58s-1.5-.19-2.14-.56c-.63-.37-1.13-.9-1.49-1.58-.35-.68-.53-1.47-.53-2.37Zm7.63.02c0-.7-.14-1.32-.43-1.86-.29-.53-.68-.94-1.18-1.23-.49-.29-1.03-.43-1.63-.43s-1.17.14-1.66.42c-.49.28-.88.68-1.17,1.22-.28.52-.42,1.15-.42,1.87s.14,1.34.42,1.89c.29.53.68.94,1.17,1.23.49.28,1.04.42,1.66.42s1.14-.14,1.63-.43c.5-.29.9-.7,1.18-1.23.29-.53.43-1.15.43-1.86Zm14.08-4.53c1.02,0,1.86.32,2.5.98.65.64.98,1.57.98,2.8v5.12h-1.1v-4.99c0-.95-.23-1.67-.69-2.18-.46-.5-1.08-.75-1.87-.75s-1.48.27-1.97.82c-.49.54-.74,1.33-.74,2.37v4.74h-1.1v-4.99c0-.95-.23-1.67-.69-2.18-.46-.5-1.09-.75-1.89-.75s-1.48.27-1.97.82c-.49.54-.74,1.33-.74,2.37v4.74h-1.12v-8.74h1.12v1.5c.28-.54.67-.96,1.18-1.23.51-.29,1.08-.43,1.71-.43.76,0,1.42.18,1.98.54.58.36.99.9,1.25,1.6.23-.69.63-1.22,1.2-1.58.58-.37,1.23-.56,1.95-.56Z"/>
  <path d="m166.85,268.85c-.24.31-.51.79-.9,1.49l-.2.36-.04.06c-.18.33-.33.6-.58.79-.25.19-.55.26-.91.34l-.07.02-.38.09c-.76.17-1.28.29-1.63.43-.35.14-.42.25-.45.34-.03.09-.03.24.18.57.21.33.56.75,1.08,1.35l.26.31.05.05c.24.29.45.52.54.82.09.3.06.61.02.99v.07s-.05.41-.05.41c-.08.8-.13,1.36-.11,1.76.02.4.1.51.17.56.06.05.17.1.53,0,.36-.1.85-.33,1.56-.65l.36-.17.07-.03c.33-.15.62-.29.93-.29s.6.13.93.28c.02.01.04.02.07.03l.36.17c.71.33,1.2.55,1.56.65.36.1.47.05.53,0,.07-.05.15-.16.17-.56.02-.4-.04-.95-.11-1.76l-.04-.41v-.07c-.04-.38-.07-.69.02-.99.09-.3.3-.54.54-.82l.05-.05.26-.31c.52-.6.87-1.02,1.08-1.35.21-.33.21-.47.18-.57-.03-.09-.1-.2-.45-.34-.35-.14-.87-.26-1.63-.43l-.38-.09s-.05-.01-.07-.02c-.35-.08-.66-.15-.91-.34-.25-.19-.4-.46-.58-.79l-.04-.06-.2-.36c-.39-.7-.66-1.18-.9-1.49-.24-.31-.36-.34-.43-.34s-.19.03-.43.34Zm-.72-.55c.29-.38.64-.69,1.15-.69s.86.32,1.15.69c.28.37.58.91.95,1.57l.22.39c.24.43.3.52.37.57.07.06.17.09.63.19l.42.1c.71.16,1.3.29,1.72.46.44.17.83.43.98.91.15.47-.02.91-.28,1.32-.25.4-.65.86-1.13,1.43l-.29.33c-.31.37-.38.45-.41.55-.03.1-.03.22.02.7l.04.45c.07.76.13,1.38.11,1.85-.02.48-.13.94-.53,1.24-.4.31-.87.27-1.33.14-.44-.12-.99-.38-1.65-.68l-.4-.18c-.43-.2-.53-.23-.61-.23s-.18.03-.61.23l-.4.18c-.67.31-1.21.56-1.65.68-.45.13-.92.17-1.33-.14-.4-.3-.51-.76-.53-1.24-.02-.47.04-1.09.11-1.85l.04-.45c.05-.49.05-.6.02-.7-.03-.1-.1-.19-.41-.55l-.29-.33c-.49-.57-.88-1.03-1.13-1.43-.26-.41-.42-.84-.28-1.32.15-.48.54-.74.98-.91.43-.17,1.01-.3,1.72-.46h.04s.38-.1.38-.1c.46-.1.56-.14.63-.19.08-.06.14-.15.38-.57l.22-.39c.37-.66.67-1.2.95-1.57h0Z" fill="#5248bd" fill-rule="evenodd"/>
  <path d="m185.85,268.85c-.24.31-.51.79-.9,1.49l-.2.36-.04.06c-.18.33-.33.6-.58.79-.25.19-.55.26-.91.34l-.07.02-.38.09c-.76.17-1.28.29-1.63.43-.35.14-.42.25-.45.34-.03.09-.03.24.18.57.21.33.56.75,1.08,1.35l.26.31.05.05c.24.29.45.52.54.82.09.3.06.61.02.99v.07s-.05.41-.05.41c-.08.8-.13,1.36-.11,1.76.02.4.1.51.17.56.06.05.17.1.53,0,.36-.1.85-.33,1.56-.65l.36-.17.07-.03c.33-.15.62-.29.93-.29s.6.13.93.28c.02.01.04.02.07.03l.36.17c.71.33,1.2.55,1.56.65.36.1.47.05.53,0,.07-.05.15-.16.17-.56.02-.4-.04-.95-.11-1.76l-.04-.41v-.07c-.04-.38-.07-.69.02-.99.09-.3.3-.54.54-.82l.05-.05.26-.31c.52-.6.87-1.02,1.08-1.35.21-.33.21-.47.18-.57-.03-.09-.1-.2-.45-.34-.35-.14-.87-.26-1.63-.43l-.38-.09s-.05-.01-.07-.02c-.35-.08-.66-.15-.91-.34-.25-.19-.4-.46-.58-.79l-.04-.06-.2-.36c-.39-.7-.66-1.18-.9-1.49-.24-.31-.36-.34-.43-.34s-.19.03-.43.34Zm-.72-.55c.29-.38.64-.69,1.15-.69s.86.32,1.15.69c.28.37.58.91.95,1.57l.22.39c.24.43.3.52.37.57.07.06.17.09.63.19l.42.1c.71.16,1.3.29,1.72.46.44.17.83.43.98.91.15.47-.02.91-.28,1.32-.25.4-.65.86-1.13,1.43l-.29.33c-.31.37-.38.45-.41.55-.03.1-.03.22.02.7l.04.45c.07.76.13,1.38.11,1.85-.02.48-.13.94-.53,1.24-.4.31-.87.27-1.33.14-.44-.12-.99-.38-1.65-.68l-.4-.18c-.43-.2-.53-.23-.61-.23s-.18.03-.61.23l-.4.18c-.67.31-1.21.56-1.65.68-.45.13-.92.17-1.33-.14-.4-.3-.51-.76-.53-1.24-.02-.47.04-1.09.11-1.85l.04-.45c.05-.49.05-.6.02-.7-.03-.1-.1-.19-.41-.55l-.29-.33c-.49-.57-.88-1.03-1.13-1.43-.26-.41-.42-.84-.28-1.32.15-.48.54-.74.98-.91.43-.17,1.01-.3,1.72-.46h.04s.38-.1.38-.1c.46-.1.56-.14.63-.19.08-.06.14-.15.38-.57l.22-.39c.37-.66.67-1.2.95-1.57h0Z" fill="#5248bd" fill-rule="evenodd"/>
  <path d="m204.85,268.85c-.24.31-.51.79-.9,1.49l-.2.36-.04.06c-.18.33-.33.6-.58.79-.25.19-.55.26-.91.34l-.07.02-.38.09c-.76.17-1.28.29-1.63.43-.35.14-.42.25-.45.34-.03.09-.03.24.18.57.21.33.56.75,1.08,1.35l.26.31.05.05c.24.29.45.52.54.82.09.3.06.61.02.99v.07s-.05.41-.05.41c-.08.8-.13,1.36-.11,1.76.02.4.1.51.17.56.06.05.17.1.53,0,.36-.1.85-.33,1.56-.65l.36-.17.07-.03c.33-.15.62-.29.93-.29s.6.13.93.28c.02.01.04.02.07.03l.36.17c.71.33,1.2.55,1.56.65.36.1.47.05.53,0,.07-.05.15-.16.17-.56.02-.4-.04-.95-.11-1.76l-.04-.41v-.07c-.04-.38-.07-.69.02-.99.09-.3.3-.54.54-.82l.05-.05.26-.31c.52-.6.87-1.02,1.08-1.35.21-.33.21-.47.18-.57-.03-.09-.1-.2-.45-.34-.35-.14-.87-.26-1.63-.43l-.38-.09s-.05-.01-.07-.02c-.35-.08-.66-.15-.91-.34-.25-.19-.4-.46-.58-.79l-.04-.06-.2-.36c-.39-.7-.66-1.18-.9-1.49-.24-.31-.36-.34-.43-.34s-.19.03-.43.34Zm-.72-.55c.29-.38.64-.69,1.15-.69s.86.32,1.15.69c.28.37.58.91.95,1.57l.22.39c.24.43.3.52.37.57.07.06.17.09.63.19l.42.1c.71.16,1.3.29,1.72.46.44.17.83.43.98.91.15.47-.02.91-.28,1.32-.25.4-.65.86-1.13,1.43l-.29.33c-.31.37-.38.45-.41.55-.03.1-.03.22.02.7l.04.45c.07.76.13,1.38.11,1.85-.02.48-.13.94-.53,1.24-.4.31-.87.27-1.33.14-.44-.12-.99-.38-1.65-.68l-.4-.18c-.43-.2-.53-.23-.61-.23s-.18.03-.61.23l-.4.18c-.67.31-1.21.56-1.65.68-.45.13-.92.17-1.33-.14-.4-.3-.51-.76-.53-1.24-.02-.47.04-1.09.11-1.85l.04-.45c.05-.49.05-.6.02-.7-.03-.1-.1-.19-.41-.55l-.29-.33c-.49-.57-.88-1.03-1.13-1.43-.26-.41-.42-.84-.28-1.32.15-.48.54-.74.98-.91.43-.17,1.01-.3,1.72-.46h.04s.38-.1.38-.1c.46-.1.56-.14.63-.19.08-.06.14-.15.38-.57l.22-.39c.37-.66.67-1.2.95-1.57h0Z" fill="#5248bd" fill-rule="evenodd"/>
  <path d="m223.85,268.85c-.24.31-.51.79-.9,1.49l-.2.36-.04.06c-.18.33-.33.6-.58.79-.25.19-.55.26-.91.34l-.07.02-.38.09c-.76.17-1.28.29-1.63.43-.35.14-.42.25-.45.34-.03.09-.03.24.18.57.21.33.56.75,1.08,1.35l.26.31.05.05c.24.29.45.52.54.82.09.3.06.61.02.99v.07s-.05.41-.05.41c-.08.8-.13,1.36-.11,1.76.02.4.1.51.17.56.06.05.17.1.53,0,.36-.1.85-.33,1.56-.65l.36-.17.07-.03c.33-.15.62-.29.93-.29s.6.13.93.28c.02.01.04.02.07.03l.36.17c.71.33,1.2.55,1.56.65.36.1.47.05.53,0,.07-.05.15-.16.17-.56.02-.4-.04-.95-.11-1.76l-.04-.41v-.07c-.04-.38-.07-.69.02-.99.09-.3.3-.54.54-.82l.05-.05.26-.31c.52-.6.87-1.02,1.08-1.35.21-.33.21-.47.18-.57-.03-.09-.1-.2-.45-.34-.35-.14-.87-.26-1.63-.43l-.38-.09s-.05-.01-.07-.02c-.35-.08-.66-.15-.91-.34-.25-.19-.4-.46-.58-.79l-.04-.06-.2-.36c-.39-.7-.66-1.18-.9-1.49-.24-.31-.36-.34-.43-.34s-.19.03-.43.34Zm-.72-.55c.29-.38.64-.69,1.15-.69s.86.32,1.15.69c.28.37.58.91.95,1.57l.22.39c.24.43.3.52.37.57.07.06.17.09.63.19l.42.1c.71.16,1.3.29,1.72.46.44.17.83.43.98.91.15.47-.02.91-.28,1.32-.25.4-.65.86-1.13,1.43l-.29.33c-.31.37-.38.45-.41.55-.03.1-.03.22.02.7l.04.45c.07.76.13,1.38.11,1.85-.02.48-.13.94-.53,1.24-.4.31-.87.27-1.33.14-.44-.12-.99-.38-1.65-.68l-.4-.18c-.43-.2-.53-.23-.61-.23s-.18.03-.61.23l-.4.18c-.67.31-1.21.56-1.65.68-.45.13-.92.17-1.33-.14-.4-.3-.51-.76-.53-1.24-.02-.47.04-1.09.11-1.85l.04-.45c.05-.49.05-.6.02-.7-.03-.1-.1-.19-.41-.55l-.29-.33c-.49-.57-.88-1.03-1.13-1.43-.26-.41-.42-.84-.28-1.32.15-.48.54-.74.98-.91.43-.17,1.01-.3,1.72-.46h.04s.38-.1.38-.1c.46-.1.56-.14.63-.19.08-.06.14-.15.38-.57l.22-.39c.37-.66.67-1.2.95-1.57h0Z" fill="#5248bd" fill-rule="evenodd"/>
  <path d="m242.85,268.85c-.24.31-.51.79-.9,1.49l-.2.36-.04.06c-.18.33-.33.6-.58.79-.25.19-.55.26-.91.34l-.07.02-.38.09c-.76.17-1.28.29-1.63.43-.35.14-.42.25-.45.34-.03.09-.03.24.18.57.21.33.56.75,1.08,1.35l.26.31.05.05c.24.29.45.52.54.82.09.3.06.61.02.99v.07s-.05.41-.05.41c-.08.8-.13,1.36-.11,1.76.02.4.1.51.17.56.06.05.17.1.53,0,.36-.1.85-.33,1.56-.65l.36-.17.07-.03c.33-.15.62-.29.93-.29s.6.13.93.28c.02.01.04.02.07.03l.36.17c.71.33,1.2.55,1.56.65.36.1.47.05.53,0,.07-.05.15-.16.17-.56.02-.4-.04-.95-.11-1.76l-.04-.41v-.07c-.04-.38-.07-.69.02-.99.09-.3.3-.54.54-.82l.05-.05.26-.31c.52-.6.87-1.02,1.08-1.35.21-.33.21-.47.18-.57-.03-.09-.1-.2-.45-.34-.35-.14-.87-.26-1.63-.43l-.38-.09s-.05-.01-.07-.02c-.35-.08-.66-.15-.91-.34-.25-.19-.4-.46-.58-.79l-.04-.06-.2-.36c-.39-.7-.66-1.18-.9-1.49-.24-.31-.36-.34-.43-.34s-.19.03-.43.34Zm-.72-.55c.29-.38.64-.69,1.15-.69s.86.32,1.15.69c.28.37.58.91.95,1.57l.22.39c.24.43.3.52.37.57.07.06.17.09.63.19l.42.1c.71.16,1.3.29,1.72.46.44.17.83.43.98.91.15.47-.02.91-.28,1.32-.25.4-.65.86-1.13,1.43l-.29.33c-.31.37-.38.45-.41.55-.03.1-.03.22.02.7l.04.45c.07.76.13,1.38.11,1.85-.02.48-.13.94-.53,1.24-.4.31-.87.27-1.33.14-.44-.12-.99-.38-1.65-.68l-.4-.18c-.43-.2-.53-.23-.61-.23s-.18.03-.61.23l-.4.18c-.67.31-1.21.56-1.65.68-.45.13-.92.17-1.33-.14-.4-.3-.51-.76-.53-1.24-.02-.47.04-1.09.11-1.85l.04-.45c.05-.49.05-.6.02-.7-.03-.1-.1-.19-.41-.55l-.29-.33c-.49-.57-.88-1.03-1.13-1.43-.26-.41-.42-.84-.28-1.32.15-.48.54-.74.98-.91.43-.17,1.01-.3,1.72-.46h.04s.38-.1.38-.1c.46-.1.56-.14.63-.19.08-.06.14-.15.38-.57l.22-.39c.37-.66.67-1.2.95-1.57h0Z" fill="#5248bd" fill-rule="evenodd"/>
  <path d="m57.54,101.66h-2.8l1.79-4.29h1.84l-.83,4.29Zm3.63,0h-2.78l1.79-4.29h1.82l-.83,4.29Zm10.69-4.29v2.19h-2.98v9.04h-2.74v-9.04h-2.98v-2.19h8.69Zm6.86,2.21c1.02,0,1.85.34,2.46,1.02.62.67.93,1.6.93,2.78v5.22h-2.72v-4.85c0-.6-.15-1.06-.46-1.39-.31-.33-.73-.5-1.25-.5s-.94.17-1.25.5c-.31.33-.46.79-.46,1.39v4.85h-2.74v-11.84h2.74v4.11c.28-.39.66-.71,1.14-.94.48-.23,1.02-.35,1.62-.35Zm13.71,4.42c0,.26-.02.52-.05.8h-6.19c.04.56.22.98.53,1.28.32.29.71.43,1.17.43.68,0,1.16-.29,1.42-.86h2.91c-.15.59-.42,1.11-.82,1.58-.38.47-.87.84-1.46,1.1-.59.27-1.24.4-1.97.4-.87,0-1.65-.19-2.34-.56s-1.22-.91-1.6-1.6c-.38-.69-.58-1.5-.58-2.43s.19-1.74.56-2.43c.38-.69.92-1.23,1.6-1.6s1.47-.56,2.35-.56,1.63.18,2.3.54,1.19.88,1.57,1.55c.38.67.58,1.46.58,2.35Zm-2.8-.72c0-.47-.16-.84-.48-1.12-.32-.28-.72-.42-1.2-.42s-.85.13-1.17.4c-.31.27-.5.65-.58,1.14h3.42Zm10.37-2.34c.26-.42.62-.75,1.1-1.01.48-.26,1.03-.38,1.65-.38.74,0,1.4.19,2,.56.6.37,1.07.91,1.41,1.6.35.69.53,1.5.53,2.42s-.18,1.73-.53,2.43c-.34.69-.81,1.23-1.41,1.62-.6.37-1.26.56-2,.56-.63,0-1.18-.12-1.65-.37-.47-.26-.84-.59-1.1-1.01v1.25h-2.74v-11.84h2.74v4.18Zm3.9,3.18c0-.68-.19-1.22-.58-1.6-.37-.39-.84-.59-1.39-.59s-1.01.2-1.39.59c-.37.39-.56.93-.56,1.62s.19,1.22.56,1.62c.38.39.85.59,1.39.59s1.01-.2,1.39-.59c.38-.4.58-.95.58-1.63Zm12.63-.13c0,.26-.02.52-.05.8h-6.19c.04.56.22.98.53,1.28.32.29.71.43,1.17.43.68,0,1.16-.29,1.42-.86h2.91c-.15.59-.42,1.11-.82,1.58-.38.47-.87.84-1.46,1.1-.59.27-1.24.4-1.97.4-.87,0-1.65-.19-2.34-.56-.68-.37-1.22-.91-1.6-1.6-.38-.69-.58-1.5-.58-2.43s.19-1.74.56-2.43c.38-.69.92-1.23,1.6-1.6.68-.37,1.47-.56,2.35-.56s1.63.18,2.3.54c.67.36,1.19.88,1.57,1.55.38.67.58,1.46.58,2.35Zm-2.8-.72c0-.47-.16-.84-.48-1.12-.32-.28-.72-.42-1.2-.42s-.85.13-1.17.4c-.31.27-.5.65-.58,1.14h3.42Zm7.88,5.46c-.78,0-1.47-.13-2.08-.4-.61-.27-1.09-.63-1.44-1.09-.35-.47-.55-.99-.59-1.57h2.7c.03.31.18.56.43.75.26.19.57.29.94.29.34,0,.6-.06.78-.19.19-.14.29-.31.29-.53,0-.26-.13-.44-.4-.56-.27-.13-.7-.27-1.3-.42-.64-.15-1.17-.3-1.6-.46-.43-.17-.79-.43-1.1-.78-.31-.36-.46-.85-.46-1.46,0-.51.14-.98.42-1.39.29-.43.7-.76,1.25-1.01.55-.25,1.21-.37,1.97-.37,1.12,0,2,.28,2.64.83.65.55,1.02,1.29,1.12,2.21h-2.53c-.04-.31-.18-.55-.42-.74-.22-.18-.52-.27-.9-.27-.32,0-.57.06-.74.19-.17.12-.26.28-.26.5,0,.26.13.45.4.58.28.13.7.26,1.28.38.66.17,1.2.34,1.62.51.42.16.78.43,1.09.8.32.36.49.85.5,1.47,0,.52-.15.99-.45,1.41-.29.4-.71.72-1.26.96-.54.24-1.18.35-1.9.35Zm10.27-2.45v2.32h-1.39c-.99,0-1.77-.24-2.32-.72-.56-.49-.83-1.28-.83-2.38v-3.55h-1.09v-2.27h1.09v-2.18h2.74v2.18h1.79v2.27h-1.79v3.58c0,.27.06.46.19.58.13.12.34.18.64.18h.98Zm17.73-6.61l-2.42,8.93h-3.02l-1.41-5.79-1.46,5.79h-3.01l-2.43-8.93h2.74l1.26,6.38,1.5-6.38h2.9l1.52,6.35,1.25-6.35h2.58Zm.5,4.45c0-.92.17-1.72.51-2.42.35-.69.83-1.23,1.42-1.6.6-.37,1.26-.56,2-.56.63,0,1.18.13,1.65.38.48.26.85.59,1.1,1.01v-1.26h2.74v8.93h-2.74v-1.26c-.27.42-.64.75-1.12,1.01-.47.26-1.02.38-1.65.38-.73,0-1.39-.19-1.98-.56-.6-.38-1.07-.92-1.42-1.62-.34-.7-.51-1.52-.51-2.43Zm6.69.02c0-.68-.19-1.22-.58-1.62-.37-.39-.83-.59-1.38-.59s-1.01.2-1.39.59c-.37.38-.56.92-.56,1.6s.19,1.23.56,1.63c.38.39.85.59,1.39.59s1-.2,1.38-.59c.38-.39.58-.93.58-1.62Zm13.84-4.46l-5.6,13.17h-2.94l2.05-4.54-3.63-8.62h3.06l2.06,5.58,2.05-5.58h2.96Zm9.36,6.61v2.32h-1.39c-.99,0-1.76-.24-2.32-.72-.55-.49-.83-1.28-.83-2.38v-3.55h-1.09v-2.27h1.09v-2.18h2.74v2.18h1.79v2.27h-1.79v3.58c0,.27.06.46.19.58.13.12.34.18.64.18h.98Zm5.59,2.45c-.88,0-1.66-.19-2.37-.56-.69-.37-1.24-.91-1.65-1.6-.39-.69-.59-1.5-.59-2.43s.2-1.72.61-2.42c.4-.7.96-1.24,1.66-1.62s1.49-.56,2.37-.56,1.66.19,2.37.56c.7.37,1.26.91,1.66,1.62.4.69.61,1.5.61,2.42s-.21,1.73-.62,2.43c-.4.69-.96,1.23-1.68,1.6-.7.37-1.49.56-2.37.56Zm0-2.37c.52,0,.96-.19,1.33-.58.37-.38.56-.93.56-1.65s-.18-1.26-.54-1.65c-.35-.38-.79-.58-1.31-.58s-.98.19-1.33.58c-.35.37-.53.92-.53,1.65s.17,1.26.51,1.65c.35.38.79.58,1.31.58Zm8.97-2.24c0-.92.17-1.72.51-2.42.35-.69.83-1.23,1.42-1.6s1.26-.56,2-.56c.59,0,1.12.12,1.6.37.49.25.88.58,1.15.99v-4.14h2.74v11.84h-2.74v-1.28c-.26.43-.62.77-1.1,1.02-.47.26-1.02.38-1.65.38-.74,0-1.4-.19-2-.56-.6-.38-1.07-.92-1.42-1.62-.34-.7-.51-1.52-.51-2.43Zm6.69.02c0-.68-.19-1.22-.58-1.62-.37-.39-.83-.59-1.38-.59s-1.01.2-1.39.59c-.37.38-.56.92-.56,1.6s.19,1.23.56,1.63c.38.39.85.59,1.39.59s1-.2,1.38-.59c.38-.39.58-.93.58-1.62Zm8.78,4.59c-.88,0-1.66-.19-2.37-.56-.69-.37-1.24-.91-1.65-1.6-.4-.69-.59-1.5-.59-2.43s.2-1.72.61-2.42c.41-.7.96-1.24,1.67-1.62.7-.37,1.49-.56,2.37-.56s1.66.19,2.37.56c.7.37,1.26.91,1.66,1.62.4.69.61,1.5.61,2.42s-.21,1.73-.62,2.43c-.41.69-.97,1.23-1.68,1.6-.7.37-1.49.56-2.37.56Zm0-2.37c.52,0,.96-.19,1.33-.58.37-.38.56-.93.56-1.65s-.18-1.26-.54-1.65c-.35-.38-.79-.58-1.31-.58s-.98.19-1.33.58c-.35.37-.53.92-.53,1.65s.17,1.26.51,1.65c.35.38.79.58,1.31.58Zm20.91-6.78c1.11,0,1.99.34,2.64,1.01.66.67.99,1.61.99,2.8v5.22h-2.72v-4.85c0-.58-.15-1.02-.46-1.33-.3-.32-.72-.48-1.25-.48s-.96.16-1.26.48c-.3.31-.45.75-.45,1.33v4.85h-2.72v-4.85c0-.58-.15-1.02-.46-1.33-.3-.32-.71-.48-1.25-.48s-.95.16-1.26.48c-.3.31-.45.75-.45,1.33v4.85h-2.74v-8.93h2.74v1.12c.28-.37.64-.67,1.09-.88.45-.22.95-.34,1.52-.34.67,0,1.27.14,1.79.43.53.29.95.7,1.25,1.23.31-.49.73-.89,1.26-1.2.53-.31,1.11-.46,1.74-.46Zm9.61,9.15c-.88,0-1.66-.19-2.37-.56-.69-.37-1.24-.91-1.65-1.6-.39-.69-.59-1.5-.59-2.43s.2-1.72.61-2.42c.4-.7.96-1.24,1.66-1.62.7-.37,1.49-.56,2.37-.56s1.66.19,2.37.56c.7.37,1.26.91,1.66,1.62.4.69.61,1.5.61,2.42s-.21,1.73-.62,2.43c-.41.69-.97,1.23-1.68,1.6-.7.37-1.49.56-2.37.56Zm0-2.37c.52,0,.96-.19,1.33-.58.37-.38.56-.93.56-1.65s-.18-1.26-.54-1.65c-.35-.38-.79-.58-1.31-.58s-.98.19-1.33.58c-.35.37-.53.92-.53,1.65s.17,1.26.51,1.65c.35.38.79.58,1.31.58Zm11.56-6.78c1.04,0,1.88.34,2.5,1.02.63.67.94,1.6.94,2.78v5.22h-2.72v-4.85c0-.6-.15-1.06-.46-1.39-.31-.33-.73-.5-1.25-.5s-.94.17-1.25.5c-.31.33-.46.79-.46,1.39v4.85h-2.74v-8.93h2.74v1.18c.28-.39.65-.7,1.12-.93.47-.23,1-.35,1.58-.35Zm13.76,4.42c0,.26-.02.52-.05.8h-6.19c.04.56.22.98.53,1.28.32.29.71.43,1.17.43.68,0,1.16-.29,1.42-.86h2.91c-.15.59-.42,1.11-.82,1.58-.38.47-.87.84-1.46,1.1-.59.27-1.24.4-1.97.4-.87,0-1.65-.19-2.34-.56s-1.22-.91-1.6-1.6-.58-1.5-.58-2.43.19-1.74.56-2.43c.38-.69.92-1.23,1.6-1.6s1.47-.56,2.35-.56,1.63.18,2.3.54,1.2.88,1.57,1.55c.38.67.58,1.46.58,2.35Zm-2.8-.72c0-.47-.16-.84-.48-1.12-.32-.28-.72-.42-1.2-.42s-.85.13-1.17.4c-.31.27-.5.65-.58,1.14h3.42Zm13.36-3.6l-5.6,13.17h-2.94l2.05-4.54-3.63-8.62h3.06l2.06,5.58,2.05-5.58h2.96Zm-148.38,24l-2.42,8.93h-3.02l-1.41-5.79-1.46,5.79h-3.01l-2.43-8.93h2.74l1.26,6.38,1.5-6.38h2.9l1.52,6.35,1.25-6.35h2.58Zm2.42-.93c-.48,0-.88-.14-1.18-.42-.3-.29-.45-.64-.45-1.06s.15-.78.45-1.06c.31-.29.7-.43,1.18-.43s.85.14,1.15.43c.31.28.46.63.46,1.06s-.15.77-.46,1.06c-.3.28-.68.42-1.15.42Zm1.36.93v8.93h-2.74v-8.93h2.74Zm6.96,6.61v2.32h-1.39c-.99,0-1.76-.24-2.32-.72-.55-.49-.83-1.28-.83-2.38v-3.55h-1.09v-2.27h1.09v-2.18h2.74v2.18h1.79v2.27h-1.79v3.58c0,.27.06.46.19.58.13.12.34.18.64.18h.98Zm7.01-6.7c1.02,0,1.85.34,2.46,1.02.62.67.93,1.6.93,2.78v5.22h-2.72v-4.85c0-.6-.15-1.06-.46-1.39-.31-.33-.72-.5-1.25-.5s-.94.17-1.25.5c-.31.33-.46.79-.46,1.39v4.85h-2.74v-11.84h2.74v4.11c.28-.4.66-.71,1.14-.94.48-.24,1.02-.35,1.62-.35Zm8.14,4.56c0-.93.19-1.74.56-2.43.38-.69.91-1.23,1.58-1.6.68-.37,1.46-.56,2.34-.56,1.12,0,2.05.29,2.8.88.76.59,1.25,1.41,1.49,2.48h-2.91c-.25-.68-.72-1.02-1.42-1.02-.5,0-.9.2-1.2.59-.3.38-.45.94-.45,1.66s.15,1.28.45,1.68c.3.38.7.58,1.2.58.7,0,1.18-.34,1.42-1.02h2.91c-.24,1.05-.73,1.87-1.49,2.46-.76.6-1.69.9-2.8.9-.88,0-1.65-.19-2.34-.56-.67-.37-1.2-.91-1.58-1.6-.37-.69-.56-1.5-.56-2.43Zm12.97-2.98c.32-.49.72-.88,1.2-1.15.48-.29,1.01-.43,1.6-.43v2.9h-.75c-.68,0-1.2.15-1.54.45-.34.29-.51.8-.51,1.54v4.14h-2.74v-8.93h2.74v1.49Zm13.23-1.49l-5.6,13.17h-2.94l2.05-4.54-3.63-8.62h3.06l2.06,5.58,2.05-5.58h2.96Zm3.73,1.26c.27-.42.63-.75,1.1-1.01.47-.26,1.02-.38,1.65-.38.74,0,1.4.19,2,.56.6.37,1.07.91,1.41,1.6.35.69.53,1.5.53,2.42s-.18,1.73-.53,2.43c-.34.69-.81,1.23-1.41,1.62-.6.37-1.26.56-2,.56-.62,0-1.17-.13-1.65-.38-.47-.26-.84-.59-1.1-.99v5.5h-2.74v-13.18h2.74v1.26Zm3.9,3.18c0-.68-.19-1.22-.58-1.6-.37-.39-.84-.59-1.39-.59s-1.01.2-1.39.59c-.37.4-.56.93-.56,1.62s.19,1.22.56,1.62c.38.39.85.59,1.39.59s1.01-.2,1.39-.59c.38-.4.58-.95.58-1.63Zm9.2,2.16v2.32h-1.39c-.99,0-1.76-.24-2.32-.72-.55-.49-.83-1.28-.83-2.38v-3.55h-1.09v-2.27h1.09v-2.18h2.74v2.18h1.79v2.27h-1.79v3.58c0,.27.06.46.19.58.13.12.34.18.64.18h.98Zm5.59,2.45c-.88,0-1.66-.19-2.37-.56-.69-.37-1.24-.91-1.65-1.6-.39-.69-.59-1.5-.59-2.43s.2-1.72.61-2.42c.4-.7.96-1.24,1.66-1.62.7-.37,1.49-.56,2.37-.56s1.66.19,2.37.56c.7.37,1.26.91,1.66,1.62.4.69.61,1.5.61,2.42s-.21,1.73-.62,2.43c-.41.69-.97,1.23-1.68,1.6-.7.37-1.49.56-2.37.56Zm0-2.37c.52,0,.96-.19,1.33-.58.37-.38.56-.93.56-1.65s-.18-1.26-.54-1.65c-.35-.38-.79-.58-1.31-.58s-.98.19-1.33.58c-.35.37-.53.92-.53,1.65s.17,1.26.51,1.65c.35.38.79.58,1.31.58Zm6.75-8.99h2.8l-1.79,4.29h-1.84l.83-4.29Zm3.63,0h2.8l-1.79,4.29h-1.84l.83-4.29Z"/>
  <path d="m43.26,44.7c-.64,0-1.21-.11-1.71-.34-.49-.22-.87-.54-1.15-.94-.28-.4-.43-.85-.45-1.34h1.04c.05.48.26.9.63,1.26.37.35.92.53,1.64.53.66,0,1.19-.17,1.57-.5.39-.35.59-.78.59-1.3,0-.42-.11-.76-.32-1.01-.21-.26-.48-.45-.8-.57-.32-.13-.76-.27-1.32-.42-.65-.18-1.17-.35-1.55-.52-.38-.17-.71-.43-.98-.78-.27-.35-.41-.84-.41-1.44,0-.5.13-.95.39-1.34.26-.4.63-.71,1.11-.94.48-.22,1.02-.34,1.64-.34.91,0,1.63.22,2.18.67.56.44.88,1.01.97,1.71h-1.06c-.07-.4-.28-.76-.66-1.06-.37-.32-.88-.48-1.51-.48-.59,0-1.08.16-1.47.48-.39.31-.59.73-.59,1.27,0,.41.11.74.32.99.21.25.48.44.8.57.33.13.77.27,1.32.42.63.18,1.15.35,1.54.53.39.17.72.43.99.78.27.35.41.83.41,1.43,0,.46-.12.89-.36,1.3-.24.41-.6.74-1.08.99-.48.25-1.05.38-1.71.38Zm11.96-4.31c0,.34,0,.59-.03.77h-6.34c.03.58.17,1.07.42,1.48.25.41.58.72.99.94.41.21.86.31,1.34.31.63,0,1.17-.15,1.6-.46.44-.31.73-.72.87-1.25h1.04c-.19.75-.59,1.36-1.2,1.83-.61.47-1.37.7-2.3.7-.72,0-1.36-.16-1.93-.48-.57-.33-1.02-.78-1.34-1.37-.32-.6-.48-1.29-.48-2.09s.16-1.49.48-2.09c.32-.6.76-1.05,1.33-1.37.57-.32,1.22-.48,1.95-.48s1.36.16,1.9.48c.55.32.97.75,1.26,1.29.3.53.45,1.12.45,1.78Zm-.99-.03c0-.57-.11-1.05-.35-1.46-.23-.4-.56-.7-.97-.91-.41-.21-.86-.31-1.34-.31-.73,0-1.35.23-1.86.7-.51.47-.8,1.12-.85,1.97h5.38Zm3.77-2.04c.21-.48.54-.84.98-1.11.45-.26.99-.39,1.64-.39v1.02h-.27c-.71,0-1.28.19-1.71.57-.43.38-.64,1.02-.64,1.92v4.27h-.98v-7.64h.98v1.36Zm4.58-2.8c-.2,0-.36-.07-.5-.21-.14-.14-.21-.31-.21-.52s.07-.37.21-.5c.14-.14.31-.21.5-.21s.36.07.5.21c.14.13.21.3.21.5s-.07.38-.21.52c-.14.14-.31.21-.5.21Zm.49,1.44v7.64h-.98v-7.64h.98Zm9.14,3.43c0,.34,0,.59-.03.77h-6.34c.03.58.17,1.07.42,1.48.25.41.58.72.99.94.41.21.86.31,1.34.31.63,0,1.17-.15,1.6-.46.44-.31.73-.72.87-1.25h1.04c-.19.75-.59,1.36-1.2,1.83-.61.47-1.37.7-2.3.7-.72,0-1.36-.16-1.93-.48-.57-.33-1.02-.78-1.34-1.37-.32-.6-.48-1.29-.48-2.09s.16-1.49.48-2.09c.32-.6.76-1.05,1.33-1.37.57-.32,1.22-.48,1.95-.48s1.36.16,1.9.48c.55.32.97.75,1.26,1.29.3.53.45,1.12.45,1.78Zm-.99-.03c0-.57-.11-1.05-.35-1.46-.23-.4-.56-.7-.97-.91-.41-.21-.86-.31-1.34-.31-.73,0-1.35.23-1.86.7-.51.47-.8,1.12-.85,1.97h5.38Zm12.3,1.92h-4.45l-.85,2.32h-1.04l3.57-9.66h1.11l3.56,9.66h-1.04l-.85-2.32Zm-.29-.81l-1.93-5.29-1.93,5.29h3.86Zm12.64,4.54h-.98v-12.46h.98v12.46Zm5.88-2.17c1.72-1.29,3.04-2.44,3.98-3.46.94-1.03,1.41-2.03,1.41-3.01,0-.64-.16-1.16-.49-1.54-.32-.39-.84-.59-1.57-.59s-1.26.22-1.65.67c-.38.44-.6,1.03-.64,1.76h-.95c.06-1.04.37-1.84.95-2.41.59-.58,1.35-.87,2.3-.87s1.64.26,2.2.77c.56.5.84,1.22.84,2.16,0,1.13-.47,2.23-1.41,3.29-.93,1.05-2.09,2.09-3.46,3.09h5.18v.83h-6.68v-.7Zm8.59.84c-.21,0-.38-.07-.52-.21-.13-.14-.2-.31-.2-.52s.07-.37.2-.5c.14-.14.31-.21.52-.21s.36.07.49.21c.14.13.21.3.21.5s-.07.38-.21.52c-.13.14-.29.21-.49.21Zm1.97-.84c1.72-1.29,3.04-2.44,3.98-3.46.94-1.03,1.41-2.03,1.41-3.01,0-.64-.16-1.16-.49-1.54-.32-.39-.84-.59-1.57-.59s-1.26.22-1.65.67c-.38.44-.6,1.03-.64,1.76h-.95c.06-1.04.37-1.84.95-2.41.59-.58,1.35-.87,2.3-.87s1.64.26,2.2.77c.56.5.84,1.22.84,2.16,0,1.13-.47,2.23-1.41,3.29-.93,1.05-2.09,2.09-3.46,3.09h5.18v.83h-6.68v-.7Zm17.98-8.89v9.66h-.98v-7.71l-3.44,7.71h-.71l-3.44-7.69v7.69h-.98v-9.66h1.04l3.74,8.37,3.74-8.37h1.05Z" fill="#6b6b6b"/>
  <path d="m305.78,392.61H24.78c-11.03,0-20-8.97-20-20V23.61C4.78,12.58,13.75,3.61,24.78,3.61h281c11.03,0,20,8.97,20,20v349c0,11.03-8.97,20-20,20ZM24.78,5.61C14.85,5.61,6.78,13.68,6.78,23.61v349c0,9.92,8.07,18,18,18h281c9.93,0,18-8.08,18-18V23.61c0-9.92-8.07-18-18-18H24.78Z"/>
</svg>